<?xml version="1.0" encoding="UTF-8"?>
<svg xmlns="http://www.w3.org/2000/svg" width="28" height="32" viewBox="0 0 28 32" fill="none">
  <path d="M26.7364 2.81493L14.2148 0.0323569C14.0158 -0.0107856 13.8099 -0.0107856 13.611 0.0323569L1.08938 2.81493C0.780193 2.88367 0.503712 3.05584 0.305634 3.30299C0.107556 3.55015 -0.000261879 3.85749 4.77673e-07 4.17422V18.0871C4.77673e-07 21.777 1.46582 25.3158 4.07499 27.925C6.68416 30.5342 10.223 32 13.9129 32C17.6028 32 21.1416 30.5342 23.7508 27.925C26.36 25.3158 27.8258 21.777 27.8258 18.0871V4.17422C27.826 3.85749 27.7182 3.55015 27.5201 3.30299C27.3221 3.05584 27.0456 2.88367 26.7364 2.81493ZM20.8693 22.261C20.8693 22.63 20.7227 22.9839 20.4618 23.2448C20.2009 23.5057 19.847 23.6523 19.478 23.6523H8.34773C7.97874 23.6523 7.62486 23.5057 7.36394 23.2448C7.10303 22.9839 6.95644 22.63 6.95644 22.261V15.3045C6.95644 14.9355 7.10303 14.5817 7.36394 14.3207C7.62486 14.0598 7.97874 13.9132 8.34773 13.9132H9.73902V11.1307C9.73902 10.0237 10.1788 8.96205 10.9615 8.1793C11.7443 7.39655 12.8059 6.9568 13.9129 6.9568C15.0199 6.9568 16.0815 7.39655 16.8643 8.1793C17.647 8.96205 18.0868 10.0237 18.0868 11.1307V13.9132H19.478C19.847 13.9132 20.2009 14.0598 20.4618 14.3207C20.7227 14.5817 20.8693 14.9355 20.8693 15.3045V22.261Z" fill="#2D7EFF"></path>
  <path d="M13.9128 9.73926C13.5438 9.73926 13.1899 9.88584 12.929 10.1468C12.6681 10.4077 12.5215 10.7616 12.5215 11.1305V13.9131H15.3041V11.1305C15.3041 10.7616 15.1575 10.4077 14.8966 10.1468C14.6356 9.88584 14.2818 9.73926 13.9128 9.73926Z" fill="#2D7EFF"></path>
</svg>
