<?xml version="1.0" encoding="UTF-8"?>
<svg xmlns="http://www.w3.org/2000/svg" width="32" height="32" viewBox="0 0 32 32" fill="none">
  <path d="M31.8387 0.152313C31.7167 0.0335742 31.5455 -0.0209814 31.3792 0.00736615C30.7144 0.115943 15.0245 2.74103 8.62263 9.14277C3.98317 13.7827 4.01152 18.8735 4.76195 22.1794L13.0722 16.7175C13.3231 16.5527 13.5975 16.8897 13.3856 17.102L0 30.4874L1.51261 32L7.14532 26.3674C8.2969 26.8557 10.4679 27.5933 13.0941 27.5933C16.0498 27.5933 19.5773 26.6578 22.8577 23.3775C29.7382 16.4966 31.906 1.25412 31.9948 0.608549C32.0184 0.440068 31.9606 0.271052 31.8387 0.152313Z" fill="#2D7EFF"></path>
</svg>
