<?xml version="1.0" encoding="UTF-8"?>
<svg xmlns="http://www.w3.org/2000/svg" width="43" height="32" viewBox="0 0 43 32" fill="none">
  <path d="M42.6667 30.2222C42.6667 31.2044 41.8711 32 40.8889 32H1.77778C0.795556 32 0 31.2044 0 30.2222V1.77778C0 0.795556 0.795556 0 1.77778 0H40.8889C41.8711 0 42.6667 0.795556 42.6667 1.77778V30.2222Z" fill="#2D7EFF"></path>
  <path d="M31.1105 19.5554H11.5549C11.0642 19.5554 10.666 19.1572 10.666 18.6666V13.3332C10.666 12.8426 11.0642 12.4443 11.5549 12.4443H31.1105C31.6011 12.4443 31.9993 12.8426 31.9993 13.3332V18.6666C31.9993 19.1572 31.6011 19.5554 31.1105 19.5554Z" fill="white"></path>
  <path d="M23.9996 26.6668H18.6662C18.1756 26.6668 17.7773 26.2686 17.7773 25.7779V6.22238C17.7773 5.73172 18.1756 5.3335 18.6662 5.3335H23.9996C24.4902 5.3335 24.8885 5.73172 24.8885 6.22238V25.7779C24.8885 26.2686 24.4902 26.6668 23.9996 26.6668Z" fill="white"></path>
</svg>
