<?xml version="1.0" encoding="UTF-8" ?>
<!DOCTYPE svg PUBLIC "-//W3C//DTD SVG 1.1//EN" "http://www.w3.org/Graphics/SVG/1.1/DTD/svg11.dtd">
<svg width="832pt" height="833pt" viewBox="0 0 832 833" version="1.1" xmlns="http://www.w3.org/2000/svg">
<g id="#2d7effff">
<path  fill="#2d7eff" stroke="#2d7eff" stroke-width="2" opacity="1.00" d=" M 405.47 7.65 C 435.08 6.13 464.62 9.92 493.71 15.18 C 520.32 20.85 546.34 29.07 571.93 38.17 C 595.79 50.18 619.93 61.86 642.10 76.86 C 661.91 89.59 679.35 105.58 697.29 120.75 C 711.01 135.01 724.54 149.49 737.74 164.25 C 759.91 190.93 778.70 220.56 792.53 252.40 C 799.05 268.01 805.54 283.82 808.46 300.58 C 815.64 339.25 827.94 377.31 828.06 417.00 C 828.61 430.47 825.36 443.65 823.89 456.96 C 820.93 480.64 816.65 504.13 811.48 527.42 C 808.75 539.34 806.49 551.48 801.80 562.83 C 795.49 578.33 787.29 592.96 780.02 608.01 C 770.25 627.99 758.43 647.04 743.92 663.93 C 732.76 676.76 722.57 690.47 710.23 702.23 C 695.88 715.59 681.88 729.42 666.03 741.05 C 643.06 757.43 619.21 772.53 594.89 786.83 C 582.15 793.85 568.33 798.58 554.79 803.76 C 540.46 808.92 526.36 815.15 511.15 817.25 C 481.92 821.72 452.53 825.48 422.96 826.74 C 395.49 828.80 368.54 821.92 341.39 819.17 C 335.23 818.26 329.18 816.69 322.99 816.00 C 301.35 813.39 280.76 805.74 260.86 797.15 C 249.22 792.23 238.87 784.81 227.26 779.83 C 218.32 776.39 210.41 770.83 201.41 767.48 C 168.56 749.92 142.34 722.80 116.21 696.79 C 105.67 684.93 95.42 672.77 86.09 659.93 C 73.57 643.99 63.51 626.33 53.26 608.89 C 45.71 593.60 39.06 577.88 31.63 562.54 C 27.00 549.34 23.75 535.71 19.52 522.39 C 9.52 489.84 8.17 455.62 5.35 421.95 C 4.01 405.18 8.25 388.82 10.32 372.32 C 14.18 343.66 19.10 315.11 26.23 287.08 C 32.33 265.91 43.44 246.71 52.99 227.00 C 62.27 208.09 73.07 189.85 86.69 173.71 C 97.92 157.27 110.86 142.02 125.22 128.22 C 147.97 104.84 174.08 84.95 201.68 67.67 C 231.67 49.66 263.82 35.54 296.66 23.64 C 310.20 18.57 324.51 16.16 338.85 14.78 C 361.08 12.61 383.25 9.90 405.47 7.65 M 420.72 11.78 C 428.00 17.77 436.49 22.09 444.87 26.34 C 444.99 21.99 445.12 17.65 445.28 13.31 C 437.18 11.89 428.93 11.39 420.72 11.78 M 409.97 11.93 C 405.20 15.17 400.41 18.36 395.70 21.67 C 408.29 25.03 421.31 26.40 434.34 25.94 C 426.53 20.74 418.39 16.04 409.97 11.93 M 356.49 16.47 C 356.32 17.14 355.97 18.47 355.80 19.13 C 358.34 20.66 360.78 23.02 363.94 22.95 C 374.11 22.37 382.95 16.72 392.24 13.16 C 380.30 14.07 368.41 15.45 356.49 16.47 M 450.38 12.94 C 449.03 17.56 449.70 22.41 450.47 27.07 C 458.17 24.89 465.90 22.75 473.27 19.56 C 465.67 17.24 458.00 15.16 450.38 12.94 M 322.46 23.46 C 325.73 24.76 329.03 26.95 332.67 26.62 C 336.34 25.09 338.58 21.53 341.38 18.88 C 334.91 19.53 328.25 20.28 322.46 23.46 M 340.77 27.04 C 346.31 26.68 351.83 26.19 357.36 25.69 C 354.58 23.28 351.70 20.96 348.87 18.63 C 346.14 21.40 343.45 24.22 340.77 27.04 M 383.72 22.22 C 386.10 21.51 388.44 20.65 390.66 19.51 C 388.29 20.28 385.98 21.19 383.72 22.22 M 473.73 24.64 C 476.83 25.15 479.88 25.63 483.01 26.11 C 482.97 24.64 482.93 23.17 482.91 21.69 C 479.83 22.62 476.77 23.61 473.73 24.64 M 311.41 25.33 C 308.01 27.21 305.17 29.95 302.24 32.47 C 309.66 31.54 317.05 30.33 324.47 29.31 C 320.80 26.40 316.44 23.33 311.41 25.33 M 385.24 31.38 C 388.87 32.03 392.54 32.70 396.19 33.32 C 394.53 36.66 392.81 39.98 391.11 43.29 C 405.35 39.94 419.58 36.28 433.45 31.59 C 419.81 29.70 406.16 27.66 392.43 26.61 C 389.20 26.29 387.19 29.31 385.24 31.38 M 365.38 29.51 C 365.29 31.23 365.09 34.68 364.99 36.41 C 368.22 35.86 371.56 35.68 374.67 34.58 C 377.85 33.22 379.36 29.84 381.31 27.19 C 376.00 27.99 370.69 28.77 365.38 29.51 M 453.61 30.86 C 461.29 35.82 469.18 40.52 477.35 44.62 C 485.59 47.07 494.28 44.47 502.52 43.29 C 492.84 39.50 482.47 37.87 472.74 34.26 C 466.61 32.25 460.23 28.33 453.61 30.86 M 315.72 44.83 C 325.86 40.73 336.78 37.70 345.73 31.19 C 334.10 31.16 324.57 38.16 315.72 44.83 M 331.46 43.57 C 326.04 46.95 321.43 51.47 316.79 55.83 C 325.84 54.88 335.04 54.69 343.95 52.76 C 352.05 48.09 363.02 41.79 361.50 30.70 C 351.38 34.72 341.21 38.69 331.46 43.57 M 309.70 36.48 C 311.38 36.81 314.73 37.46 316.41 37.78 C 308.44 40.25 300.35 42.42 292.60 45.54 C 296.39 45.09 300.20 44.63 303.97 43.94 C 311.52 43.45 317.31 38.08 323.29 34.08 C 318.74 34.77 314.21 35.59 309.70 36.48 M 402.91 44.75 C 396.33 46.73 389.45 48.13 383.35 51.40 C 397.58 51.98 412.00 53.04 426.15 51.16 C 432.29 47.41 435.94 40.66 440.24 35.04 C 427.70 37.88 415.34 41.48 402.91 44.75 M 450.80 35.06 C 452.26 44.65 454.72 54.05 456.41 63.61 C 458.84 63.19 463.69 62.36 466.12 61.95 C 470.55 58.35 473.88 53.53 477.96 49.55 C 468.87 44.78 459.84 39.90 450.80 35.06 M 432.19 53.78 C 438.21 58.23 443.50 65.81 452.06 63.53 C 450.22 54.46 448.37 45.40 446.36 36.37 C 440.85 41.47 435.89 47.24 432.19 53.78 M 280.46 43.14 C 278.06 46.30 275.59 49.41 273.01 52.43 C 278.71 50.78 284.11 48.29 289.43 45.70 C 286.44 44.85 283.45 43.99 280.46 43.14 M 485.78 50.60 C 488.24 57.03 491.58 63.08 495.63 68.65 C 496.75 65.98 497.51 63.18 498.07 60.34 C 499.13 60.06 500.19 59.78 501.26 59.50 C 500.22 57.06 499.10 54.66 497.96 52.27 C 500.48 52.85 503.02 53.42 505.56 53.96 C 507.02 51.59 508.52 49.25 510.02 46.90 C 501.90 47.86 493.79 48.99 485.78 50.60 M 514.34 47.86 C 513.90 48.89 513.45 49.93 513.01 50.96 C 515.72 51.21 518.51 51.47 521.26 51.71 C 518.95 50.41 516.65 49.13 514.34 47.86 M 289.60 54.12 C 292.75 53.29 295.72 51.89 298.33 49.92 C 295.36 51.20 292.46 52.64 289.60 54.12 M 512.10 52.38 C 510.67 52.05 509.55 54.54 511.22 54.94 C 512.68 55.34 513.77 52.78 512.10 52.38 M 471.02 63.46 C 477.55 65.20 484.00 67.24 490.32 69.67 C 487.35 64.14 484.13 58.75 480.74 53.48 C 477.38 56.68 474.23 60.10 471.02 63.46 M 375.64 56.32 C 381.99 59.07 388.46 61.56 394.84 64.25 C 398.04 65.45 401.32 67.10 404.83 66.82 C 410.71 64.44 415.39 60.02 420.33 56.15 C 405.43 55.83 390.53 55.89 375.64 56.32 M 411.47 68.79 C 422.86 70.90 434.43 71.71 445.98 72.55 C 442.17 65.28 434.21 61.62 428.02 56.77 C 422.41 60.65 416.82 64.57 411.47 68.79 M 298.59 66.48 C 302.68 68.52 306.51 71.90 311.32 71.80 C 321.86 72.82 329.16 63.29 337.30 58.22 C 324.31 60.11 309.53 57.90 298.59 66.48 M 374.16 60.21 C 373.17 61.59 372.18 62.97 371.18 64.35 C 377.78 75.18 383.37 86.61 390.38 97.17 C 393.02 95.25 393.96 91.95 395.22 89.10 C 397.49 83.39 399.93 77.75 402.24 72.06 C 393.10 67.60 383.56 64.08 374.16 60.21 M 254.17 63.11 C 244.74 64.96 235.07 66.69 226.66 71.61 C 232.75 70.88 238.88 70.57 245.02 70.59 C 235.96 77.61 223.00 75.54 213.34 81.33 C 208.91 85.34 205.45 90.30 201.62 94.86 C 212.24 90.76 223.01 86.79 232.82 80.93 C 240.97 76.79 249.21 72.51 258.18 70.49 C 255.19 70.01 250.19 72.26 248.54 68.38 C 252.42 66.70 256.46 65.42 260.41 63.91 C 258.39 63.31 256.29 62.68 254.17 63.11 M 264.86 71.80 C 257.24 74.84 249.36 77.30 242.10 81.17 C 240.40 82.07 239.27 83.65 238.13 85.14 C 232.82 92.53 225.35 97.96 219.44 104.83 C 224.98 104.26 230.39 102.96 235.83 101.85 C 235.73 103.42 235.63 105.00 235.54 106.57 C 244.95 107.84 254.38 109.01 263.82 109.96 C 268.96 99.90 272.97 89.32 276.92 78.76 C 273.40 80.99 269.96 83.34 266.38 85.48 C 266.43 84.25 266.48 83.02 266.54 81.79 C 260.78 85.96 255.56 91.24 248.72 93.67 C 248.98 85.26 253.91 76.83 262.35 74.46 C 269.19 72.64 276.38 71.16 281.74 66.12 C 275.82 67.03 270.39 69.65 264.86 71.80 M 282.05 77.06 C 276.12 85.96 274.31 96.76 271.10 106.77 C 271.85 107.57 272.59 108.37 273.34 109.17 C 276.49 107.97 279.99 106.67 281.26 103.20 C 286.91 92.08 295.80 83.10 305.07 74.94 C 301.95 73.08 299.03 70.82 295.65 69.47 C 290.88 71.43 285.96 73.65 282.05 77.06 M 350.67 76.84 C 346.53 80.64 344.50 86.12 341.64 90.86 C 356.32 94.79 371.31 97.46 386.06 101.12 C 380.46 90.51 374.70 79.98 369.13 69.35 C 364.10 74.18 356.76 74.15 350.67 76.84 M 410.65 73.02 C 419.89 84.56 429.62 95.75 439.95 106.33 C 443.24 96.97 443.34 86.94 444.04 77.15 C 432.97 75.33 421.82 74.04 410.65 73.02 M 484.59 76.11 C 486.64 77.51 488.73 78.85 490.84 80.17 C 491.25 78.65 491.67 77.13 492.09 75.62 C 489.58 75.69 487.08 75.88 484.59 76.11 M 405.31 75.46 C 401.33 84.39 398.00 93.60 394.79 102.83 C 407.65 104.69 420.54 107.03 433.59 106.91 C 424.66 96.02 415.83 84.88 405.31 75.46 M 497.16 75.18 C 496.24 77.50 495.38 79.85 494.52 82.20 C 498.71 83.61 503.02 84.58 507.40 85.26 C 504.96 80.94 502.49 76.14 497.16 75.18 M 330.73 86.04 C 333.02 86.72 335.31 87.56 337.73 87.75 C 340.99 84.69 342.73 80.41 345.09 76.68 C 340.18 79.60 335.48 82.86 330.73 86.04 M 198.76 80.33 C 197.83 84.66 196.84 88.99 196.01 93.34 C 200.69 88.78 204.97 83.80 208.71 78.44 C 205.35 78.84 202.05 79.60 198.76 80.33 M 178.41 101.77 C 181.70 101.25 184.99 100.83 188.24 100.06 C 191.23 95.82 191.55 90.29 192.95 85.39 C 187.09 89.82 181.90 95.27 178.41 101.77 M 323.31 87.52 C 314.25 88.39 307.67 95.73 300.54 100.65 C 310.95 97.83 321.34 94.92 331.56 91.49 C 328.88 90.07 326.28 88.12 323.31 87.52 M 469.66 89.84 C 470.57 93.91 471.76 97.90 473.01 101.88 C 475.76 101.15 478.54 100.44 481.31 99.71 C 477.51 96.32 473.62 93.03 469.66 89.84 M 339.93 94.96 C 340.38 103.69 340.94 112.42 341.53 121.14 C 355.91 117.14 369.53 110.84 383.37 105.32 C 368.98 101.51 354.44 98.31 339.93 94.96 M 297.98 105.98 C 292.06 107.15 287.27 110.91 282.45 114.28 C 288.50 115.78 294.41 119.01 300.73 118.66 C 310.51 113.10 318.80 105.37 327.11 97.88 C 317.33 100.31 307.66 103.17 297.98 105.98 M 305.21 123.11 C 305.29 130.62 306.92 137.99 308.33 145.34 C 316.59 130.88 323.57 115.73 330.91 100.79 C 322.56 108.47 312.45 114.30 305.21 123.11 M 315.10 142.54 C 323.59 137.44 330.14 129.78 337.38 123.14 C 336.92 115.99 336.47 108.85 335.80 101.72 C 328.54 115.14 321.24 128.56 315.10 142.54 M 153.58 123.89 C 163.50 117.66 173.51 111.56 183.27 105.07 C 170.91 106.10 160.75 114.27 153.58 123.89 M 474.61 105.24 C 475.51 106.85 476.43 108.45 477.35 110.05 C 478.56 108.34 479.81 106.66 481.09 105.00 C 479.47 105.06 476.23 105.18 474.61 105.24 M 394.81 106.88 C 395.69 117.73 397.19 128.56 399.97 139.10 C 411.12 130.21 422.51 121.62 433.31 112.29 C 420.53 110.11 407.66 108.49 394.81 106.88 M 356.57 120.43 C 353.90 121.54 351.14 122.60 348.84 124.40 C 353.73 127.12 359.08 128.85 364.35 130.65 C 374.40 134.04 384.46 137.65 394.98 139.28 C 393.33 128.71 392.18 118.03 389.34 107.70 C 378.44 112.01 367.53 116.28 356.57 120.43 M 484.37 107.63 C 483.08 109.30 480.52 112.63 479.23 114.30 C 482.09 121.65 483.38 129.49 483.75 137.36 C 490.35 140.01 496.85 142.89 503.29 145.92 C 501.90 141.39 500.41 136.89 498.96 132.39 C 501.20 132.32 503.45 132.22 505.70 132.09 C 500.28 122.69 494.16 112.96 484.37 107.63 M 496.03 109.15 C 497.73 112.14 499.47 115.10 501.21 118.09 C 503.10 117.65 504.98 117.18 506.87 116.72 C 506.68 110.61 501.29 108.50 496.03 109.15 M 213.96 122.02 C 209.27 125.31 206.44 130.39 203.68 135.26 C 205.12 135.45 206.55 135.65 207.99 135.87 C 206.63 138.92 205.26 141.97 203.90 145.02 C 222.28 134.57 241.02 124.74 259.28 114.08 C 250.35 112.41 241.31 110.48 232.20 110.58 C 225.59 113.37 220.03 118.25 213.96 122.02 M 276.53 112.12 C 276.67 112.44 276.96 113.09 277.10 113.41 C 279.70 114.02 277.95 109.94 276.53 112.12 M 267.39 116.77 C 260.51 126.56 253.30 136.14 246.95 146.29 C 256.95 142.87 267.07 139.61 276.57 134.93 C 273.93 128.67 270.73 122.67 267.39 116.77 M 272.94 116.90 C 275.65 122.18 278.44 127.44 281.37 132.62 C 286.22 129.82 290.80 126.58 295.41 123.40 C 288.14 120.52 280.52 118.71 272.94 116.90 M 407.51 139.61 C 422.52 136.88 437.52 133.99 452.39 130.57 C 449.73 128.80 447.12 126.74 443.96 125.95 C 441.40 124.92 439.62 127.55 437.70 128.73 C 436.55 125.09 435.40 121.45 434.42 117.76 C 425.20 124.73 415.95 131.70 407.51 139.61 M 235.11 133.17 C 224.49 139.13 213.40 144.36 203.46 151.45 C 215.16 150.54 226.99 150.53 238.58 148.50 C 246.54 139.86 252.59 129.60 259.32 120.00 C 251.05 124.01 243.18 128.78 235.11 133.17 M 300.10 125.81 C 295.05 129.27 289.96 132.67 285.11 136.41 C 291.19 140.32 296.98 144.85 303.65 147.74 C 302.50 140.43 301.38 133.10 300.10 125.81 M 343.12 128.80 C 346.21 146.28 350.63 163.52 354.84 180.76 C 357.92 178.99 360.30 176.28 362.89 173.88 C 372.92 164.08 383.32 154.67 393.44 144.96 C 376.79 139.24 360.33 132.64 343.12 128.80 M 310.60 153.39 C 323.65 162.45 336.59 171.71 349.91 180.38 C 346.29 163.37 342.63 146.36 338.05 129.58 C 328.64 137.20 319.44 145.11 310.60 153.39 M 436.38 138.36 C 425.82 140.64 415.17 142.44 404.58 144.54 C 415.94 151.75 427.62 158.52 439.66 164.57 C 445.87 155.01 452.86 145.86 457.76 135.52 C 450.52 135.11 443.43 137.06 436.38 138.36 M 244.47 152.40 C 246.93 160.54 252.31 167.31 256.75 174.41 C 263.63 163.65 269.34 152.17 275.32 140.89 C 264.88 144.28 254.67 148.35 244.47 152.40 M 280.35 140.38 C 274.64 151.64 268.48 162.68 262.80 173.96 C 275.79 166.85 289.27 160.65 302.19 153.42 C 295.35 148.44 288.42 143.21 280.35 140.38 M 445.59 165.73 C 450.34 163.05 454.33 159.29 458.48 155.80 C 467.00 158.05 476.00 157.58 484.70 157.05 C 490.37 155.05 495.55 151.83 501.08 149.45 C 494.97 146.64 488.83 143.93 482.62 141.37 C 480.57 143.10 478.70 145.43 475.96 146.01 C 470.23 147.08 465.31 143.79 460.61 141.09 C 455.53 149.21 448.85 156.60 445.59 165.73 M 400.06 147.08 C 395.65 162.01 391.17 177.01 388.73 192.40 C 404.52 184.77 420.12 176.66 435.15 167.61 C 423.28 161.05 411.70 154.00 400.06 147.08 M 150.24 151.89 C 148.39 154.23 146.53 156.56 144.68 158.91 C 146.94 160.92 148.67 163.42 149.86 166.22 C 144.03 169.07 138.42 172.41 133.47 176.63 C 144.74 171.62 156.15 164.92 161.18 153.08 C 157.54 152.62 153.89 152.19 150.24 151.89 M 357.68 184.60 C 365.81 188.41 374.24 191.51 382.76 194.33 C 387.08 180.38 391.04 166.25 393.12 151.77 C 380.83 162.19 369.59 173.76 357.68 184.60 M 196.88 156.19 C 201.72 164.62 207.24 172.63 213.27 180.26 C 220.95 172.05 228.05 163.31 234.44 154.06 C 221.92 154.72 209.40 155.53 196.88 156.19 M 164.28 154.86 C 163.48 156.92 162.65 158.98 161.81 161.03 C 164.21 160.43 169.01 159.22 171.41 158.62 C 169.03 157.35 166.66 156.10 164.28 154.86 M 218.63 181.57 C 230.17 180.16 241.73 178.96 253.28 177.70 C 249.01 170.60 244.64 163.55 240.34 156.46 C 231.59 163.35 225.69 173.09 218.63 181.57 M 158.91 167.96 C 161.32 181.85 160.87 197.80 171.64 208.47 C 179.38 192.44 184.06 175.18 188.17 157.93 C 178.24 160.72 168.42 163.92 158.91 167.96 M 309.07 158.61 C 309.75 170.39 310.05 182.17 310.12 193.96 C 322.57 190.91 335.07 188.08 347.44 184.71 C 335.96 174.22 322.28 166.63 309.07 158.61 M 273.88 199.02 C 284.55 197.84 295.17 196.28 305.77 194.57 C 305.91 182.95 305.24 171.34 304.70 159.74 C 294.46 172.86 283.82 185.67 273.88 199.02 M 192.59 160.30 C 188.76 170.66 185.50 181.31 183.80 192.25 C 192.08 189.43 200.28 186.38 208.50 183.41 C 204.11 175.13 198.93 167.23 192.59 160.30 M 260.53 180.28 C 262.84 186.38 265.60 192.30 268.33 198.23 C 278.18 186.31 287.69 174.11 297.01 161.76 C 284.64 167.52 272.80 174.33 260.53 180.28 M 439.44 170.95 C 422.83 179.70 406.32 188.64 389.69 197.35 C 393.67 199.37 397.71 201.25 401.75 203.16 C 413.37 195.04 425.83 188.29 437.80 180.75 C 441.52 178.97 438.75 173.78 439.44 170.95 M 136.72 180.65 C 139.71 181.01 142.71 181.36 145.71 181.71 C 143.14 184.13 140.71 186.83 137.64 188.63 C 133.88 189.98 129.82 188.46 125.97 189.25 C 122.74 190.28 119.75 191.93 116.74 193.46 C 123.28 196.28 129.89 199.05 136.90 200.47 C 141.84 191.46 146.46 182.27 149.96 172.60 C 145.37 174.98 141.05 177.84 136.72 180.65 M 141.99 200.32 C 146.85 199.26 151.63 197.87 156.30 196.18 C 157.98 195.81 158.85 193.94 158.58 192.34 C 157.73 186.39 156.24 180.56 154.79 174.74 C 150.22 183.11 146.11 191.72 141.99 200.32 M 118.06 181.28 C 116.65 180.78 115.27 183.18 116.94 183.72 C 118.35 184.21 119.72 181.82 118.06 181.28 M 217.53 186.30 C 221.41 192.38 225.48 198.40 230.33 203.76 C 232.15 204.42 233.34 202.58 234.54 201.55 C 240.21 195.45 245.59 189.07 250.54 182.37 C 239.52 183.56 228.51 184.84 217.53 186.30 M 94.67 196.08 C 99.50 194.78 104.34 193.27 108.73 190.83 C 110.06 188.57 110.52 185.94 111.25 183.45 C 104.89 186.41 99.34 190.89 94.67 196.08 M 237.56 204.89 C 246.59 203.96 255.50 202.23 264.44 200.65 C 262.05 195.13 259.33 189.76 256.67 184.37 C 249.72 190.65 243.48 197.65 237.56 204.89 M 183.73 197.90 C 187.65 203.78 191.58 209.67 195.75 215.38 C 200.33 206.75 204.29 197.81 207.93 188.75 C 199.70 191.34 191.58 194.29 183.73 197.90 M 213.22 188.84 C 208.98 198.02 204.47 207.06 200.03 216.14 C 208.93 213.51 218.00 211.14 226.38 207.07 C 222.46 200.67 217.79 194.78 213.22 188.84 M 311.71 198.32 C 316.08 211.59 322.33 224.15 327.43 237.14 C 335.18 221.52 342.35 205.61 349.05 189.52 C 336.30 190.87 324.11 195.25 311.71 198.32 M 355.01 188.61 C 347.50 203.39 340.36 218.44 334.58 233.98 C 350.10 222.53 364.88 210.11 380.13 198.30 C 371.76 195.04 363.45 191.65 355.01 188.61 M 88.39 202.53 C 84.84 203.95 83.11 207.67 82.17 211.12 C 80.25 218.55 78.39 225.99 76.38 233.40 C 85.70 221.64 95.27 210.08 104.18 198.01 C 98.88 199.39 93.56 200.74 88.39 202.53 M 114.00 197.60 C 114.85 206.61 116.04 215.58 117.44 224.53 C 118.01 224.63 119.17 224.83 119.74 224.94 C 124.29 218.30 129.22 211.93 133.56 205.16 C 127.38 201.86 120.85 199.16 114.00 197.60 M 274.47 203.69 C 289.50 214.65 304.74 225.50 321.12 234.39 C 316.75 222.72 311.92 211.22 307.01 199.77 C 296.09 200.42 285.28 202.09 274.47 203.69 M 139.89 205.89 C 140.67 211.37 141.38 216.86 142.25 222.34 C 147.30 215.49 151.68 208.20 156.06 200.92 C 150.65 202.52 145.24 204.12 139.89 205.89 M 332.84 241.71 C 344.56 244.41 356.09 248.02 367.93 250.19 C 371.86 250.97 373.31 244.91 377.28 245.65 C 385.18 246.58 393.05 247.71 401.00 248.28 C 395.20 232.73 389.70 217.08 383.68 201.62 C 366.27 214.36 349.43 227.91 332.84 241.71 M 160.02 202.91 C 155.80 209.58 151.49 216.21 147.90 223.24 C 154.65 220.23 161.18 216.74 167.55 213.00 C 166.01 209.69 164.42 206.42 162.82 203.15 C 162.12 203.09 160.72 202.97 160.02 202.91 M 179.35 201.93 C 177.82 205.44 176.56 209.05 175.55 212.75 C 180.50 213.87 185.44 214.96 190.42 215.94 C 187.12 210.98 183.67 206.05 179.35 201.93 M 389.67 202.81 C 393.53 218.26 400.11 232.90 405.52 247.85 C 408.48 246.00 410.99 243.45 412.10 240.04 C 413.18 237.44 415.06 233.82 412.65 231.36 C 407.96 225.76 402.54 220.69 399.03 214.19 C 402.03 213.18 405.00 212.25 408.06 211.42 C 401.99 208.43 395.87 205.51 389.67 202.81 M 109.64 204.66 C 103.20 220.76 97.28 237.06 90.94 253.21 C 98.02 247.61 104.77 241.53 110.59 234.62 C 112.85 232.15 114.16 228.72 113.58 225.37 C 112.51 218.42 111.15 211.52 109.64 204.66 M 234.02 210.17 C 238.02 217.97 242.22 225.66 246.43 233.36 C 252.53 224.56 258.05 215.36 263.08 205.91 C 253.36 207.12 243.71 208.81 234.02 210.17 M 78.60 237.65 C 77.46 239.79 74.40 241.88 75.41 244.62 C 77.29 249.66 81.66 253.13 85.39 256.80 C 91.81 240.20 97.52 223.33 103.99 206.75 C 95.07 216.66 86.97 227.28 78.60 237.65 M 271.73 208.00 C 275.04 226.06 280.01 243.78 283.23 261.87 C 296.51 255.35 309.99 249.23 323.18 242.52 C 305.96 231.11 289.03 219.28 271.73 208.00 M 73.14 209.11 C 71.82 209.79 71.81 210.47 73.11 211.14 C 74.43 210.46 74.44 209.78 73.14 209.11 M 252.00 233.02 C 251.12 235.06 248.82 237.88 251.36 239.61 C 259.63 246.68 268.65 252.93 278.03 258.45 C 274.96 241.95 270.99 225.63 267.18 209.29 C 261.18 216.55 256.99 225.08 252.00 233.02 M 121.56 230.03 C 127.16 229.47 132.70 228.44 138.22 227.36 C 137.51 221.77 136.72 216.18 135.83 210.61 C 130.61 216.72 125.93 223.29 121.56 230.03 M 224.11 213.05 C 217.23 215.00 210.48 217.41 203.69 219.66 C 215.43 225.60 227.94 229.82 240.34 234.13 C 237.50 227.05 234.65 219.87 230.49 213.45 C 228.81 211.54 226.18 212.59 224.11 213.05 M 173.93 216.92 C 173.88 227.47 173.96 238.04 174.92 248.55 C 181.22 239.88 187.53 231.04 191.77 221.14 C 185.85 219.62 179.89 218.27 173.93 216.92 M 144.60 230.28 C 152.60 238.39 161.25 245.81 169.90 253.21 C 170.04 241.39 170.03 229.57 169.90 217.75 C 161.37 221.74 152.96 225.95 144.60 230.28 M 56.83 230.38 C 59.11 227.78 60.93 224.80 62.16 221.56 C 59.73 224.06 57.98 227.11 56.83 230.38 M 495.12 222.83 C 495.37 225.23 495.12 228.09 497.14 229.84 C 503.26 235.54 511.14 238.63 518.90 241.41 C 518.97 238.57 519.04 235.73 519.11 232.90 C 512.05 227.70 503.69 224.53 495.12 222.83 M 199.42 223.59 C 200.68 237.65 202.98 251.65 205.83 265.47 C 218.44 257.95 229.45 248.14 241.11 239.29 C 227.44 233.51 213.47 228.37 199.42 223.59 M 64.45 241.87 C 65.98 241.89 67.50 241.93 69.03 241.97 C 70.95 236.25 72.75 230.49 74.08 224.61 C 69.58 229.54 66.78 235.68 64.45 241.87 M 175.55 257.56 C 183.85 260.97 192.16 264.45 200.82 266.87 C 199.18 253.47 196.94 240.15 194.80 226.82 C 188.02 236.82 181.33 246.93 175.55 257.56 M 120.48 234.63 C 122.16 241.67 124.66 248.58 128.47 254.78 C 132.04 247.91 134.41 240.51 136.90 233.21 C 131.41 233.48 125.90 233.67 120.48 234.63 M 141.18 234.57 C 137.79 242.87 134.59 251.24 131.76 259.74 C 143.04 258.60 154.34 257.71 165.60 256.44 C 158.17 248.41 149.80 241.29 141.18 234.57 M 49.79 248.55 C 55.16 246.21 59.05 241.54 59.27 235.54 C 55.75 239.59 52.56 243.95 49.79 248.55 M 522.46 235.94 C 521.47 244.30 530.12 245.79 534.82 250.23 C 540.09 253.59 542.02 259.79 544.41 265.22 C 542.26 265.46 540.08 265.52 538.02 266.17 C 536.96 269.64 537.40 273.33 537.18 276.90 C 549.20 278.77 561.18 280.95 573.33 281.91 C 556.40 266.55 540.32 250.23 522.46 235.94 M 468.21 237.19 C 484.70 250.32 503.37 260.55 520.84 272.33 C 520.89 269.49 520.99 263.81 521.03 260.98 C 508.19 254.69 494.77 249.35 483.15 240.86 C 479.03 237.16 473.34 237.63 468.21 237.19 M 102.91 273.45 C 110.41 270.26 117.36 265.97 124.31 261.74 C 123.47 254.05 120.27 246.97 116.51 240.32 C 110.43 250.64 107.24 262.35 102.91 273.45 M 89.13 262.28 C 90.87 266.70 94.54 270.00 97.25 273.82 C 103.44 264.07 105.88 252.55 110.05 241.90 C 103.04 248.65 95.54 254.96 89.13 262.28 M 239.94 245.91 C 230.66 253.00 221.14 259.79 212.32 267.45 C 233.15 266.62 253.91 264.54 274.72 263.37 C 266.73 255.88 257.92 249.28 248.94 243.05 C 245.78 240.57 242.39 244.35 239.94 245.91 M 454.95 248.45 C 456.12 268.66 455.73 288.94 457.60 309.12 C 478.04 299.31 497.56 287.69 517.89 277.67 C 517.85 277.12 517.77 276.01 517.73 275.45 C 501.87 266.07 486.93 255.24 471.34 245.43 C 466.55 248.75 460.47 248.24 454.95 248.45 M 581.41 255.41 C 583.82 263.38 585.97 271.43 588.40 279.39 C 591.52 274.48 594.94 269.65 597.17 264.25 C 598.94 257.37 594.32 251.34 591.86 245.32 C 588.31 248.61 584.96 252.12 581.41 255.41 M 60.40 250.33 C 58.02 255.69 56.95 261.55 55.88 267.30 C 60.12 260.71 64.12 253.83 66.42 246.29 C 64.29 247.36 61.44 247.90 60.40 250.33 M 333.91 246.76 C 343.86 266.09 353.97 285.37 364.94 304.16 C 365.38 303.89 366.26 303.37 366.70 303.10 C 365.57 301.63 364.43 300.16 363.43 298.61 C 353.52 285.49 360.76 267.82 367.76 254.98 C 356.54 251.99 345.36 248.75 333.91 246.76 M 297.82 298.28 C 317.95 303.17 338.87 303.34 359.35 305.99 C 348.94 286.44 338.00 267.17 327.56 247.63 C 316.91 264.06 306.78 280.87 297.82 298.28 M 428.81 281.07 C 436.34 289.83 443.79 298.72 452.40 306.46 C 452.68 286.82 452.40 267.11 450.80 247.53 C 441.98 257.69 435.86 269.71 428.81 281.07 M 284.69 266.16 C 287.51 275.70 290.68 285.15 294.55 294.32 C 303.48 279.22 312.70 264.29 321.08 248.88 C 308.68 254.07 296.66 260.07 284.69 266.16 M 73.21 250.61 C 70.84 261.00 70.71 271.70 71.09 282.30 C 74.81 275.98 80.10 270.21 81.84 262.99 C 80.75 257.97 76.14 254.61 73.21 250.61 M 37.74 268.21 C 41.89 263.98 45.53 259.29 49.10 254.57 C 42.83 256.51 39.52 262.26 37.74 268.21 M 573.69 255.12 C 575.07 256.87 576.47 258.61 577.93 260.31 C 577.63 258.55 577.33 256.80 577.02 255.06 C 576.19 255.07 574.53 255.10 573.69 255.12 M 33.31 282.66 C 36.83 283.80 40.33 285.26 44.05 285.53 C 45.76 285.62 47.43 284.65 47.80 282.90 C 50.51 274.05 52.25 264.94 54.03 255.87 C 46.90 264.62 39.53 273.23 33.31 282.66 M 51.75 287.26 C 55.97 289.67 60.69 291.07 65.60 291.10 C 66.72 279.34 67.20 267.55 67.75 255.76 C 61.58 265.81 56.96 276.70 51.75 287.26 M 131.15 264.38 C 131.49 276.06 131.47 287.92 134.28 299.33 C 145.12 286.95 155.44 274.14 166.15 261.66 C 154.43 261.46 142.75 262.89 131.15 264.38 M 174.04 261.82 C 174.86 283.98 172.31 306.16 173.97 328.29 C 183.27 309.75 191.77 290.83 200.84 272.18 C 192.00 268.49 183.07 265.03 174.04 261.82 M 524.90 263.59 C 525.31 266.91 525.35 270.40 526.47 273.61 C 528.07 275.19 530.33 275.78 532.31 276.73 C 532.81 270.85 528.98 266.94 524.90 263.59 M 135.54 306.08 C 146.51 315.94 157.64 325.63 168.93 335.14 C 168.20 311.95 170.73 288.75 169.08 265.58 C 157.35 278.60 146.18 292.15 135.54 306.08 M 215.93 272.11 C 239.74 281.67 264.46 288.74 289.08 295.89 C 286.40 286.38 283.80 276.82 279.94 267.72 C 258.58 268.37 237.26 270.58 215.93 272.11 M 600.54 266.86 C 597.18 272.60 594.13 278.53 591.56 284.68 C 605.20 287.29 618.95 289.27 632.70 291.16 C 632.58 286.88 631.85 282.66 631.17 278.45 C 626.33 278.72 621.44 278.75 616.63 278.38 C 609.73 277.25 604.85 271.89 600.54 266.86 M 639.80 292.88 C 650.17 299.71 662.06 303.46 673.54 307.95 C 673.98 293.94 667.24 281.05 659.81 269.64 C 649.91 273.92 645.85 284.73 639.80 292.88 M 87.26 270.09 C 87.09 276.56 87.16 283.03 87.29 289.52 C 89.42 286.88 91.59 284.25 93.52 281.47 C 95.13 276.32 90.68 272.86 87.26 270.09 M 99.76 281.89 C 100.23 287.69 100.77 293.50 101.31 299.29 C 108.17 290.39 114.47 280.96 119.17 270.73 C 112.28 273.67 105.80 277.49 99.76 281.89 M 70.98 293.36 C 74.22 293.96 77.46 294.61 80.71 295.14 C 81.43 294.32 82.16 293.50 82.89 292.68 C 82.92 286.02 82.91 279.36 82.85 272.71 C 78.75 279.50 74.44 286.20 70.98 293.36 M 102.31 309.08 C 105.65 317.74 112.96 324.90 118.75 332.32 C 121.05 325.64 124.61 319.44 126.55 312.65 C 127.98 299.62 125.83 286.59 124.48 273.65 C 116.46 285.03 108.89 296.83 102.31 309.08 M 635.12 277.24 C 635.67 279.48 636.75 283.97 637.29 286.22 C 640.60 282.24 643.90 278.23 647.26 274.28 C 643.22 275.30 639.16 276.28 635.12 277.24 M 204.20 275.58 C 193.88 295.82 184.62 316.59 174.97 337.16 C 197.81 335.26 220.72 333.53 243.34 329.81 C 235.80 317.24 226.40 305.96 218.13 293.90 C 213.78 287.58 209.18 281.42 204.20 275.58 M 210.75 276.04 C 221.17 291.00 232.42 305.37 242.40 320.64 C 245.69 326.25 251.38 330.52 257.97 330.93 C 273.98 331.87 289.82 334.90 305.91 334.68 C 301.68 323.55 296.94 312.49 290.63 302.39 C 286.68 299.43 281.41 298.92 276.94 297.05 C 254.74 290.48 233.43 281.00 210.75 276.04 M 534.76 280.74 C 534.02 283.79 532.66 287.25 534.85 290.06 C 547.20 309.41 559.82 328.59 572.13 347.96 C 575.07 347.98 577.84 347.93 580.84 348.03 C 581.42 328.24 585.12 308.57 584.41 288.76 C 580.75 287.25 576.74 286.83 572.88 286.16 C 560.16 284.40 547.51 282.24 534.76 280.74 M 479.77 303.02 C 486.63 301.38 493.22 298.73 500.15 297.35 C 502.21 296.77 503.65 298.83 504.64 300.33 C 504.88 308.21 500.43 316.02 503.06 323.90 C 505.02 330.70 512.72 331.87 518.12 335.01 C 519.85 317.22 520.49 299.31 520.93 281.44 C 506.78 287.74 493.12 295.17 479.77 303.02 M 426.27 284.95 C 421.20 293.16 415.98 301.30 410.06 308.93 C 423.22 309.78 436.40 310.53 449.60 310.73 C 442.00 301.97 433.94 293.63 426.27 284.95 M 31.90 286.71 C 28.95 293.58 27.43 300.94 25.90 308.23 C 32.34 302.49 38.29 296.23 44.38 290.12 C 40.22 288.96 36.05 287.84 31.90 286.71 M 87.51 297.29 C 90.17 299.49 92.93 301.58 95.80 303.51 C 95.83 297.89 95.83 292.28 95.79 286.67 C 93.00 290.18 90.23 293.73 87.51 297.29 M 592.50 289.90 C 600.76 304.16 610.31 317.64 618.43 331.99 C 625.33 331.84 632.23 331.67 639.14 331.21 C 637.87 319.40 636.21 307.63 634.03 295.96 C 620.25 293.57 606.53 290.16 592.50 289.90 M 524.82 292.22 C 523.06 307.87 522.71 323.61 522.01 339.33 C 528.78 339.52 535.56 339.07 542.32 339.78 C 550.11 341.18 557.56 343.96 565.14 346.19 C 554.23 327.40 541.91 309.45 530.08 291.23 C 528.33 291.56 526.57 291.89 524.82 292.22 M 50.19 291.59 C 48.16 301.73 46.10 311.93 45.92 322.30 C 52.33 313.93 58.11 305.09 63.51 296.04 C 59.20 294.21 54.75 292.71 50.19 291.59 M 589.29 293.67 C 587.88 304.10 587.09 314.60 586.79 325.12 C 595.02 329.44 604.14 331.48 613.37 332.11 C 605.73 319.06 597.55 306.33 589.29 293.67 M 742.87 294.04 C 746.37 303.55 751.20 312.48 756.18 321.29 C 762.03 320.34 767.78 318.88 773.46 317.17 C 772.33 313.95 771.11 310.77 769.88 307.59 C 764.64 306.63 758.71 307.13 754.19 303.84 C 750.15 300.89 746.61 297.32 742.87 294.04 M 69.41 296.82 C 67.29 306.57 66.58 316.53 66.32 326.48 C 71.98 318.21 76.61 309.24 80.54 300.03 C 76.86 298.87 73.12 297.87 69.41 296.82 M 638.94 297.75 C 640.55 308.83 642.13 319.91 643.97 330.96 C 651.86 328.47 660.66 326.97 666.60 320.68 C 668.72 317.98 670.72 315.16 672.63 312.30 C 661.52 307.18 650.24 302.43 638.94 297.75 M 799.57 297.24 C 798.29 299.76 797.04 302.30 795.82 304.84 C 800.52 312.95 804.85 321.28 809.82 329.24 C 807.54 318.28 806.84 306.30 799.57 297.24 M 24.64 317.09 C 27.20 322.29 29.80 327.48 32.56 332.59 C 37.03 321.56 39.42 309.83 42.63 298.40 C 36.22 304.22 30.68 310.91 24.64 317.09 M 297.48 303.15 C 301.17 313.90 306.38 324.05 311.14 334.35 C 326.47 326.73 341.50 318.53 356.51 310.29 C 337.02 306.66 317.14 305.56 297.48 303.15 M 87.04 303.64 C 87.32 309.85 87.93 316.04 88.29 322.24 C 90.47 318.17 92.64 314.09 94.89 310.06 C 92.29 307.89 89.68 305.74 87.04 303.64 M 774.08 304.60 C 774.92 306.48 775.77 308.37 776.63 310.26 C 777.14 308.13 777.66 306.01 778.18 303.89 C 776.80 304.12 775.44 304.35 774.08 304.60 M 46.31 332.52 C 50.92 334.23 55.51 335.99 60.21 337.45 C 61.93 326.77 63.35 316.01 63.73 305.20 C 56.84 313.49 50.08 322.32 46.31 332.52 M 67.51 335.89 C 72.38 334.21 77.32 332.53 81.68 329.70 C 83.11 329.03 82.94 327.37 83.04 326.06 C 83.15 319.26 83.07 312.46 82.80 305.67 C 77.72 315.75 72.22 325.63 67.51 335.89 M 781.35 308.03 C 782.45 313.19 783.82 318.55 787.31 322.67 C 793.83 328.09 801.12 332.48 808.29 336.99 C 803.61 327.48 798.16 318.38 792.97 309.16 C 791.31 310.13 789.64 311.07 787.98 312.04 C 785.77 310.70 783.57 309.34 781.35 308.03 M 367.21 310.83 C 368.76 316.94 370.12 323.08 371.45 329.24 C 374.49 325.69 377.38 322.01 380.20 318.28 C 385.51 320.87 390.86 324.17 397.04 323.87 C 411.66 324.41 425.60 319.19 439.13 314.30 C 415.15 313.22 391.16 312.50 367.21 310.83 M 343.97 321.95 C 334.57 327.02 324.75 331.51 316.14 337.90 C 326.20 343.86 337.25 347.90 347.69 353.14 C 349.49 349.66 350.71 345.46 354.31 343.37 C 358.99 340.35 363.82 337.57 368.22 334.14 C 366.57 326.91 364.99 319.66 363.58 312.38 C 356.70 314.82 350.46 318.68 343.97 321.95 M 131.74 314.69 C 129.61 321.90 127.19 329.04 125.56 336.39 C 124.69 339.89 125.91 343.28 127.90 346.06 C 135.09 356.24 142.31 366.43 150.12 376.16 C 144.32 355.58 138.52 334.97 131.74 314.69 M 136.92 314.44 C 138.79 323.34 141.88 331.93 144.40 340.66 C 148.66 354.24 152.01 368.14 157.38 381.35 C 160.97 367.70 166.32 354.42 168.33 340.40 C 157.79 331.83 148.18 322.09 136.92 314.44 M 90.40 332.82 C 91.63 338.50 94.51 343.71 97.45 348.69 C 97.63 337.67 97.05 326.66 96.61 315.67 C 94.39 321.24 90.41 326.60 90.40 332.82 M 101.06 316.77 C 101.13 329.31 101.80 341.84 102.82 354.35 C 108.08 350.30 112.83 345.67 117.54 341.01 C 113.07 332.29 107.55 324.12 101.06 316.77 M 758.51 325.30 C 762.08 330.63 766.28 335.49 770.47 340.36 C 771.73 334.35 773.09 328.37 774.19 322.33 C 768.91 323.01 763.71 324.26 758.51 325.30 M 22.54 323.62 C 20.81 332.09 19.14 340.58 17.88 349.14 C 21.99 346.02 26.09 342.87 30.20 339.76 C 28.03 334.21 25.46 328.82 22.54 323.62 M 791.11 330.85 C 798.15 344.79 803.08 359.80 804.29 375.44 C 807.76 365.76 810.33 355.79 813.16 345.91 C 806.17 340.38 798.47 335.85 791.11 330.85 M 250.77 335.41 C 253.19 357.51 255.04 379.69 258.45 401.67 C 266.10 394.43 271.49 385.21 278.00 377.00 C 286.74 364.35 297.13 352.81 304.63 339.33 C 292.05 337.89 279.45 336.56 266.86 335.20 C 261.51 334.90 256.06 334.14 250.77 335.41 M 221.85 336.74 C 207.28 338.58 192.62 339.65 178.07 341.67 C 180.49 344.66 183.34 347.24 186.33 349.66 C 208.62 368.10 231.51 385.81 253.99 404.01 C 251.34 384.34 249.45 364.57 247.32 344.83 C 246.75 341.54 246.84 337.94 244.87 335.12 C 237.17 334.66 229.48 335.93 221.85 336.74 M 65.78 341.31 C 67.51 347.47 69.72 353.50 72.43 359.30 C 75.69 351.46 78.78 343.56 81.90 335.67 C 76.46 337.36 71.15 339.43 65.78 341.31 M 44.84 336.74 C 46.33 345.97 47.94 355.19 49.57 364.40 C 53.08 356.97 56.23 349.38 59.32 341.77 C 54.65 339.66 49.72 338.23 44.84 336.74 M 75.79 362.08 C 82.88 361.25 89.92 360.10 96.96 358.92 C 93.55 352.04 90.11 345.17 86.48 338.40 C 81.70 345.67 78.89 354.00 75.79 362.08 M 36.14 351.48 C 37.17 347.49 38.10 343.49 38.68 339.41 C 35.69 342.75 34.82 347.21 36.14 351.48 M 673.00 341.24 C 676.39 346.48 679.71 351.78 683.03 357.07 C 686.73 354.21 690.48 351.44 694.25 348.68 C 691.95 346.51 689.60 344.39 687.27 342.27 C 682.48 343.47 677.45 343.51 673.00 341.24 M 313.06 341.66 C 312.69 359.53 313.76 377.39 314.27 395.26 C 324.32 382.01 334.71 369.02 345.12 356.05 C 334.47 351.16 323.91 346.09 313.06 341.66 M 18.21 354.49 C 21.21 360.70 26.65 365.19 31.79 369.60 C 32.06 361.24 31.92 352.88 31.83 344.53 C 27.23 347.77 22.74 351.15 18.21 354.49 M 159.67 387.87 C 189.10 393.89 218.53 400.05 248.15 405.04 C 223.00 384.72 197.59 364.72 172.49 344.34 C 167.54 358.64 163.71 373.31 159.67 387.87 M 259.79 408.90 C 269.78 418.26 279.30 428.10 289.41 437.34 C 294.65 424.34 302.70 412.79 309.54 400.65 C 310.43 382.27 308.39 363.88 306.66 345.59 C 291.12 366.76 275.70 388.01 259.79 408.90 M 52.86 368.98 C 58.07 367.39 63.24 365.65 68.40 363.91 C 67.25 358.22 65.71 352.47 62.54 347.53 C 57.73 353.81 55.98 361.82 52.86 368.98 M 103.08 362.01 C 107.89 377.80 112.63 393.61 117.80 409.29 C 119.81 388.69 119.05 367.95 118.68 347.30 C 112.54 351.09 107.85 356.69 103.08 362.01 M 41.78 348.55 C 40.22 356.83 36.67 365.37 38.53 373.89 C 41.15 372.78 43.72 371.55 46.21 370.19 C 44.79 362.96 43.53 355.70 41.78 348.55 M 123.31 348.42 C 122.50 372.05 123.69 395.72 122.27 419.34 C 132.25 410.68 141.69 401.34 150.60 391.59 C 154.46 388.35 149.20 384.19 147.86 381.17 C 139.85 370.12 132.06 358.89 123.31 348.42 M 685.44 360.43 C 693.42 375.13 702.84 389.02 711.54 403.30 C 712.39 392.97 714.17 382.66 714.21 372.29 C 709.88 364.49 703.24 358.24 697.21 351.74 C 693.37 354.75 689.37 357.56 685.44 360.43 M 808.80 382.51 C 812.96 383.55 817.05 384.82 821.15 386.09 C 819.62 376.25 817.66 366.50 815.63 356.76 C 812.91 365.21 810.31 373.74 808.80 382.51 M 17.02 361.74 C 18.05 375.28 18.96 388.82 20.32 402.33 C 23.57 395.52 27.25 388.82 29.46 381.58 C 31.64 372.46 22.03 367.53 17.02 361.74 M 75.15 367.35 C 78.97 380.13 81.49 393.50 87.25 405.60 C 90.92 391.75 94.64 377.88 97.25 363.78 C 89.83 364.59 82.45 365.79 75.15 367.35 M 100.43 369.00 C 96.82 383.99 92.68 398.87 89.69 414.01 C 98.41 417.09 107.36 419.43 116.27 421.86 C 111.77 404.02 106.03 386.52 100.43 369.00 M 51.83 374.08 C 52.85 382.23 54.30 390.33 56.21 398.33 C 60.43 388.90 64.25 379.30 68.04 369.69 C 62.61 371.04 57.19 372.45 51.83 374.08 M 71.47 372.80 C 67.29 383.28 63.07 393.75 58.91 404.24 C 66.44 408.42 74.95 410.32 83.29 412.20 C 80.27 398.81 76.10 385.71 71.47 372.80 M 36.75 378.54 C 37.79 383.95 38.81 389.36 39.97 394.76 C 42.18 389.08 43.68 383.14 44.99 377.20 C 42.25 377.66 39.52 378.27 36.75 378.54 M 718.22 378.84 C 717.09 386.99 715.93 395.15 715.29 403.36 C 715.08 405.25 715.69 407.54 717.68 408.22 C 724.25 411.02 731.33 412.31 738.22 414.13 C 732.39 401.90 724.85 390.62 718.22 378.84 M 10.12 408.61 C 11.76 409.53 13.52 410.20 15.25 410.92 C 15.85 400.77 14.99 390.61 13.59 380.56 C 11.28 389.72 9.97 399.15 10.12 408.61 M 42.66 404.98 C 45.37 404.94 48.07 404.89 50.78 404.85 C 51.41 404.17 52.05 403.50 52.69 402.84 C 51.25 396.50 49.91 390.13 48.56 383.77 C 46.37 390.78 44.40 397.85 42.66 404.98 M 22.97 409.01 C 27.47 407.95 31.99 406.92 36.49 405.88 C 35.95 398.70 34.69 391.60 32.94 384.62 C 29.54 392.72 25.97 400.75 22.97 409.01 M 809.26 386.59 C 809.30 395.32 812.45 403.62 815.11 411.83 C 817.67 404.95 820.02 397.98 821.43 390.76 C 817.41 389.28 813.29 387.94 809.26 386.59 M 160.81 392.95 C 168.68 410.73 176.21 428.70 184.87 446.12 C 206.66 434.23 228.42 422.28 250.14 410.26 C 220.39 404.38 190.86 397.21 160.81 392.95 M 124.89 424.64 C 142.97 431.56 160.84 439.08 179.19 445.26 C 171.74 427.95 164.15 410.69 155.88 393.77 C 145.66 404.18 134.07 413.23 124.89 424.64 M 796.68 424.19 C 801.71 423.04 806.68 421.75 811.69 420.51 C 809.85 411.76 808.06 402.98 805.44 394.43 C 801.28 403.92 799.70 414.31 796.68 424.19 M 817.71 419.91 C 819.32 419.93 822.54 419.98 824.15 420.00 C 823.88 414.40 823.57 408.82 823.22 403.24 C 821.34 408.78 819.22 414.25 817.71 419.91 M 43.01 409.34 C 41.74 413.26 43.15 417.41 43.57 421.34 C 47.36 441.58 49.75 462.07 53.71 482.28 C 54.04 457.73 54.64 433.14 53.23 408.62 C 50.67 408.80 45.56 409.16 43.01 409.34 M 21.84 414.10 C 23.18 422.99 25.39 431.70 27.63 440.40 C 31.15 430.90 33.39 420.98 35.73 411.15 C 31.08 412.02 26.47 413.10 21.84 414.10 M 59.66 411.06 C 63.05 420.86 66.87 430.51 70.44 440.25 C 75.37 433.06 79.70 425.45 83.41 417.56 C 75.49 415.40 67.67 412.88 59.66 411.06 M 717.67 413.11 C 724.09 424.26 731.03 435.10 737.69 446.11 C 739.63 437.66 741.99 429.31 743.54 420.77 C 735.11 417.59 726.47 415.02 717.67 413.11 M 9.12 414.02 C 9.64 419.44 10.04 424.86 10.48 430.31 C 12.06 424.89 13.56 419.48 15.09 414.06 C 13.60 414.05 10.61 414.03 9.12 414.02 M 254.08 414.97 C 232.63 426.28 210.99 437.18 189.55 448.49 C 209.16 455.11 229.42 459.71 249.35 465.30 C 252.40 448.72 253.63 431.81 254.08 414.97 M 258.43 414.56 C 256.51 431.69 255.74 448.92 254.05 466.07 C 263.60 465.75 273.16 465.13 282.72 464.85 C 283.08 456.96 283.51 448.95 286.98 441.70 C 277.56 432.55 268.09 423.46 258.43 414.56 M 31.57 452.69 C 36.74 467.72 43.87 482.03 50.79 496.33 C 47.36 470.36 43.12 444.49 38.63 418.70 C 36.20 429.93 30.98 440.99 31.57 452.69 M 90.80 419.70 C 97.31 443.34 104.33 466.87 111.66 490.27 C 114.00 472.04 115.51 453.71 117.65 435.45 C 117.64 432.33 119.39 427.82 115.52 426.68 C 107.54 423.57 99.09 421.80 90.80 419.70 M 58.14 420.74 C 57.97 443.97 57.59 467.22 58.52 490.45 C 61.61 480.64 63.40 470.48 65.56 460.44 C 67.36 452.30 67.57 443.46 64.43 435.63 C 62.49 430.59 60.33 425.66 58.14 420.74 M 73.05 445.86 C 83.82 461.03 94.87 476.04 106.63 490.47 C 100.38 467.43 93.21 444.65 86.52 421.74 C 81.67 429.57 77.45 437.77 73.05 445.86 M 17.51 423.65 C 15.08 430.14 13.71 436.99 12.61 443.82 C 16.47 444.91 20.31 446.04 24.16 447.18 C 23.11 440.07 21.87 432.98 19.83 426.09 C 19.52 424.93 18.35 424.35 17.51 423.65 M 816.99 424.69 C 817.93 434.90 818.50 445.14 819.52 455.35 C 821.23 445.19 822.84 435.02 824.16 424.81 C 821.76 424.73 819.38 424.67 816.99 424.69 M 796.64 428.79 C 797.37 435.70 798.34 442.61 800.29 449.30 C 804.13 441.67 807.28 433.71 810.24 425.71 C 805.67 426.57 801.14 427.64 796.64 428.79 M 746.27 427.78 C 744.54 435.89 740.59 443.93 741.82 452.43 C 744.09 458.44 748.04 463.68 751.17 469.27 C 753.51 468.55 755.85 467.81 758.20 467.06 C 754.73 453.82 750.92 440.65 746.27 427.78 M 122.17 428.68 C 119.56 451.49 116.93 474.34 115.95 497.29 C 136.68 481.96 157.74 466.99 177.50 450.42 C 172.93 447.86 168.32 445.34 163.38 443.57 C 149.61 438.68 136.21 432.79 122.17 428.68 M 784.56 450.99 C 787.19 444.04 789.26 436.89 790.77 429.61 C 787.17 436.17 783.07 443.14 784.56 450.99 M 812.78 432.57 C 809.11 440.59 804.64 448.43 802.26 456.94 C 804.80 463.38 811.15 467.53 815.74 472.55 C 815.40 459.19 814.64 445.82 812.78 432.57 M 788.65 458.15 C 790.89 457.70 793.14 457.25 795.40 456.85 C 795.23 450.99 794.52 445.16 793.53 439.39 C 790.93 445.35 789.36 451.70 788.65 458.15 M 756.11 443.72 C 757.70 450.08 759.58 456.37 761.89 462.51 C 762.38 459.74 764.20 456.57 762.05 454.01 C 760.24 450.47 758.27 447.04 756.11 443.72 M 11.90 448.57 C 13.57 458.25 15.32 467.96 18.40 477.32 C 20.99 469.26 23.03 461.04 25.09 452.84 C 20.81 451.08 16.41 449.60 11.90 448.57 M 773.13 463.18 C 776.05 462.16 778.97 461.12 781.88 460.06 C 781.59 457.40 780.98 454.53 780.87 451.93 C 778.55 455.85 775.84 459.52 773.13 463.18 M 70.48 453.47 C 68.02 473.20 62.82 492.43 59.27 511.96 C 75.81 509.37 92.07 505.24 108.41 501.63 C 97.22 484.96 84.51 469.35 72.72 453.10 C 72.16 453.19 71.04 453.38 70.48 453.47 M 117.63 502.81 C 143.23 513.67 168.33 525.68 193.95 536.46 C 189.91 508.92 186.55 481.27 181.85 453.83 C 160.19 469.81 138.58 485.90 117.63 502.81 M 189.06 453.64 C 207.14 482.61 225.28 511.57 243.71 540.33 C 245.26 528.27 245.92 516.13 247.14 504.04 C 248.15 492.42 249.84 480.79 249.29 469.09 C 229.15 464.17 209.33 458.01 189.06 453.64 M 20.83 489.56 C 30.74 495.68 40.20 502.54 50.31 508.36 C 43.89 491.38 36.01 474.97 28.46 458.47 C 24.63 468.44 22.43 479.01 20.83 489.56 M 188.06 460.80 C 190.70 484.05 194.60 507.14 197.60 530.35 C 198.18 533.52 198.11 538.79 202.34 539.50 C 214.98 541.78 227.74 543.62 240.54 544.83 C 237.84 539.27 234.43 534.11 231.15 528.89 C 216.73 506.23 202.51 483.45 188.06 460.80 M 795.80 460.46 C 793.94 461.22 790.23 462.74 788.37 463.49 C 788.02 466.20 787.90 468.92 788.04 471.68 C 790.05 469.48 791.94 467.17 793.82 464.86 C 794.03 466.74 794.46 470.48 794.67 472.36 C 795.07 468.39 795.48 464.42 795.80 460.46 M 766.19 462.39 C 764.49 462.89 765.20 465.75 766.98 465.10 C 768.73 464.67 767.90 461.74 766.19 462.39 M 801.17 464.46 C 801.35 472.76 801.82 481.05 802.31 489.34 C 806.71 485.98 811.09 482.57 815.44 479.13 C 810.94 473.99 806.48 468.78 801.17 464.46 M 765.23 470.48 C 765.16 476.45 768.47 481.78 771.36 486.79 C 774.83 479.96 778.02 472.97 780.33 465.66 C 775.26 467.14 770.10 468.43 765.23 470.48 M 256.95 470.13 C 263.16 481.58 269.92 492.74 277.60 503.27 C 279.01 491.82 281.01 480.46 282.23 468.99 C 273.81 469.40 265.38 469.82 256.95 470.13 M 777.89 483.12 C 780.31 481.03 782.69 478.90 785.12 476.81 C 784.62 474.80 784.12 472.78 783.66 470.77 C 781.72 474.88 779.75 478.97 777.89 483.12 M 752.92 472.89 C 753.87 474.65 754.81 476.41 755.74 478.20 C 756.03 476.62 756.35 475.07 756.67 473.51 C 755.41 473.30 754.16 473.09 752.92 472.89 M 253.72 475.81 C 251.36 490.94 250.90 506.30 249.42 521.53 C 249.01 529.21 247.77 536.91 248.47 544.62 C 249.25 547.57 253.74 546.33 255.51 547.60 C 265.92 549.32 276.40 550.67 286.85 552.16 C 284.49 548.14 281.92 544.20 280.13 539.90 C 276.66 530.81 277.44 520.80 276.24 511.31 C 269.79 498.86 261.87 487.20 253.72 475.81 M 759.97 493.19 C 762.10 492.33 764.23 491.49 766.39 490.69 C 765.18 485.30 762.98 480.21 760.55 475.27 C 757.49 480.90 758.78 487.20 759.97 493.19 M 796.70 483.51 C 796.05 487.17 795.48 490.90 795.27 494.63 C 797.52 491.30 798.19 487.29 796.70 483.51 M 815.93 484.79 C 811.25 488.14 806.90 491.90 802.86 495.98 C 805.45 500.73 808.05 505.47 810.71 510.18 C 812.57 501.74 814.31 493.28 815.93 484.79 M 24.99 497.70 C 31.93 511.27 39.49 524.55 47.67 537.41 C 49.90 530.48 52.13 523.52 53.24 516.31 C 43.76 510.19 34.45 503.83 24.99 497.70 M 792.03 511.40 C 793.48 508.65 794.53 505.70 795.14 502.64 C 793.80 505.45 792.73 508.37 792.03 511.40 M 800.16 502.37 C 795.95 513.11 792.72 524.30 791.10 535.74 C 797.13 530.13 802.52 523.87 808.55 518.26 C 807.08 512.34 803.59 507.29 800.16 502.37 M 59.78 517.11 C 65.10 531.51 71.53 545.47 77.29 559.70 C 81.97 570.33 85.69 581.41 91.26 591.63 C 97.85 563.29 103.85 534.80 110.19 506.40 C 93.09 508.25 76.50 513.27 59.78 517.11 M 24.02 506.64 C 28.77 521.22 35.74 535.27 45.07 547.48 C 41.06 532.61 32.29 519.47 24.02 506.64 M 116.84 507.81 C 127.65 539.44 138.81 570.95 149.72 602.55 C 155.37 597.11 159.41 590.29 164.03 584.02 C 173.65 569.61 184.43 555.99 193.68 541.33 C 179.47 534.84 165.15 528.59 150.93 522.13 C 139.62 517.24 128.60 511.59 116.84 507.81 M 775.91 540.65 C 778.31 541.36 780.70 542.10 783.10 542.87 C 785.07 532.88 787.01 522.79 786.81 512.56 C 782.84 521.79 779.53 531.28 775.91 540.65 M 112.65 513.61 C 108.48 533.08 104.29 552.55 100.00 572.00 C 98.12 580.78 95.49 589.48 95.09 598.51 C 111.96 601.29 128.90 603.62 145.84 605.94 C 139.16 583.34 130.94 561.24 122.89 539.11 C 119.68 530.53 116.75 521.82 112.65 513.61 M 56.61 525.61 C 54.00 532.53 48.14 541.33 54.02 547.92 C 63.19 559.81 72.37 571.71 82.01 583.23 C 78.34 572.26 73.27 561.82 68.86 551.14 C 65.00 542.54 61.93 533.45 56.61 525.61 M 789.69 544.32 C 793.95 545.52 798.18 546.85 802.28 548.55 C 804.32 541.38 806.14 534.12 807.03 526.70 C 800.97 532.29 795.21 538.20 789.69 544.32 M 200.38 544.88 C 203.79 564.67 207.32 584.45 211.27 604.15 C 222.20 586.52 232.70 568.56 241.65 549.85 C 229.41 546.84 216.78 545.81 204.41 543.47 C 203.07 543.28 200.16 542.78 200.38 544.88 M 774.12 544.71 C 768.60 554.32 764.41 565.05 766.03 576.39 C 771.84 566.98 776.63 557.00 781.32 547.00 C 778.92 546.20 776.52 545.44 774.12 544.71 M 194.21 548.01 C 181.56 567.78 166.70 586.09 154.68 606.27 C 172.32 608.75 190.23 609.34 208.02 609.38 C 203.93 589.13 200.13 568.82 196.38 548.51 C 195.84 548.38 194.75 548.13 194.21 548.01 M 786.87 548.75 C 784.03 558.14 781.15 567.61 779.91 577.38 C 787.30 569.31 793.39 560.15 800.72 552.03 C 796.10 550.92 791.47 549.81 786.87 548.75 M 250.56 551.10 C 271.52 581.74 291.40 613.11 312.90 643.39 C 311.94 621.75 310.35 600.12 308.17 578.58 C 304.93 573.12 300.25 568.63 296.38 563.63 C 293.74 561.05 291.81 557.09 287.89 556.30 C 275.53 554.02 263.10 551.98 250.56 551.10 M 51.78 553.88 C 61.20 571.38 74.88 588.27 73.62 609.39 C 78.58 606.24 83.39 602.86 88.28 599.60 C 76.51 584.07 65.26 567.98 51.78 553.88 M 213.90 611.11 C 231.40 619.49 248.92 627.95 267.02 634.96 C 259.32 608.59 253.24 581.76 244.65 555.65 C 233.27 573.46 223.86 592.47 213.90 611.11 M 251.95 561.83 C 257.93 585.68 264.13 609.50 270.77 633.17 C 271.54 636.59 274.51 638.66 277.78 639.36 C 288.40 642.17 298.88 645.56 309.60 647.99 C 307.02 642.63 303.37 637.86 300.09 632.93 C 283.90 609.33 268.62 585.11 251.95 561.83 M 783.96 580.42 C 786.97 578.80 790.25 577.26 792.36 574.46 C 794.08 571.71 794.89 568.53 795.81 565.46 C 791.63 570.26 787.71 575.28 783.96 580.42 M 756.27 578.95 C 757.35 581.07 758.99 582.82 760.51 584.63 C 760.92 579.23 761.56 573.88 761.75 568.48 C 759.73 571.85 757.51 575.20 756.27 578.95 M 766.64 588.62 C 775.39 586.01 775.28 575.95 776.77 568.50 C 772.24 574.53 768.84 581.41 766.64 588.62 M 313.22 583.90 C 314.97 605.01 315.95 626.18 317.71 647.30 C 331.75 639.11 343.70 627.86 356.96 618.54 C 339.48 611.31 326.54 596.77 313.22 583.90 M 729.87 627.20 C 740.04 615.32 749.88 603.12 758.95 590.38 C 757.59 588.70 754.86 585.33 753.50 583.65 C 745.14 597.88 736.67 612.15 729.87 627.20 M 773.82 599.41 C 777.11 595.33 780.26 591.11 783.03 586.66 C 777.76 589.15 774.24 593.63 773.82 599.41 M 758.95 611.22 C 763.11 604.98 766.67 598.34 769.25 591.29 C 760.56 593.59 761.12 604.18 758.95 611.22 M 442.98 602.83 C 429.28 604.71 416.02 608.86 402.65 612.29 C 416.16 618.75 429.82 624.92 443.05 631.95 C 445.10 632.80 447.60 634.25 449.71 632.72 C 460.41 625.45 470.15 616.88 480.40 609.00 C 468.34 605.27 455.75 600.97 442.98 602.83 M 728.91 636.08 C 735.78 633.40 748.12 634.47 750.40 625.39 C 752.78 617.54 755.08 609.66 756.92 601.67 C 746.91 612.56 738.47 624.79 728.91 636.08 M 96.62 603.07 C 104.26 615.81 112.26 628.33 120.05 640.98 C 123.45 647.25 131.00 649.06 136.79 652.37 C 140.14 638.54 144.06 624.82 146.47 610.78 C 130.11 606.85 113.35 604.65 96.62 603.07 M 80.18 610.19 C 84.24 612.84 87.73 616.24 91.88 618.74 C 91.38 613.94 90.66 609.17 89.88 604.42 C 86.60 606.26 83.41 608.24 80.18 610.19 M 771.42 613.47 C 773.50 610.83 775.18 607.89 776.33 604.73 C 774.00 607.19 771.96 610.04 771.42 613.47 M 156.62 611.18 C 172.07 624.19 187.63 637.13 203.67 649.43 C 205.76 637.83 207.63 626.14 207.85 614.35 C 190.86 612.24 173.70 611.96 156.62 611.18 M 481.65 613.59 C 472.17 621.09 462.55 628.43 453.45 636.40 C 461.51 640.06 469.88 642.96 478.18 646.02 C 483.83 635.12 488.89 623.91 493.60 612.57 C 489.64 612.20 484.88 610.43 481.65 613.59 M 499.44 610.91 C 494.65 622.39 488.25 633.21 484.46 645.10 C 493.39 643.40 502.23 641.32 511.07 639.16 C 513.66 638.34 516.98 638.08 518.86 635.77 C 519.50 629.31 517.41 622.53 513.71 617.27 C 509.57 614.05 504.30 612.69 499.44 610.91 M 95.73 612.76 C 97.79 623.18 102.43 635.57 113.26 639.62 C 108.66 629.93 102.29 621.19 95.73 612.76 M 385.16 615.70 C 388.41 631.45 391.17 647.30 395.05 662.91 C 410.77 654.51 426.55 646.21 442.22 637.70 C 428.96 629.63 415.32 622.03 400.99 616.02 C 396.02 613.38 390.40 615.19 385.16 615.70 M 150.06 615.58 C 146.43 628.43 143.71 641.52 140.98 654.59 C 151.81 659.55 162.63 665.29 170.51 674.48 C 173.02 677.84 177.04 679.39 181.16 679.75 C 171.98 657.83 160.92 636.71 150.06 615.58 M 365.51 618.80 C 361.79 619.83 359.01 622.77 355.93 624.91 C 344.86 633.64 333.17 641.58 322.47 650.77 C 344.67 655.48 366.89 660.44 389.41 663.41 C 388.23 647.64 384.11 632.34 380.91 616.92 C 375.77 617.46 370.60 617.95 365.51 618.80 M 216.68 617.78 C 219.42 623.66 222.38 629.51 226.36 634.67 C 227.92 636.64 230.60 637.04 232.95 637.10 C 241.47 637.30 249.98 636.95 258.49 636.57 C 244.77 629.86 230.85 623.48 216.68 617.78 M 157.11 618.51 C 166.27 638.05 175.74 657.45 185.25 676.83 C 185.93 676.89 187.29 677.01 187.97 677.08 C 193.03 669.59 198.53 662.24 201.59 653.65 C 186.56 642.20 172.66 629.27 157.11 618.51 M 212.09 619.66 C 210.24 629.14 209.03 638.78 209.03 648.46 C 213.63 645.12 218.06 641.56 222.47 637.98 C 219.25 631.74 215.81 625.61 212.09 619.66 M 753.28 633.48 C 754.84 634.36 756.43 635.24 758.01 636.13 C 759.01 631.98 760.14 627.89 761.01 623.73 C 758.36 626.92 755.65 630.07 753.28 633.48 M 724.33 643.30 C 721.92 650.79 720.09 658.51 718.91 666.31 C 727.41 657.16 735.10 647.30 743.05 637.67 C 736.82 639.22 729.78 639.80 724.33 643.30 M 750.72 638.66 C 749.49 642.77 748.64 647.00 747.95 651.24 C 750.96 647.64 753.81 643.89 756.14 639.81 C 754.32 639.40 752.56 638.88 750.72 638.66 M 229.72 641.12 C 237.76 655.47 245.77 669.84 253.71 684.25 C 258.56 670.06 262.43 655.54 266.34 641.07 C 254.13 640.95 241.92 640.95 229.72 641.12 M 450.20 640.63 C 445.98 654.61 441.96 668.73 439.93 683.21 C 451.75 672.02 463.92 661.17 475.07 649.29 C 466.88 646.13 458.80 642.56 450.20 640.63 M 485.69 649.98 C 498.90 658.37 510.85 668.79 524.60 676.30 C 521.29 669.69 515.67 664.48 512.47 657.88 C 512.82 652.37 515.34 647.26 516.80 642.00 C 506.43 644.69 496.00 647.10 485.69 649.98 M 209.60 654.32 C 221.72 664.11 234.17 673.53 247.13 682.17 C 240.52 668.58 232.75 655.58 225.56 642.30 C 219.89 645.82 214.81 650.17 209.60 654.32 M 398.31 666.48 C 409.38 674.29 421.35 680.91 433.71 686.45 C 437.53 671.77 442.02 657.24 445.14 642.39 C 428.67 648.54 413.86 658.39 398.31 666.48 M 723.67 668.92 C 729.34 666.39 735.14 663.97 740.24 660.39 C 743.05 654.74 743.95 648.38 745.61 642.36 C 737.60 650.60 730.78 659.91 723.67 668.92 M 270.96 643.74 C 266.87 658.23 261.75 672.47 258.72 687.24 C 272.72 683.44 286.51 678.90 300.11 673.88 C 290.68 663.57 281.28 653.20 270.96 643.74 M 277.81 644.03 C 286.04 652.56 294.46 660.91 302.18 669.92 C 302.81 669.90 304.07 669.85 304.70 669.82 C 307.40 664.33 310.51 659.04 312.69 653.31 C 301.12 649.99 289.56 646.64 277.81 644.03 M 696.04 687.39 C 702.94 682.91 710.92 677.76 713.35 669.38 C 714.94 662.85 716.32 656.27 717.75 649.71 C 709.49 661.65 702.75 674.54 696.04 687.39 M 439.58 690.47 C 456.32 695.72 473.24 700.39 490.15 705.08 C 486.77 687.60 482.10 670.41 478.67 652.94 C 465.84 665.66 451.62 676.96 439.58 690.47 M 317.97 654.86 C 314.29 660.14 310.84 665.72 309.45 672.09 C 332.14 670.61 354.72 667.84 377.33 665.48 C 357.49 662.27 337.81 658.10 317.97 654.86 M 483.74 654.81 C 486.98 671.55 489.97 688.50 495.42 704.69 C 504.37 697.28 513.73 690.22 521.62 681.65 C 521.98 679.63 519.50 678.83 518.31 677.67 C 506.71 670.16 495.39 662.22 483.74 654.81 M 189.88 683.03 C 203.69 690.83 217.75 698.20 231.96 705.26 C 223.44 689.63 214.60 674.16 205.46 658.88 C 200.09 666.81 194.92 674.88 189.88 683.03 M 212.92 662.84 C 221.73 677.54 230.15 692.48 238.79 707.28 C 243.20 702.52 248.15 697.92 251.16 692.11 C 248.35 688.15 243.91 685.77 240.20 682.80 C 231.07 676.19 222.28 669.13 212.92 662.84 M 314.51 676.44 C 332.14 684.87 349.91 693.08 367.98 700.50 C 375.01 690.18 382.03 679.84 388.40 669.10 C 363.75 671.30 339.08 673.43 314.51 676.44 M 393.51 669.52 C 387.35 679.81 380.13 689.47 374.55 700.12 C 392.53 697.06 410.45 693.58 428.26 689.65 C 416.81 682.73 405.51 675.47 393.51 669.52 M 717.84 677.88 C 715.08 680.31 717.39 684.01 717.98 686.88 C 723.84 681.99 728.17 675.62 732.99 669.78 C 727.86 672.28 722.28 674.22 717.84 677.88 M 262.62 691.73 C 277.48 697.80 292.68 702.99 307.88 708.16 C 306.05 698.10 304.37 688.01 302.76 677.92 C 289.34 682.41 275.80 686.57 262.62 691.73 M 312.03 680.81 C 323.47 697.00 334.12 713.81 346.55 729.28 C 352.60 720.98 359.44 713.19 364.67 704.32 C 347.28 696.14 329.78 688.16 312.03 680.81 M 177.10 682.70 C 177.67 689.93 177.84 697.16 178.66 704.38 C 179.12 708.83 183.86 710.72 186.71 713.54 C 186.22 705.14 185.51 696.74 184.36 688.42 C 183.86 684.90 179.65 684.28 177.10 682.70 M 711.82 682.53 C 702.80 692.71 693.66 702.79 684.62 712.95 C 692.45 708.18 699.78 702.63 707.06 697.07 C 709.53 694.99 712.71 693.10 713.85 689.88 C 713.85 687.29 712.63 684.92 711.82 682.53 M 308.21 684.76 C 309.55 691.81 310.15 699.04 312.13 705.97 C 316.46 716.41 328.46 719.36 337.13 725.20 C 328.37 711.13 318.45 697.77 308.21 684.76 M 530.01 686.19 C 530.51 693.63 531.67 701.01 533.08 708.33 C 536.41 706.52 539.70 704.61 543.04 702.79 C 539.71 696.59 537.24 688.82 530.01 686.19 M 192.09 689.73 C 196.90 700.11 202.15 710.28 207.25 720.53 C 215.99 718.42 224.31 714.91 232.54 711.35 C 219.55 703.28 205.74 696.60 192.09 689.73 M 524.63 689.41 C 516.86 703.42 509.98 717.93 503.09 732.40 C 509.85 727.84 516.06 722.53 522.31 717.31 C 524.41 714.75 528.85 713.04 528.64 709.16 C 528.11 702.46 526.81 695.77 524.63 689.41 M 497.02 710.01 C 494.15 717.05 497.22 725.09 497.40 732.44 C 505.08 719.28 511.87 705.60 518.20 691.75 C 510.58 697.11 503.18 703.02 497.02 710.01 M 438.01 693.94 C 439.77 704.80 441.22 715.73 443.82 726.44 C 451.42 724.13 458.65 720.82 466.10 718.08 C 472.43 715.69 478.99 713.53 484.52 709.51 C 469.50 703.06 453.54 698.97 438.01 693.94 M 374.53 704.93 C 379.85 710.14 385.23 715.38 391.42 719.59 C 393.95 721.06 396.33 718.61 398.31 717.34 C 407.84 710.18 417.00 702.53 426.16 694.90 C 408.89 697.86 391.57 700.79 374.53 704.93 M 686.96 703.48 C 689.82 700.92 692.15 697.82 693.95 694.44 C 690.99 696.91 688.66 700.03 686.96 703.48 M 243.24 710.77 C 251.00 714.17 259.14 716.52 267.20 719.09 C 263.52 711.08 259.23 703.40 255.29 695.53 C 250.73 700.14 246.33 705.03 243.24 710.77 M 260.83 695.86 C 264.77 704.33 269.91 712.15 274.34 720.36 C 284.25 718.28 293.91 715.21 303.27 711.36 C 289.26 705.83 275.09 700.71 260.83 695.86 M 399.43 722.57 C 412.48 724.69 425.64 726.78 438.89 726.79 C 437.51 716.32 435.84 705.87 433.16 695.65 C 421.62 704.24 410.39 713.25 399.43 722.57 M 190.09 696.72 C 190.88 703.81 190.15 711.43 192.82 718.17 C 195.80 719.75 199.21 720.13 202.44 721.03 C 198.69 712.75 194.38 704.73 190.09 696.72 M 661.65 728.09 C 671.50 723.23 678.00 713.78 685.10 705.71 C 676.39 712.16 669.94 721.13 661.65 728.09 M 537.73 711.66 C 539.80 712.15 541.87 712.66 543.94 713.17 C 543.91 711.54 543.84 708.28 543.81 706.64 C 541.74 708.27 539.71 709.93 537.73 711.66 M 352.51 729.88 C 364.13 727.83 375.69 725.44 387.15 722.62 C 381.45 717.38 376.13 711.30 369.13 707.81 C 362.31 714.02 357.69 722.33 352.51 729.88 M 480.09 717.08 C 470.02 721.31 459.62 724.72 449.80 729.54 C 464.20 732.95 478.61 736.36 493.12 739.30 C 492.79 730.78 492.34 722.30 491.48 713.83 C 487.57 714.47 483.74 715.54 480.09 717.08 M 213.59 724.28 C 225.31 729.16 237.04 734.08 249.01 738.32 C 245.31 730.33 241.31 722.47 236.97 714.81 C 228.96 717.40 221.15 720.57 213.59 724.28 M 529.34 717.34 C 521.42 723.10 514.02 729.56 506.86 736.23 C 516.73 733.95 526.49 731.12 536.23 728.31 C 541.07 727.34 541.61 721.61 543.69 717.98 C 539.10 717.69 533.39 713.16 529.34 717.34 M 242.94 715.86 C 246.72 723.66 250.74 731.35 255.28 738.76 C 260.41 734.42 264.97 729.45 269.46 724.47 C 260.74 721.24 251.89 718.34 242.94 715.86 M 277.62 725.20 C 280.16 731.71 283.01 738.08 286.14 744.33 C 292.39 735.03 298.68 725.76 304.40 716.13 C 295.39 718.91 286.47 721.94 277.62 725.20 M 311.33 715.59 C 303.96 725.85 295.54 735.66 290.07 747.12 C 293.38 751.35 298.75 753.16 303.35 755.65 C 310.18 759.29 319.96 758.31 324.63 751.71 C 329.81 744.94 336.61 739.70 342.31 733.41 C 331.92 727.57 322.16 720.62 311.33 715.59 M 183.54 721.89 C 186.69 728.76 192.34 733.56 199.28 736.37 C 195.58 730.04 190.83 724.22 183.54 721.89 M 196.68 723.61 C 199.67 728.55 203.05 733.26 207.10 737.40 C 206.40 734.02 206.12 730.45 204.64 727.32 C 202.82 724.82 199.39 724.56 196.68 723.61 M 399.53 727.16 C 408.25 738.52 417.73 749.30 427.73 759.56 C 431.66 750.46 435.20 741.20 438.39 731.82 C 425.58 729.22 412.51 728.44 399.53 727.16 M 352.39 735.34 C 359.88 742.20 367.96 748.37 375.72 754.93 C 380.06 745.84 384.60 736.85 389.01 727.80 C 376.68 729.47 364.18 731.17 352.39 735.34 M 260.09 741.82 C 267.11 743.66 274.26 744.89 281.43 745.98 C 279.10 739.90 276.37 733.99 273.57 728.13 C 268.23 731.77 263.74 736.50 260.09 741.82 M 379.04 756.83 C 393.45 757.99 407.76 760.22 422.20 761.12 C 413.26 749.83 403.69 739.05 393.92 728.49 C 388.93 737.92 383.86 747.30 379.04 756.83 M 210.73 730.80 C 211.18 734.44 211.00 738.25 212.30 741.74 C 216.77 747.64 224.48 748.54 231.16 750.04 C 224.37 743.59 217.65 737.09 210.73 730.80 M 219.41 732.02 C 225.64 739.54 233.51 745.48 240.52 752.25 C 243.70 749.55 246.62 746.55 249.51 743.56 C 239.56 739.51 229.78 734.90 219.41 732.02 M 446.84 733.08 C 450.90 741.23 455.62 749.02 460.03 756.98 C 463.59 763.25 466.49 770.01 471.40 775.41 C 478.74 765.10 485.52 754.37 491.54 743.24 C 476.75 739.38 461.68 736.71 446.84 733.08 M 502.38 743.32 C 507.80 747.07 513.39 750.59 518.99 754.08 C 524.21 746.63 530.25 739.82 536.13 732.88 C 524.78 735.93 512.98 738.05 502.38 743.32 M 638.96 752.51 C 646.41 746.60 653.10 739.80 659.13 732.46 C 650.07 735.77 641.13 742.72 638.96 752.51 M 431.44 762.87 C 442.60 767.59 453.70 772.55 465.25 776.27 C 457.99 762.59 450.45 749.05 442.63 735.69 C 438.42 744.53 434.28 753.47 431.44 762.87 M 658.55 741.07 C 661.02 739.61 663.29 737.82 665.26 735.73 C 662.80 737.21 660.55 739.00 658.55 741.07 M 317.01 762.46 C 327.94 768.65 338.77 775.01 349.61 781.35 C 347.73 767.07 346.30 752.74 344.54 738.45 C 335.36 746.45 327.10 755.55 317.01 762.46 M 195.70 739.65 C 197.33 742.87 199.90 745.57 203.55 746.39 C 201.30 743.74 198.61 741.52 195.70 739.65 M 349.13 739.69 C 351.05 752.87 352.06 766.17 354.12 779.33 C 360.44 772.56 366.89 765.79 372.13 758.13 C 365.80 750.55 356.99 745.47 349.13 739.69 M 496.32 745.52 C 488.87 755.96 481.85 766.73 475.90 778.10 C 491.58 776.98 507.23 775.40 522.89 773.91 C 520.76 769.13 518.47 764.42 517.01 759.40 C 516.58 757.56 514.97 756.43 513.51 755.45 C 507.94 751.86 502.16 748.61 496.32 745.52 M 246.78 751.88 C 246.97 752.54 247.35 753.86 247.54 754.52 C 255.42 755.99 263.32 757.41 271.21 758.87 C 265.93 754.82 261.07 749.89 254.95 747.17 C 252.11 748.51 249.47 750.26 246.78 751.88 M 263.67 747.21 C 268.75 750.94 274.03 754.44 279.48 757.63 C 280.22 755.26 280.99 752.92 281.74 750.57 C 275.72 749.40 269.71 748.23 263.67 747.21 M 204.21 749.87 C 207.92 755.35 214.34 757.70 220.56 758.97 C 216.26 754.16 211.01 749.72 204.21 749.87 M 627.34 757.05 C 633.15 758.85 633.83 753.28 635.31 749.82 C 632.61 752.18 629.94 754.57 627.34 757.05 M 221.73 752.82 C 225.77 756.32 229.85 759.84 234.43 762.63 C 235.36 760.69 236.34 758.79 237.33 756.89 C 232.36 754.77 227.10 753.43 221.73 752.82 M 283.60 760.30 C 290.52 761.00 297.47 760.77 304.42 760.84 C 299.06 757.90 293.66 754.97 287.92 752.88 C 285.49 754.63 284.77 757.70 283.60 760.30 M 241.27 758.91 C 240.18 761.08 239.09 763.25 238.06 765.45 C 242.92 766.60 247.78 767.87 252.70 768.81 C 249.34 765.03 245.19 762.06 241.27 758.91 M 249.36 759.47 C 253.91 763.32 258.18 768.16 264.00 769.92 C 268.06 768.86 271.06 765.54 274.61 763.52 C 266.35 761.36 257.83 760.40 249.36 759.47 M 594.95 779.63 C 606.45 775.74 616.45 768.66 627.08 762.97 C 626.89 762.18 626.52 760.59 626.34 759.80 C 614.22 763.20 605.09 772.72 594.95 779.63 M 384.34 761.27 C 389.80 766.30 395.36 771.59 402.01 775.01 C 410.28 777.63 415.84 768.79 422.31 765.37 C 409.66 763.89 397.03 762.21 384.34 761.27 M 214.98 761.86 C 217.16 764.84 219.07 768.05 221.52 770.83 C 224.41 770.78 226.46 768.40 228.65 766.85 C 224.11 765.12 219.58 763.40 214.98 761.86 M 285.62 765.27 C 292.31 774.79 299.14 784.23 306.60 793.17 C 308.35 783.53 310.14 773.87 312.83 764.45 C 303.76 764.88 294.69 765.03 285.62 765.27 M 374.75 763.71 C 368.27 770.56 362.13 777.72 355.96 784.84 C 364.95 789.93 373.93 795.06 383.00 800.02 C 380.30 787.91 377.80 775.74 374.75 763.71 M 379.98 764.56 C 381.91 775.88 384.45 787.09 387.23 798.24 C 392.22 792.53 398.07 787.09 400.67 779.78 C 393.75 774.73 387.26 769.09 379.98 764.56 M 268.26 774.34 C 278.50 779.99 288.43 786.23 298.99 791.29 C 292.84 782.58 286.45 774.04 279.69 765.80 C 275.72 768.42 272.01 771.41 268.26 774.34 M 428.73 766.91 C 422.98 770.36 417.60 774.36 412.42 778.60 C 428.06 779.21 443.73 779.17 459.38 778.65 C 449.25 774.50 438.88 771.00 428.73 766.91 M 315.71 767.95 C 314.05 777.33 312.64 786.76 311.22 796.19 C 323.04 792.65 334.72 788.65 346.42 784.74 C 336.87 777.96 326.33 772.80 315.71 767.95 M 226.07 774.59 C 232.80 778.19 239.43 781.96 246.39 785.10 C 242.56 779.45 238.13 774.24 233.26 769.48 C 230.85 771.16 228.47 772.88 226.07 774.59 M 241.74 771.00 C 248.81 779.49 254.61 791.90 267.11 792.73 C 276.48 794.78 286.10 795.18 295.65 795.50 C 278.98 785.00 261.79 773.34 241.74 771.00 M 472.98 783.03 C 472.82 789.76 472.66 796.51 472.86 803.26 C 490.09 796.66 506.73 788.65 523.84 781.74 C 523.90 780.49 523.97 779.24 524.05 778.01 C 507.02 779.67 489.95 780.88 472.98 783.03 M 406.68 783.75 C 400.33 787.17 397.06 794.36 392.58 799.72 C 412.49 794.20 432.61 789.43 452.38 783.39 C 437.17 783.15 421.81 781.98 406.68 783.75 M 581.45 787.87 C 584.52 786.34 587.59 784.75 590.46 782.85 C 587.07 783.74 584.01 785.50 581.45 787.87 M 399.69 802.73 C 413.93 805.20 428.36 807.43 442.83 807.76 C 450.98 801.61 457.03 793.08 463.48 785.24 C 442.20 791.00 420.73 796.11 399.69 802.73 M 334.05 793.08 C 323.89 796.28 313.01 799.58 305.47 807.59 C 312.42 810.44 320.19 809.90 327.53 810.70 C 344.94 811.73 363.52 811.31 379.21 802.74 C 370.72 798.30 362.78 792.72 353.78 789.33 C 347.03 788.86 340.47 791.31 334.05 793.08 M 451.55 806.85 C 457.05 806.43 462.54 805.78 468.01 805.09 C 467.97 799.60 467.91 794.13 467.82 788.68 C 461.99 794.35 456.47 800.35 451.55 806.85 M 488.60 802.10 C 499.75 801.52 510.28 796.86 518.24 789.03 C 508.25 793.10 498.01 796.79 488.60 802.10 M 573.14 790.90 C 571.48 790.79 571.13 793.53 573.03 793.27 C 574.69 793.40 575.01 790.60 573.14 790.90 M 510.74 800.18 C 516.36 801.16 519.95 797.68 521.50 792.95 C 517.83 795.24 514.27 797.69 510.74 800.18 M 276.63 798.37 C 283.17 801.35 289.75 804.40 296.69 806.33 C 300.15 807.60 302.00 803.54 303.77 801.37 C 294.77 799.97 285.70 799.11 276.63 798.37 M 508.76 805.33 C 510.11 806.27 511.47 807.20 512.84 808.13 C 513.57 806.69 514.31 805.26 515.06 803.84 C 512.95 804.34 510.86 804.84 508.76 805.33 M 396.77 807.14 C 404.45 811.87 411.94 816.99 420.05 820.98 C 421.64 821.84 423.61 822.22 425.26 821.26 C 429.84 818.99 433.51 815.32 437.39 812.08 C 423.96 809.65 410.31 808.72 396.77 807.14 M 476.47 809.23 C 479.18 811.22 481.53 814.03 484.83 815.10 C 488.14 812.99 490.54 809.79 493.29 807.07 C 487.65 807.53 482.05 808.30 476.47 809.23 M 500.27 807.58 C 496.49 809.28 494.15 812.94 491.38 815.86 C 497.28 815.12 503.13 814.01 509.00 813.02 C 508.98 812.26 508.94 810.74 508.92 809.98 C 506.04 809.12 503.20 808.11 500.27 807.58 M 358.73 814.70 C 366.96 817.55 375.41 819.81 383.99 821.29 C 383.95 816.75 383.93 812.18 383.94 807.68 C 375.23 808.79 366.95 811.76 358.73 814.70 M 387.93 807.94 C 388.07 812.56 388.20 817.17 388.36 821.83 C 396.37 823.33 404.55 822.75 412.62 822.07 C 404.80 816.66 396.35 812.30 387.93 807.94 M 465.49 811.66 C 457.23 813.77 449.57 817.73 441.70 820.96 C 454.01 820.40 466.26 819.00 478.50 817.62 C 475.42 813.71 471.24 808.76 465.49 811.66 M 442.37 814.13 C 441.31 815.31 443.37 816.65 444.22 815.45 C 445.31 814.28 443.19 812.92 442.37 814.13 Z" />
</g>
</svg>
