<svg width="832" height="416" viewBox="0 0 832 416" fill="none" xmlns="http://www.w3.org/2000/svg">
<g clip-path="url(#clip0)">
<path d="M405.47 7.65009C435.08 6.13009 464.62 9.92009 493.71 15.1801C520.32 20.8501 546.34 29.0701 571.93 38.1701C595.79 50.1801 619.93 61.8601 642.1 76.8601C661.91 89.5901 679.35 105.58 697.29 120.75C711.01 135.01 724.54 149.49 737.74 164.25C759.91 190.93 778.7 220.56 792.53 252.4C799.05 268.01 805.54 283.82 808.46 300.58C815.64 339.25 827.94 377.31 828.06 417C828.61 430.47 825.36 443.65 823.89 456.96C820.93 480.64 816.65 504.13 811.48 527.42C808.75 539.34 806.49 551.48 801.8 562.83C795.49 578.33 787.29 592.96 780.02 608.01C770.25 627.99 758.43 647.04 743.92 663.93C732.76 676.76 722.57 690.47 710.23 702.23C695.88 715.59 681.88 729.42 666.03 741.05C643.06 757.43 619.21 772.53 594.89 786.83C582.15 793.85 568.33 798.58 554.79 803.76C540.46 808.92 526.36 815.15 511.15 817.25C481.92 821.72 452.53 825.48 422.96 826.74C395.49 828.8 368.54 821.92 341.39 819.17C335.23 818.26 329.18 816.69 322.99 816C301.35 813.39 280.76 805.74 260.86 797.15C249.22 792.23 238.87 784.81 227.26 779.83C218.32 776.39 210.41 770.83 201.41 767.48C168.56 749.92 142.34 722.8 116.21 696.79C105.67 684.93 95.42 672.77 86.09 659.93C73.57 643.99 63.51 626.33 53.26 608.89C45.71 593.6 39.06 577.88 31.63 562.54C27 549.34 23.7501 535.71 19.5201 522.39C9.52005 489.84 8.17005 455.62 5.35005 421.95C4.01005 405.18 8.25005 388.82 10.32 372.32C14.18 343.66 19.1 315.11 26.23 287.08C32.33 265.91 43.4401 246.71 52.9901 227C62.2701 208.09 73.07 189.85 86.69 173.71C97.92 157.27 110.86 142.02 125.22 128.22C147.97 104.84 174.08 84.9501 201.68 67.6701C231.67 49.6601 263.82 35.5401 296.66 23.6401C310.2 18.5701 324.51 16.1601 338.85 14.7801C361.08 12.6101 383.25 9.90009 405.47 7.65009ZM420.72 11.7801C428 17.7701 436.49 22.0901 444.87 26.3401C444.99 21.9901 445.12 17.6501 445.28 13.3101C437.18 11.8901 428.93 11.3901 420.72 11.7801ZM409.97 11.9301C405.2 15.1701 400.41 18.3601 395.7 21.6701C408.29 25.0301 421.31 26.4001 434.34 25.9401C426.53 20.7401 418.39 16.0401 409.97 11.9301ZM356.49 16.4701C356.32 17.1401 355.97 18.4701 355.8 19.1301C358.34 20.6601 360.78 23.0201 363.94 22.9501C374.11 22.3701 382.95 16.7201 392.24 13.1601C380.3 14.0701 368.41 15.4501 356.49 16.4701ZM450.38 12.9401C449.03 17.5601 449.7 22.4101 450.47 27.0701C458.17 24.8901 465.9 22.7501 473.27 19.5601C465.67 17.2401 458 15.1601 450.38 12.9401ZM322.46 23.4601C325.73 24.7601 329.03 26.9501 332.67 26.6201C336.34 25.0901 338.58 21.5301 341.38 18.8801C334.91 19.5301 328.25 20.2801 322.46 23.4601ZM340.77 27.0401C346.31 26.6801 351.83 26.1901 357.36 25.6901C354.58 23.2801 351.7 20.9601 348.87 18.6301C346.14 21.4001 343.45 24.2201 340.77 27.0401ZM383.72 22.2201C386.1 21.5101 388.44 20.6501 390.66 19.5101C388.29 20.2801 385.98 21.1901 383.72 22.2201ZM473.73 24.6401C476.83 25.1501 479.88 25.6301 483.01 26.1101C482.97 24.6401 482.93 23.1701 482.91 21.6901C479.83 22.6201 476.77 23.6101 473.73 24.6401ZM311.41 25.3301C308.01 27.2101 305.17 29.9501 302.24 32.4701C309.66 31.5401 317.05 30.3301 324.47 29.3101C320.8 26.4001 316.44 23.3301 311.41 25.3301ZM385.24 31.3801C388.87 32.0301 392.54 32.7001 396.19 33.3201C394.53 36.6601 392.81 39.9801 391.11 43.2901C405.35 39.9401 419.58 36.2801 433.45 31.5901C419.81 29.7001 406.16 27.6601 392.43 26.6101C389.2 26.2901 387.19 29.3101 385.24 31.3801ZM365.38 29.5101C365.29 31.2301 365.09 34.6801 364.99 36.4101C368.22 35.8601 371.56 35.6801 374.67 34.5801C377.85 33.2201 379.36 29.8401 381.31 27.1901C376 27.9901 370.69 28.7701 365.38 29.5101ZM453.61 30.8601C461.29 35.8201 469.18 40.5201 477.35 44.6201C485.59 47.0701 494.28 44.4701 502.52 43.2901C492.84 39.5001 482.47 37.8701 472.74 34.2601C466.61 32.2501 460.23 28.3301 453.61 30.8601ZM315.72 44.8301C325.86 40.7301 336.78 37.7001 345.73 31.1901C334.1 31.1601 324.57 38.1601 315.72 44.8301ZM331.46 43.5701C326.04 46.9501 321.43 51.4701 316.79 55.8301C325.84 54.8801 335.04 54.6901 343.95 52.7601C352.05 48.0901 363.02 41.7901 361.5 30.7001C351.38 34.7201 341.21 38.6901 331.46 43.5701ZM309.7 36.4801C311.38 36.8101 314.73 37.4601 316.41 37.7801C308.44 40.2501 300.35 42.4201 292.6 45.5401C296.39 45.0901 300.2 44.6301 303.97 43.9401C311.52 43.4501 317.31 38.0801 323.29 34.0801C318.74 34.7701 314.21 35.5901 309.7 36.4801ZM402.91 44.7501C396.33 46.7301 389.45 48.1301 383.35 51.4001C397.58 51.9801 412 53.0401 426.15 51.1601C432.29 47.4101 435.94 40.6601 440.24 35.0401C427.7 37.8801 415.34 41.4801 402.91 44.7501ZM450.8 35.0601C452.26 44.6501 454.72 54.0501 456.41 63.6101C458.84 63.1901 463.69 62.3601 466.12 61.9501C470.55 58.3501 473.88 53.5301 477.96 49.5501C468.87 44.7801 459.84 39.9001 450.8 35.0601ZM432.19 53.7801C438.21 58.2301 443.5 65.8101 452.06 63.5301C450.22 54.4601 448.37 45.4001 446.36 36.3701C440.85 41.4701 435.89 47.2401 432.19 53.7801ZM280.46 43.1401C278.06 46.3001 275.59 49.4101 273.01 52.4301C278.71 50.7801 284.11 48.2901 289.43 45.7001C286.44 44.8501 283.45 43.9901 280.46 43.1401ZM485.78 50.6001C488.24 57.0301 491.58 63.0801 495.63 68.6501C496.75 65.9801 497.51 63.1801 498.07 60.3401C499.13 60.0601 500.19 59.7801 501.26 59.5001C500.22 57.0601 499.1 54.6601 497.96 52.2701C500.48 52.8501 503.02 53.4201 505.56 53.9601C507.02 51.5901 508.52 49.2501 510.02 46.9001C501.9 47.8601 493.79 48.9901 485.78 50.6001ZM514.34 47.8601C513.9 48.8901 513.45 49.9301 513.01 50.9601C515.72 51.2101 518.51 51.4701 521.26 51.7101C518.95 50.4101 516.65 49.1301 514.34 47.8601ZM289.6 54.1201C292.75 53.2901 295.72 51.8901 298.33 49.9201C295.36 51.2001 292.46 52.6401 289.6 54.1201ZM512.1 52.3801C510.67 52.0501 509.55 54.5401 511.22 54.9401C512.68 55.3401 513.77 52.7801 512.1 52.3801ZM471.02 63.4601C477.55 65.2001 484 67.2401 490.32 69.6701C487.35 64.1401 484.13 58.7501 480.74 53.4801C477.38 56.6801 474.23 60.1001 471.02 63.4601ZM375.64 56.3201C381.99 59.0701 388.46 61.5601 394.84 64.2501C398.04 65.4501 401.32 67.1001 404.83 66.8201C410.71 64.4401 415.39 60.0201 420.33 56.1501C405.43 55.8301 390.53 55.8901 375.64 56.3201ZM411.47 68.7901C422.86 70.9001 434.43 71.7101 445.98 72.5501C442.17 65.2801 434.21 61.6201 428.02 56.7701C422.41 60.6501 416.82 64.5701 411.47 68.7901ZM298.59 66.4801C302.68 68.5201 306.51 71.9001 311.32 71.8001C321.86 72.8201 329.16 63.2901 337.3 58.2201C324.31 60.1101 309.53 57.9001 298.59 66.4801ZM374.16 60.2101C373.17 61.5901 372.18 62.9701 371.18 64.3501C377.78 75.1801 383.37 86.6101 390.38 97.1701C393.02 95.2501 393.96 91.9501 395.22 89.1001C397.49 83.3901 399.93 77.7501 402.24 72.0601C393.1 67.6001 383.56 64.0801 374.16 60.2101ZM254.17 63.1101C244.74 64.9601 235.07 66.6901 226.66 71.6101C232.75 70.8801 238.88 70.5701 245.02 70.5901C235.96 77.6101 223 75.5401 213.34 81.3301C208.91 85.3401 205.45 90.3001 201.62 94.8601C212.24 90.7601 223.01 86.7901 232.82 80.9301C240.97 76.7901 249.21 72.5101 258.18 70.4901C255.19 70.0101 250.19 72.2601 248.54 68.3801C252.42 66.7001 256.46 65.4201 260.41 63.9101C258.39 63.3101 256.29 62.6801 254.17 63.1101ZM264.86 71.8001C257.24 74.8401 249.36 77.3001 242.1 81.1701C240.4 82.0701 239.27 83.6501 238.13 85.1401C232.82 92.5301 225.35 97.9601 219.44 104.83C224.98 104.26 230.39 102.96 235.83 101.85C235.73 103.42 235.63 105 235.54 106.57C244.95 107.84 254.38 109.01 263.82 109.96C268.96 99.9001 272.97 89.3201 276.92 78.7601C273.4 80.9901 269.96 83.3401 266.38 85.4801C266.43 84.2501 266.48 83.0201 266.54 81.7901C260.78 85.9601 255.56 91.2401 248.72 93.6701C248.98 85.2601 253.91 76.8301 262.35 74.4601C269.19 72.6401 276.38 71.1601 281.74 66.1201C275.82 67.0301 270.39 69.6501 264.86 71.8001ZM282.05 77.0601C276.12 85.9601 274.31 96.7601 271.1 106.77C271.85 107.57 272.59 108.37 273.34 109.17C276.49 107.97 279.99 106.67 281.26 103.2C286.91 92.0801 295.8 83.1001 305.07 74.9401C301.95 73.0801 299.03 70.8201 295.65 69.4701C290.88 71.4301 285.96 73.6501 282.05 77.0601ZM350.67 76.8401C346.53 80.6401 344.5 86.1201 341.64 90.8601C356.32 94.7901 371.31 97.4601 386.06 101.12C380.46 90.5101 374.7 79.9801 369.13 69.3501C364.1 74.1801 356.76 74.1501 350.67 76.8401ZM410.65 73.0201C419.89 84.5601 429.62 95.7501 439.95 106.33C443.24 96.9701 443.34 86.9401 444.04 77.1501C432.97 75.3301 421.82 74.0401 410.65 73.0201ZM484.59 76.1101C486.64 77.5101 488.73 78.8501 490.84 80.1701C491.25 78.6501 491.67 77.1301 492.09 75.6201C489.58 75.6901 487.08 75.8801 484.59 76.1101ZM405.31 75.4601C401.33 84.3901 398 93.6001 394.79 102.83C407.65 104.69 420.54 107.03 433.59 106.91C424.66 96.0201 415.83 84.8801 405.31 75.4601ZM497.16 75.1801C496.24 77.5001 495.38 79.8501 494.52 82.2001C498.71 83.6101 503.02 84.5801 507.4 85.2601C504.96 80.9401 502.49 76.1401 497.16 75.1801ZM330.73 86.0401C333.02 86.7201 335.31 87.5601 337.73 87.7501C340.99 84.6901 342.73 80.4101 345.09 76.6801C340.18 79.6001 335.48 82.8601 330.73 86.0401ZM198.76 80.3301C197.83 84.6601 196.84 88.9901 196.01 93.3401C200.69 88.7801 204.97 83.8001 208.71 78.4401C205.35 78.8401 202.05 79.6001 198.76 80.3301ZM178.41 101.77C181.7 101.25 184.99 100.83 188.24 100.06C191.23 95.8201 191.55 90.2901 192.95 85.3901C187.09 89.8201 181.9 95.2701 178.41 101.77ZM323.31 87.5201C314.25 88.3901 307.67 95.7301 300.54 100.65C310.95 97.8301 321.34 94.9201 331.56 91.4901C328.88 90.0701 326.28 88.1201 323.31 87.5201ZM469.66 89.8401C470.57 93.9101 471.76 97.9001 473.01 101.88C475.76 101.15 478.54 100.44 481.31 99.7101C477.51 96.3201 473.62 93.0301 469.66 89.8401ZM339.93 94.9601C340.38 103.69 340.94 112.42 341.53 121.14C355.91 117.14 369.53 110.84 383.37 105.32C368.98 101.51 354.44 98.3101 339.93 94.9601ZM297.98 105.98C292.06 107.15 287.27 110.91 282.45 114.28C288.5 115.78 294.41 119.01 300.73 118.66C310.51 113.1 318.8 105.37 327.11 97.8801C317.33 100.31 307.66 103.17 297.98 105.98ZM305.21 123.11C305.29 130.62 306.92 137.99 308.33 145.34C316.59 130.88 323.57 115.73 330.91 100.79C322.56 108.47 312.45 114.3 305.21 123.11ZM315.1 142.54C323.59 137.44 330.14 129.78 337.38 123.14C336.92 115.99 336.47 108.85 335.8 101.72C328.54 115.14 321.24 128.56 315.1 142.54ZM153.58 123.89C163.5 117.66 173.51 111.56 183.27 105.07C170.91 106.1 160.75 114.27 153.58 123.89ZM474.61 105.24C475.51 106.85 476.43 108.45 477.35 110.05C478.56 108.34 479.81 106.66 481.09 105C479.47 105.06 476.23 105.18 474.61 105.24ZM394.81 106.88C395.69 117.73 397.19 128.56 399.97 139.1C411.12 130.21 422.51 121.62 433.31 112.29C420.53 110.11 407.66 108.49 394.81 106.88ZM356.57 120.43C353.9 121.54 351.14 122.6 348.84 124.4C353.73 127.12 359.08 128.85 364.35 130.65C374.4 134.04 384.46 137.65 394.98 139.28C393.33 128.71 392.18 118.03 389.34 107.7C378.44 112.01 367.53 116.28 356.57 120.43ZM484.37 107.63C483.08 109.3 480.52 112.63 479.23 114.3C482.09 121.65 483.38 129.49 483.75 137.36C490.35 140.01 496.85 142.89 503.29 145.92C501.9 141.39 500.41 136.89 498.96 132.39C501.2 132.32 503.45 132.22 505.7 132.09C500.28 122.69 494.16 112.96 484.37 107.63ZM496.03 109.15C497.73 112.14 499.47 115.1 501.21 118.09C503.1 117.65 504.98 117.18 506.87 116.72C506.68 110.61 501.29 108.5 496.03 109.15ZM213.96 122.02C209.27 125.31 206.44 130.39 203.68 135.26C205.12 135.45 206.55 135.65 207.99 135.87C206.63 138.92 205.26 141.97 203.9 145.02C222.28 134.57 241.02 124.74 259.28 114.08C250.35 112.41 241.31 110.48 232.2 110.58C225.59 113.37 220.03 118.25 213.96 122.02ZM276.53 112.12C276.67 112.44 276.96 113.09 277.1 113.41C279.7 114.02 277.95 109.94 276.53 112.12ZM267.39 116.77C260.51 126.56 253.3 136.14 246.95 146.29C256.95 142.87 267.07 139.61 276.57 134.93C273.93 128.67 270.73 122.67 267.39 116.77ZM272.94 116.9C275.65 122.18 278.44 127.44 281.37 132.62C286.22 129.82 290.8 126.58 295.41 123.4C288.14 120.52 280.52 118.71 272.94 116.9ZM407.51 139.61C422.52 136.88 437.52 133.99 452.39 130.57C449.73 128.8 447.12 126.74 443.96 125.95C441.4 124.92 439.62 127.55 437.7 128.73C436.55 125.09 435.4 121.45 434.42 117.76C425.2 124.73 415.95 131.7 407.51 139.61ZM235.11 133.17C224.49 139.13 213.4 144.36 203.46 151.45C215.16 150.54 226.99 150.53 238.58 148.5C246.54 139.86 252.59 129.6 259.32 120C251.05 124.01 243.18 128.78 235.11 133.17ZM300.1 125.81C295.05 129.27 289.96 132.67 285.11 136.41C291.19 140.32 296.98 144.85 303.65 147.74C302.5 140.43 301.38 133.1 300.1 125.81ZM343.12 128.8C346.21 146.28 350.63 163.52 354.84 180.76C357.92 178.99 360.3 176.28 362.89 173.88C372.92 164.08 383.32 154.67 393.44 144.96C376.79 139.24 360.33 132.64 343.12 128.8ZM310.6 153.39C323.65 162.45 336.59 171.71 349.91 180.38C346.29 163.37 342.63 146.36 338.05 129.58C328.64 137.2 319.44 145.11 310.6 153.39ZM436.38 138.36C425.82 140.64 415.17 142.44 404.58 144.54C415.94 151.75 427.62 158.52 439.66 164.57C445.87 155.01 452.86 145.86 457.76 135.52C450.52 135.11 443.43 137.06 436.38 138.36ZM244.47 152.4C246.93 160.54 252.31 167.31 256.75 174.41C263.63 163.65 269.34 152.17 275.32 140.89C264.88 144.28 254.67 148.35 244.47 152.4ZM280.35 140.38C274.64 151.64 268.48 162.68 262.8 173.96C275.79 166.85 289.27 160.65 302.19 153.42C295.35 148.44 288.42 143.21 280.35 140.38ZM445.59 165.73C450.34 163.05 454.33 159.29 458.48 155.8C467 158.05 476 157.58 484.7 157.05C490.37 155.05 495.55 151.83 501.08 149.45C494.97 146.64 488.83 143.93 482.62 141.37C480.57 143.1 478.7 145.43 475.96 146.01C470.23 147.08 465.31 143.79 460.61 141.09C455.53 149.21 448.85 156.6 445.59 165.73ZM400.06 147.08C395.65 162.01 391.17 177.01 388.73 192.4C404.52 184.77 420.12 176.66 435.15 167.61C423.28 161.05 411.7 154 400.06 147.08ZM150.24 151.89C148.39 154.23 146.53 156.56 144.68 158.91C146.94 160.92 148.67 163.42 149.86 166.22C144.03 169.07 138.42 172.41 133.47 176.63C144.74 171.62 156.15 164.92 161.18 153.08C157.54 152.62 153.89 152.19 150.24 151.89ZM357.68 184.6C365.81 188.41 374.24 191.51 382.76 194.33C387.08 180.38 391.04 166.25 393.12 151.77C380.83 162.19 369.59 173.76 357.68 184.6ZM196.88 156.19C201.72 164.62 207.24 172.63 213.27 180.26C220.95 172.05 228.05 163.31 234.44 154.06C221.92 154.72 209.4 155.53 196.88 156.19ZM164.28 154.86C163.48 156.92 162.65 158.98 161.81 161.03C164.21 160.43 169.01 159.22 171.41 158.62C169.03 157.35 166.66 156.1 164.28 154.86ZM218.63 181.57C230.17 180.16 241.73 178.96 253.28 177.7C249.01 170.6 244.64 163.55 240.34 156.46C231.59 163.35 225.69 173.09 218.63 181.57ZM158.91 167.96C161.32 181.85 160.87 197.8 171.64 208.47C179.38 192.44 184.06 175.18 188.17 157.93C178.24 160.72 168.42 163.92 158.91 167.96ZM309.07 158.61C309.75 170.39 310.05 182.17 310.12 193.96C322.57 190.91 335.07 188.08 347.44 184.71C335.96 174.22 322.28 166.63 309.07 158.61ZM273.88 199.02C284.55 197.84 295.17 196.28 305.77 194.57C305.91 182.95 305.24 171.34 304.7 159.74C294.46 172.86 283.82 185.67 273.88 199.02ZM192.59 160.3C188.76 170.66 185.5 181.31 183.8 192.25C192.08 189.43 200.28 186.38 208.5 183.41C204.11 175.13 198.93 167.23 192.59 160.3ZM260.53 180.28C262.84 186.38 265.6 192.3 268.33 198.23C278.18 186.31 287.69 174.11 297.01 161.76C284.64 167.52 272.8 174.33 260.53 180.28ZM439.44 170.95C422.83 179.7 406.32 188.64 389.69 197.35C393.67 199.37 397.71 201.25 401.75 203.16C413.37 195.04 425.83 188.29 437.8 180.75C441.52 178.97 438.75 173.78 439.44 170.95ZM136.72 180.65C139.71 181.01 142.71 181.36 145.71 181.71C143.14 184.13 140.71 186.83 137.64 188.63C133.88 189.98 129.82 188.46 125.97 189.25C122.74 190.28 119.75 191.93 116.74 193.46C123.28 196.28 129.89 199.05 136.9 200.47C141.84 191.46 146.46 182.27 149.96 172.6C145.37 174.98 141.05 177.84 136.72 180.65ZM141.99 200.32C146.85 199.26 151.63 197.87 156.3 196.18C157.98 195.81 158.85 193.94 158.58 192.34C157.73 186.39 156.24 180.56 154.79 174.74C150.22 183.11 146.11 191.72 141.99 200.32ZM118.06 181.28C116.65 180.78 115.27 183.18 116.94 183.72C118.35 184.21 119.72 181.82 118.06 181.28ZM217.53 186.3C221.41 192.38 225.48 198.4 230.33 203.76C232.15 204.42 233.34 202.58 234.54 201.55C240.21 195.45 245.59 189.07 250.54 182.37C239.52 183.56 228.51 184.84 217.53 186.3ZM94.67 196.08C99.5 194.78 104.34 193.27 108.73 190.83C110.06 188.57 110.52 185.94 111.25 183.45C104.89 186.41 99.34 190.89 94.67 196.08ZM237.56 204.89C246.59 203.96 255.5 202.23 264.44 200.65C262.05 195.13 259.33 189.76 256.67 184.37C249.72 190.65 243.48 197.65 237.56 204.89ZM183.73 197.9C187.65 203.78 191.58 209.67 195.75 215.38C200.33 206.75 204.29 197.81 207.93 188.75C199.7 191.34 191.58 194.29 183.73 197.9ZM213.22 188.84C208.98 198.02 204.47 207.06 200.03 216.14C208.93 213.51 218 211.14 226.38 207.07C222.46 200.67 217.79 194.78 213.22 188.84ZM311.71 198.32C316.08 211.59 322.33 224.15 327.43 237.14C335.18 221.52 342.35 205.61 349.05 189.52C336.3 190.87 324.11 195.25 311.71 198.32ZM355.01 188.61C347.5 203.39 340.36 218.44 334.58 233.98C350.1 222.53 364.88 210.11 380.13 198.3C371.76 195.04 363.45 191.65 355.01 188.61ZM88.39 202.53C84.84 203.95 83.11 207.67 82.17 211.12C80.25 218.55 78.39 225.99 76.38 233.4C85.7 221.64 95.27 210.08 104.18 198.01C98.88 199.39 93.56 200.74 88.39 202.53ZM114 197.6C114.85 206.61 116.04 215.58 117.44 224.53C118.01 224.63 119.17 224.83 119.74 224.94C124.29 218.3 129.22 211.93 133.56 205.16C127.38 201.86 120.85 199.16 114 197.6ZM274.47 203.69C289.5 214.65 304.74 225.5 321.12 234.39C316.75 222.72 311.92 211.22 307.01 199.77C296.09 200.42 285.28 202.09 274.47 203.69ZM139.89 205.89C140.67 211.37 141.38 216.86 142.25 222.34C147.3 215.49 151.68 208.2 156.06 200.92C150.65 202.52 145.24 204.12 139.89 205.89ZM332.84 241.71C344.56 244.41 356.09 248.02 367.93 250.19C371.86 250.97 373.31 244.91 377.28 245.65C385.18 246.58 393.05 247.71 401 248.28C395.2 232.73 389.7 217.08 383.68 201.62C366.27 214.36 349.43 227.91 332.84 241.71ZM160.02 202.91C155.8 209.58 151.49 216.21 147.9 223.24C154.65 220.23 161.18 216.74 167.55 213C166.01 209.69 164.42 206.42 162.82 203.15C162.12 203.09 160.72 202.97 160.02 202.91ZM179.35 201.93C177.82 205.44 176.56 209.05 175.55 212.75C180.5 213.87 185.44 214.96 190.42 215.94C187.12 210.98 183.67 206.05 179.35 201.93ZM389.67 202.81C393.53 218.26 400.11 232.9 405.52 247.85C408.48 246 410.99 243.45 412.1 240.04C413.18 237.44 415.06 233.82 412.65 231.36C407.96 225.76 402.54 220.69 399.03 214.19C402.03 213.18 405 212.25 408.06 211.42C401.99 208.43 395.87 205.51 389.67 202.81ZM109.64 204.66C103.2 220.76 97.28 237.06 90.94 253.21C98.02 247.61 104.77 241.53 110.59 234.62C112.85 232.15 114.16 228.72 113.58 225.37C112.51 218.42 111.15 211.52 109.64 204.66ZM234.02 210.17C238.02 217.97 242.22 225.66 246.43 233.36C252.53 224.56 258.05 215.36 263.08 205.91C253.36 207.12 243.71 208.81 234.02 210.17ZM78.6 237.65C77.46 239.79 74.4 241.88 75.41 244.62C77.29 249.66 81.66 253.13 85.39 256.8C91.81 240.2 97.52 223.33 103.99 206.75C95.07 216.66 86.97 227.28 78.6 237.65ZM271.73 208C275.04 226.06 280.01 243.78 283.23 261.87C296.51 255.35 309.99 249.23 323.18 242.52C305.96 231.11 289.03 219.28 271.73 208ZM73.14 209.11C71.82 209.79 71.81 210.47 73.11 211.14C74.43 210.46 74.44 209.78 73.14 209.11ZM252 233.02C251.12 235.06 248.82 237.88 251.36 239.61C259.63 246.68 268.65 252.93 278.03 258.45C274.96 241.95 270.99 225.63 267.18 209.29C261.18 216.55 256.99 225.08 252 233.02ZM121.56 230.03C127.16 229.47 132.7 228.44 138.22 227.36C137.51 221.77 136.72 216.18 135.83 210.61C130.61 216.72 125.93 223.29 121.56 230.03ZM224.11 213.05C217.23 215 210.48 217.41 203.69 219.66C215.43 225.6 227.94 229.82 240.34 234.13C237.5 227.05 234.65 219.87 230.49 213.45C228.81 211.54 226.18 212.59 224.11 213.05ZM173.93 216.92C173.88 227.47 173.96 238.04 174.92 248.55C181.22 239.88 187.53 231.04 191.77 221.14C185.85 219.62 179.89 218.27 173.93 216.92ZM144.6 230.28C152.6 238.39 161.25 245.81 169.9 253.21C170.04 241.39 170.03 229.57 169.9 217.75C161.37 221.74 152.96 225.95 144.6 230.28ZM56.8301 230.38C59.1101 227.78 60.93 224.8 62.16 221.56C59.73 224.06 57.9801 227.11 56.8301 230.38ZM495.12 222.83C495.37 225.23 495.12 228.09 497.14 229.84C503.26 235.54 511.14 238.63 518.9 241.41C518.97 238.57 519.04 235.73 519.11 232.9C512.05 227.7 503.69 224.53 495.12 222.83ZM199.42 223.59C200.68 237.65 202.98 251.65 205.83 265.47C218.44 257.95 229.45 248.14 241.11 239.29C227.44 233.51 213.47 228.37 199.42 223.59ZM64.45 241.87C65.98 241.89 67.5 241.93 69.03 241.97C70.95 236.25 72.75 230.49 74.08 224.61C69.58 229.54 66.78 235.68 64.45 241.87ZM175.55 257.56C183.85 260.97 192.16 264.45 200.82 266.87C199.18 253.47 196.94 240.15 194.8 226.82C188.02 236.82 181.33 246.93 175.55 257.56ZM120.48 234.63C122.16 241.67 124.66 248.58 128.47 254.78C132.04 247.91 134.41 240.51 136.9 233.21C131.41 233.48 125.9 233.67 120.48 234.63ZM141.18 234.57C137.79 242.87 134.59 251.24 131.76 259.74C143.04 258.6 154.34 257.71 165.6 256.44C158.17 248.41 149.8 241.29 141.18 234.57ZM49.7901 248.55C55.1601 246.21 59.0501 241.54 59.2701 235.54C55.7501 239.59 52.5601 243.95 49.7901 248.55ZM522.46 235.94C521.47 244.3 530.12 245.79 534.82 250.23C540.09 253.59 542.02 259.79 544.41 265.22C542.26 265.46 540.08 265.52 538.02 266.17C536.96 269.64 537.4 273.33 537.18 276.9C549.2 278.77 561.18 280.95 573.33 281.91C556.4 266.55 540.32 250.23 522.46 235.94ZM468.21 237.19C484.7 250.32 503.37 260.55 520.84 272.33C520.89 269.49 520.99 263.81 521.03 260.98C508.19 254.69 494.77 249.35 483.15 240.86C479.03 237.16 473.34 237.63 468.21 237.19ZM102.91 273.45C110.41 270.26 117.36 265.97 124.31 261.74C123.47 254.05 120.27 246.97 116.51 240.32C110.43 250.64 107.24 262.35 102.91 273.45ZM89.13 262.28C90.87 266.7 94.54 270 97.25 273.82C103.44 264.07 105.88 252.55 110.05 241.9C103.04 248.65 95.54 254.96 89.13 262.28ZM239.94 245.91C230.66 253 221.14 259.79 212.32 267.45C233.15 266.62 253.91 264.54 274.72 263.37C266.73 255.88 257.92 249.28 248.94 243.05C245.78 240.57 242.39 244.35 239.94 245.91ZM454.95 248.45C456.12 268.66 455.73 288.94 457.6 309.12C478.04 299.31 497.56 287.69 517.89 277.67C517.85 277.12 517.77 276.01 517.73 275.45C501.87 266.07 486.93 255.24 471.34 245.43C466.55 248.75 460.47 248.24 454.95 248.45ZM581.41 255.41C583.82 263.38 585.97 271.43 588.4 279.39C591.52 274.48 594.94 269.65 597.17 264.25C598.94 257.37 594.32 251.34 591.86 245.32C588.31 248.61 584.96 252.12 581.41 255.41ZM60.4001 250.33C58.0201 255.69 56.9501 261.55 55.8801 267.3C60.1201 260.71 64.12 253.83 66.42 246.29C64.29 247.36 61.4401 247.9 60.4001 250.33ZM333.91 246.76C343.86 266.09 353.97 285.37 364.94 304.16C365.38 303.89 366.26 303.37 366.7 303.1C365.57 301.63 364.43 300.16 363.43 298.61C353.52 285.49 360.76 267.82 367.76 254.98C356.54 251.99 345.36 248.75 333.91 246.76ZM297.82 298.28C317.95 303.17 338.87 303.34 359.35 305.99C348.94 286.44 338 267.17 327.56 247.63C316.91 264.06 306.78 280.87 297.82 298.28ZM428.81 281.07C436.34 289.83 443.79 298.72 452.4 306.46C452.68 286.82 452.4 267.11 450.8 247.53C441.98 257.69 435.86 269.71 428.81 281.07ZM284.69 266.16C287.51 275.7 290.68 285.15 294.55 294.32C303.48 279.22 312.7 264.29 321.08 248.88C308.68 254.07 296.66 260.07 284.69 266.16ZM73.21 250.61C70.84 261 70.71 271.7 71.09 282.3C74.81 275.98 80.1 270.21 81.84 262.99C80.75 257.97 76.14 254.61 73.21 250.61ZM37.7401 268.21C41.8901 263.98 45.53 259.29 49.1 254.57C42.83 256.51 39.5201 262.26 37.7401 268.21ZM573.69 255.12C575.07 256.87 576.47 258.61 577.93 260.31C577.63 258.55 577.33 256.8 577.02 255.06C576.19 255.07 574.53 255.1 573.69 255.12ZM33.3101 282.66C36.8301 283.8 40.33 285.26 44.05 285.53C45.76 285.62 47.43 284.65 47.8 282.9C50.51 274.05 52.25 264.94 54.03 255.87C46.9 264.62 39.5301 273.23 33.3101 282.66ZM51.75 287.26C55.97 289.67 60.69 291.07 65.6 291.1C66.72 279.34 67.2 267.55 67.75 255.76C61.58 265.81 56.96 276.7 51.75 287.26ZM131.15 264.38C131.49 276.06 131.47 287.92 134.28 299.33C145.12 286.95 155.44 274.14 166.15 261.66C154.43 261.46 142.75 262.89 131.15 264.38ZM174.04 261.82C174.86 283.98 172.31 306.16 173.97 328.29C183.27 309.75 191.77 290.83 200.84 272.18C192 268.49 183.07 265.03 174.04 261.82ZM524.9 263.59C525.31 266.91 525.35 270.4 526.47 273.61C528.07 275.19 530.33 275.78 532.31 276.73C532.81 270.85 528.98 266.94 524.9 263.59ZM135.54 306.08C146.51 315.94 157.64 325.63 168.93 335.14C168.2 311.95 170.73 288.75 169.08 265.58C157.35 278.6 146.18 292.15 135.54 306.08ZM215.93 272.11C239.74 281.67 264.46 288.74 289.08 295.89C286.4 286.38 283.8 276.82 279.94 267.72C258.58 268.37 237.26 270.58 215.93 272.11ZM600.54 266.86C597.18 272.6 594.13 278.53 591.56 284.68C605.2 287.29 618.95 289.27 632.7 291.16C632.58 286.88 631.85 282.66 631.17 278.45C626.33 278.72 621.44 278.75 616.63 278.38C609.73 277.25 604.85 271.89 600.54 266.86ZM639.8 292.88C650.17 299.71 662.06 303.46 673.54 307.95C673.98 293.94 667.24 281.05 659.81 269.64C649.91 273.92 645.85 284.73 639.8 292.88ZM87.26 270.09C87.09 276.56 87.16 283.03 87.29 289.52C89.42 286.88 91.59 284.25 93.52 281.47C95.13 276.32 90.68 272.86 87.26 270.09ZM99.76 281.89C100.23 287.69 100.77 293.5 101.31 299.29C108.17 290.39 114.47 280.96 119.17 270.73C112.28 273.67 105.8 277.49 99.76 281.89ZM70.98 293.36C74.22 293.96 77.46 294.61 80.71 295.14C81.43 294.32 82.16 293.5 82.89 292.68C82.92 286.02 82.91 279.36 82.85 272.71C78.75 279.5 74.44 286.2 70.98 293.36ZM102.31 309.08C105.65 317.74 112.96 324.9 118.75 332.32C121.05 325.64 124.61 319.44 126.55 312.65C127.98 299.62 125.83 286.59 124.48 273.65C116.46 285.03 108.89 296.83 102.31 309.08ZM635.12 277.24C635.67 279.48 636.75 283.97 637.29 286.22C640.6 282.24 643.9 278.23 647.26 274.28C643.22 275.3 639.16 276.28 635.12 277.24ZM204.2 275.58C193.88 295.82 184.62 316.59 174.97 337.16C197.81 335.26 220.72 333.53 243.34 329.81C235.8 317.24 226.4 305.96 218.13 293.9C213.78 287.58 209.18 281.42 204.2 275.58ZM210.75 276.04C221.17 291 232.42 305.37 242.4 320.64C245.69 326.25 251.38 330.52 257.97 330.93C273.98 331.87 289.82 334.9 305.91 334.68C301.68 323.55 296.94 312.49 290.63 302.39C286.68 299.43 281.41 298.92 276.94 297.05C254.74 290.48 233.43 281 210.75 276.04ZM534.76 280.74C534.02 283.79 532.66 287.25 534.85 290.06C547.2 309.41 559.82 328.59 572.13 347.96C575.07 347.98 577.84 347.93 580.84 348.03C581.42 328.24 585.12 308.57 584.41 288.76C580.75 287.25 576.74 286.83 572.88 286.16C560.16 284.4 547.51 282.24 534.76 280.74ZM479.77 303.02C486.63 301.38 493.22 298.73 500.15 297.35C502.21 296.77 503.65 298.83 504.64 300.33C504.88 308.21 500.43 316.02 503.06 323.9C505.02 330.7 512.72 331.87 518.12 335.01C519.85 317.22 520.49 299.31 520.93 281.44C506.78 287.74 493.12 295.17 479.77 303.02ZM426.27 284.95C421.2 293.16 415.98 301.3 410.06 308.93C423.22 309.78 436.4 310.53 449.6 310.73C442 301.97 433.94 293.63 426.27 284.95ZM31.9 286.71C28.95 293.58 27.43 300.94 25.9 308.23C32.34 302.49 38.2901 296.23 44.3801 290.12C40.2201 288.96 36.05 287.84 31.9 286.71ZM87.51 297.29C90.17 299.49 92.93 301.58 95.8 303.51C95.83 297.89 95.83 292.28 95.79 286.67C93 290.18 90.23 293.73 87.51 297.29ZM592.5 289.9C600.76 304.16 610.31 317.64 618.43 331.99C625.33 331.84 632.23 331.67 639.14 331.21C637.87 319.4 636.21 307.63 634.03 295.96C620.25 293.57 606.53 290.16 592.5 289.9ZM524.82 292.22C523.06 307.87 522.71 323.61 522.01 339.33C528.78 339.52 535.56 339.07 542.32 339.78C550.11 341.18 557.56 343.96 565.14 346.19C554.23 327.4 541.91 309.45 530.08 291.23C528.33 291.56 526.57 291.89 524.82 292.22ZM50.19 291.59C48.16 301.73 46.1 311.93 45.92 322.3C52.33 313.93 58.11 305.09 63.51 296.04C59.2 294.21 54.75 292.71 50.19 291.59ZM589.29 293.67C587.88 304.1 587.09 314.6 586.79 325.12C595.02 329.44 604.14 331.48 613.37 332.11C605.73 319.06 597.55 306.33 589.29 293.67ZM742.87 294.04C746.37 303.55 751.2 312.48 756.18 321.29C762.03 320.34 767.78 318.88 773.46 317.17C772.33 313.95 771.11 310.77 769.88 307.59C764.64 306.63 758.71 307.13 754.19 303.84C750.15 300.89 746.61 297.32 742.87 294.04ZM69.41 296.82C67.29 306.57 66.58 316.53 66.32 326.48C71.98 318.21 76.61 309.24 80.54 300.03C76.86 298.87 73.12 297.87 69.41 296.82ZM638.94 297.75C640.55 308.83 642.13 319.91 643.97 330.96C651.86 328.47 660.66 326.97 666.6 320.68C668.72 317.98 670.72 315.16 672.63 312.3C661.52 307.18 650.24 302.43 638.94 297.75ZM799.57 297.24C798.29 299.76 797.04 302.3 795.82 304.84C800.52 312.95 804.85 321.28 809.82 329.24C807.54 318.28 806.84 306.3 799.57 297.24ZM24.64 317.09C27.2 322.29 29.8001 327.48 32.5601 332.59C37.0301 321.56 39.4201 309.83 42.6301 298.4C36.2201 304.22 30.68 310.91 24.64 317.09ZM297.48 303.15C301.17 313.9 306.38 324.05 311.14 334.35C326.47 326.73 341.5 318.53 356.51 310.29C337.02 306.66 317.14 305.56 297.48 303.15ZM87.04 303.64C87.32 309.85 87.93 316.04 88.29 322.24C90.47 318.17 92.64 314.09 94.89 310.06C92.29 307.89 89.68 305.74 87.04 303.64ZM774.08 304.6C774.92 306.48 775.77 308.37 776.63 310.26C777.14 308.13 777.66 306.01 778.18 303.89C776.8 304.12 775.44 304.35 774.08 304.6ZM46.3101 332.52C50.9201 334.23 55.51 335.99 60.21 337.45C61.93 326.77 63.35 316.01 63.73 305.2C56.84 313.49 50.0801 322.32 46.3101 332.52ZM67.5101 335.89C72.3801 334.21 77.32 332.53 81.68 329.7C83.11 329.03 82.94 327.37 83.04 326.06C83.15 319.26 83.07 312.46 82.8 305.67C77.72 315.75 72.2201 325.63 67.5101 335.89ZM781.35 308.03C782.45 313.19 783.82 318.55 787.31 322.67C793.83 328.09 801.12 332.48 808.29 336.99C803.61 327.48 798.16 318.38 792.97 309.16C791.31 310.13 789.64 311.07 787.98 312.04C785.77 310.7 783.57 309.34 781.35 308.03ZM367.21 310.83C368.76 316.94 370.12 323.08 371.45 329.24C374.49 325.69 377.38 322.01 380.2 318.28C385.51 320.87 390.86 324.17 397.04 323.87C411.66 324.41 425.6 319.19 439.13 314.3C415.15 313.22 391.16 312.5 367.21 310.83ZM343.97 321.95C334.57 327.02 324.75 331.51 316.14 337.9C326.2 343.86 337.25 347.9 347.69 353.14C349.49 349.66 350.71 345.46 354.31 343.37C358.99 340.35 363.82 337.57 368.22 334.14C366.57 326.91 364.99 319.66 363.58 312.38C356.7 314.82 350.46 318.68 343.97 321.95ZM131.74 314.69C129.61 321.9 127.19 329.04 125.56 336.39C124.69 339.89 125.91 343.28 127.9 346.06C135.09 356.24 142.31 366.43 150.12 376.16C144.32 355.58 138.52 334.97 131.74 314.69ZM136.92 314.44C138.79 323.34 141.88 331.93 144.4 340.66C148.66 354.24 152.01 368.14 157.38 381.35C160.97 367.7 166.32 354.42 168.33 340.4C157.79 331.83 148.18 322.09 136.92 314.44ZM90.4 332.82C91.63 338.5 94.51 343.71 97.45 348.69C97.63 337.67 97.05 326.66 96.61 315.67C94.39 321.24 90.41 326.6 90.4 332.82ZM101.06 316.77C101.13 329.31 101.8 341.84 102.82 354.35C108.08 350.3 112.83 345.67 117.54 341.01C113.07 332.29 107.55 324.12 101.06 316.77ZM758.51 325.3C762.08 330.63 766.28 335.49 770.47 340.36C771.73 334.35 773.09 328.37 774.19 322.33C768.91 323.01 763.71 324.26 758.51 325.3ZM22.5401 323.62C20.8101 332.09 19.14 340.58 17.88 349.14C21.99 346.02 26.0901 342.87 30.2001 339.76C28.0301 334.21 25.4601 328.82 22.5401 323.62ZM791.11 330.85C798.15 344.79 803.08 359.8 804.29 375.44C807.76 365.76 810.33 355.79 813.16 345.91C806.17 340.38 798.47 335.85 791.11 330.85ZM250.77 335.41C253.19 357.51 255.04 379.69 258.45 401.67C266.1 394.43 271.49 385.21 278 377C286.74 364.35 297.13 352.81 304.63 339.33C292.05 337.89 279.45 336.56 266.86 335.2C261.51 334.9 256.06 334.14 250.77 335.41ZM221.85 336.74C207.28 338.58 192.62 339.65 178.07 341.67C180.49 344.66 183.34 347.24 186.33 349.66C208.62 368.1 231.51 385.81 253.99 404.01C251.34 384.34 249.45 364.57 247.32 344.83C246.75 341.54 246.84 337.94 244.87 335.12C237.17 334.66 229.48 335.93 221.85 336.74ZM65.78 341.31C67.51 347.47 69.72 353.5 72.43 359.3C75.69 351.46 78.78 343.56 81.9 335.67C76.46 337.36 71.15 339.43 65.78 341.31ZM44.84 336.74C46.33 345.97 47.94 355.19 49.57 364.4C53.08 356.97 56.23 349.38 59.32 341.77C54.65 339.66 49.72 338.23 44.84 336.74ZM75.79 362.08C82.88 361.25 89.92 360.1 96.96 358.92C93.55 352.04 90.11 345.17 86.48 338.4C81.7 345.67 78.89 354 75.79 362.08ZM36.14 351.48C37.17 347.49 38.1 343.49 38.68 339.41C35.69 342.75 34.82 347.21 36.14 351.48ZM673 341.24C676.39 346.48 679.71 351.78 683.03 357.07C686.73 354.21 690.48 351.44 694.25 348.68C691.95 346.51 689.6 344.39 687.27 342.27C682.48 343.47 677.45 343.51 673 341.24ZM313.06 341.66C312.69 359.53 313.76 377.39 314.27 395.26C324.32 382.01 334.71 369.02 345.12 356.05C334.47 351.16 323.91 346.09 313.06 341.66ZM18.21 354.49C21.21 360.7 26.6501 365.19 31.7901 369.6C32.0601 361.24 31.92 352.88 31.83 344.53C27.23 347.77 22.74 351.15 18.21 354.49ZM159.67 387.87C189.1 393.89 218.53 400.05 248.15 405.04C223 384.72 197.59 364.72 172.49 344.34C167.54 358.64 163.71 373.31 159.67 387.87ZM259.79 408.9C269.78 418.26 279.3 428.1 289.41 437.34C294.65 424.34 302.7 412.79 309.54 400.65C310.43 382.27 308.39 363.88 306.66 345.59C291.12 366.76 275.7 388.01 259.79 408.9ZM52.8601 368.98C58.0701 367.39 63.2401 365.65 68.4001 363.91C67.2501 358.22 65.7101 352.47 62.5401 347.53C57.7301 353.81 55.9801 361.82 52.8601 368.98ZM103.08 362.01C107.89 377.8 112.63 393.61 117.8 409.29C119.81 388.69 119.05 367.95 118.68 347.3C112.54 351.09 107.85 356.69 103.08 362.01ZM41.78 348.55C40.22 356.83 36.67 365.37 38.53 373.89C41.15 372.78 43.72 371.55 46.21 370.19C44.79 362.96 43.53 355.7 41.78 348.55ZM123.31 348.42C122.5 372.05 123.69 395.72 122.27 419.34C132.25 410.68 141.69 401.34 150.6 391.59C154.46 388.35 149.2 384.19 147.86 381.17C139.85 370.12 132.06 358.89 123.31 348.42ZM685.44 360.43C693.42 375.13 702.84 389.02 711.54 403.3C712.39 392.97 714.17 382.66 714.21 372.29C709.88 364.49 703.24 358.24 697.21 351.74C693.37 354.75 689.37 357.56 685.44 360.43ZM808.8 382.51C812.96 383.55 817.05 384.82 821.15 386.09C819.62 376.25 817.66 366.5 815.63 356.76C812.91 365.21 810.31 373.74 808.8 382.51ZM17.0201 361.74C18.0501 375.28 18.96 388.82 20.32 402.33C23.57 395.52 27.25 388.82 29.46 381.58C31.64 372.46 22.0301 367.53 17.0201 361.74ZM75.15 367.35C78.97 380.13 81.49 393.5 87.25 405.6C90.92 391.75 94.64 377.88 97.25 363.78C89.83 364.59 82.45 365.79 75.15 367.35ZM100.43 369C96.82 383.99 92.68 398.87 89.69 414.01C98.41 417.09 107.36 419.43 116.27 421.86C111.77 404.02 106.03 386.52 100.43 369ZM51.8301 374.08C52.8501 382.23 54.3 390.33 56.21 398.33C60.43 388.9 64.2501 379.3 68.0401 369.69C62.6101 371.04 57.1901 372.45 51.8301 374.08ZM71.47 372.8C67.29 383.28 63.07 393.75 58.91 404.24C66.44 408.42 74.95 410.32 83.29 412.2C80.27 398.81 76.1 385.71 71.47 372.8ZM36.75 378.54C37.79 383.95 38.8101 389.36 39.9701 394.76C42.1801 389.08 43.6801 383.14 44.9901 377.2C42.2501 377.66 39.52 378.27 36.75 378.54ZM718.22 378.84C717.09 386.99 715.93 395.15 715.29 403.36C715.08 405.25 715.69 407.54 717.68 408.22C724.25 411.02 731.33 412.31 738.22 414.13C732.39 401.9 724.85 390.62 718.22 378.84ZM10.12 408.61C11.76 409.53 13.52 410.2 15.25 410.92C15.85 400.77 14.99 390.61 13.59 380.56C11.28 389.72 9.97005 399.15 10.12 408.61ZM42.66 404.98C45.37 404.94 48.07 404.89 50.78 404.85C51.41 404.17 52.05 403.5 52.69 402.84C51.25 396.5 49.9101 390.13 48.5601 383.77C46.3701 390.78 44.4 397.85 42.66 404.98ZM22.97 409.01C27.47 407.95 31.9901 406.92 36.4901 405.88C35.9501 398.7 34.69 391.6 32.94 384.62C29.54 392.72 25.97 400.75 22.97 409.01ZM809.26 386.59C809.3 395.32 812.45 403.62 815.11 411.83C817.67 404.95 820.02 397.98 821.43 390.76C817.41 389.28 813.29 387.94 809.26 386.59ZM160.81 392.95C168.68 410.73 176.21 428.7 184.87 446.12C206.66 434.23 228.42 422.28 250.14 410.26C220.39 404.38 190.86 397.21 160.81 392.95ZM124.89 424.64C142.97 431.56 160.84 439.08 179.19 445.26C171.74 427.95 164.15 410.69 155.88 393.77C145.66 404.18 134.07 413.23 124.89 424.64ZM796.68 424.19C801.71 423.04 806.68 421.75 811.69 420.51C809.85 411.76 808.06 402.98 805.44 394.43C801.28 403.92 799.7 414.31 796.68 424.19ZM817.71 419.91C819.32 419.93 822.54 419.98 824.15 420C823.88 414.4 823.57 408.82 823.22 403.24C821.34 408.78 819.22 414.25 817.71 419.91ZM43.01 409.34C41.74 413.26 43.15 417.41 43.57 421.34C47.36 441.58 49.75 462.07 53.71 482.28C54.04 457.73 54.64 433.14 53.23 408.62C50.67 408.8 45.56 409.16 43.01 409.34ZM21.84 414.1C23.18 422.99 25.39 431.7 27.63 440.4C31.15 430.9 33.39 420.98 35.73 411.15C31.08 412.02 26.47 413.1 21.84 414.1ZM59.66 411.06C63.05 420.86 66.87 430.51 70.44 440.25C75.37 433.06 79.7 425.45 83.41 417.56C75.49 415.4 67.67 412.88 59.66 411.06ZM717.67 413.11C724.09 424.26 731.03 435.1 737.69 446.11C739.63 437.66 741.99 429.31 743.54 420.77C735.11 417.59 726.47 415.02 717.67 413.11ZM9.12005 414.02C9.64005 419.44 10.04 424.86 10.48 430.31C12.06 424.89 13.56 419.48 15.09 414.06C13.6 414.05 10.61 414.03 9.12005 414.02ZM254.08 414.97C232.63 426.28 210.99 437.18 189.55 448.49C209.16 455.11 229.42 459.71 249.35 465.3C252.4 448.72 253.63 431.81 254.08 414.97ZM258.43 414.56C256.51 431.69 255.74 448.92 254.05 466.07C263.6 465.75 273.16 465.13 282.72 464.85C283.08 456.96 283.51 448.95 286.98 441.7C277.56 432.55 268.09 423.46 258.43 414.56ZM31.57 452.69C36.74 467.72 43.8701 482.03 50.7901 496.33C47.3601 470.36 43.1201 444.49 38.6301 418.7C36.2001 429.93 30.98 440.99 31.57 452.69ZM90.8 419.7C97.31 443.34 104.33 466.87 111.66 490.27C114 472.04 115.51 453.71 117.65 435.45C117.64 432.33 119.39 427.82 115.52 426.68C107.54 423.57 99.09 421.8 90.8 419.7ZM58.14 420.74C57.97 443.97 57.5901 467.22 58.5201 490.45C61.61 480.64 63.4 470.48 65.56 460.44C67.36 452.3 67.5701 443.46 64.43 435.63C62.49 430.59 60.33 425.66 58.14 420.74ZM73.05 445.86C83.82 461.03 94.87 476.04 106.63 490.47C100.38 467.43 93.21 444.65 86.52 421.74C81.67 429.57 77.45 437.77 73.05 445.86ZM17.51 423.65C15.08 430.14 13.71 436.99 12.61 443.82C16.47 444.91 20.31 446.04 24.16 447.18C23.11 440.07 21.87 432.98 19.83 426.09C19.52 424.93 18.35 424.35 17.51 423.65ZM816.99 424.69C817.93 434.9 818.5 445.14 819.52 455.35C821.23 445.19 822.84 435.02 824.16 424.81C821.76 424.73 819.38 424.67 816.99 424.69ZM796.64 428.79C797.37 435.7 798.34 442.61 800.29 449.3C804.13 441.67 807.28 433.71 810.24 425.71C805.67 426.57 801.14 427.64 796.64 428.79ZM746.27 427.78C744.54 435.89 740.59 443.93 741.82 452.43C744.09 458.44 748.04 463.68 751.17 469.27C753.51 468.55 755.85 467.81 758.2 467.06C754.73 453.82 750.92 440.65 746.27 427.78ZM122.17 428.68C119.56 451.49 116.93 474.34 115.95 497.29C136.68 481.96 157.74 466.99 177.5 450.42C172.93 447.86 168.32 445.34 163.38 443.57C149.61 438.68 136.21 432.79 122.17 428.68ZM784.56 450.99C787.19 444.04 789.26 436.89 790.77 429.61C787.17 436.17 783.07 443.14 784.56 450.99ZM812.78 432.57C809.11 440.59 804.64 448.43 802.26 456.94C804.8 463.38 811.15 467.53 815.74 472.55C815.4 459.19 814.64 445.82 812.78 432.57ZM788.65 458.15C790.89 457.7 793.14 457.25 795.4 456.85C795.23 450.99 794.52 445.16 793.53 439.39C790.93 445.35 789.36 451.7 788.65 458.15ZM756.11 443.72C757.7 450.08 759.58 456.37 761.89 462.51C762.38 459.74 764.2 456.57 762.05 454.01C760.24 450.47 758.27 447.04 756.11 443.72ZM11.9 448.57C13.57 458.25 15.32 467.96 18.4 477.32C20.99 469.26 23.03 461.04 25.09 452.84C20.81 451.08 16.41 449.6 11.9 448.57ZM773.13 463.18C776.05 462.16 778.97 461.12 781.88 460.06C781.59 457.4 780.98 454.53 780.87 451.93C778.55 455.85 775.84 459.52 773.13 463.18ZM70.48 453.47C68.02 473.2 62.8201 492.43 59.2701 511.96C75.8101 509.37 92.07 505.24 108.41 501.63C97.22 484.96 84.51 469.35 72.72 453.1C72.16 453.19 71.04 453.38 70.48 453.47ZM117.63 502.81C143.23 513.67 168.33 525.68 193.95 536.46C189.91 508.92 186.55 481.27 181.85 453.83C160.19 469.81 138.58 485.9 117.63 502.81ZM189.06 453.64C207.14 482.61 225.28 511.57 243.71 540.33C245.26 528.27 245.92 516.13 247.14 504.04C248.15 492.42 249.84 480.79 249.29 469.09C229.15 464.17 209.33 458.01 189.06 453.64ZM20.83 489.56C30.74 495.68 40.2001 502.54 50.3101 508.36C43.8901 491.38 36.01 474.97 28.46 458.47C24.63 468.44 22.43 479.01 20.83 489.56ZM188.06 460.8C190.7 484.05 194.6 507.14 197.6 530.35C198.18 533.52 198.11 538.79 202.34 539.5C214.98 541.78 227.74 543.62 240.54 544.83C237.84 539.27 234.43 534.11 231.15 528.89C216.73 506.23 202.51 483.45 188.06 460.8ZM795.8 460.46C793.94 461.22 790.23 462.74 788.37 463.49C788.02 466.2 787.9 468.92 788.04 471.68C790.05 469.48 791.94 467.17 793.82 464.86C794.03 466.74 794.46 470.48 794.67 472.36C795.07 468.39 795.48 464.42 795.8 460.46ZM766.19 462.39C764.49 462.89 765.2 465.75 766.98 465.1C768.73 464.67 767.9 461.74 766.19 462.39ZM801.17 464.46C801.35 472.76 801.82 481.05 802.31 489.34C806.71 485.98 811.09 482.57 815.44 479.13C810.94 473.99 806.48 468.78 801.17 464.46ZM765.23 470.48C765.16 476.45 768.47 481.78 771.36 486.79C774.83 479.96 778.02 472.97 780.33 465.66C775.26 467.14 770.1 468.43 765.23 470.48ZM256.95 470.13C263.16 481.58 269.92 492.74 277.6 503.27C279.01 491.82 281.01 480.46 282.23 468.99C273.81 469.4 265.38 469.82 256.95 470.13ZM777.89 483.12C780.31 481.03 782.69 478.9 785.12 476.81C784.62 474.8 784.12 472.78 783.66 470.77C781.72 474.88 779.75 478.97 777.89 483.12ZM752.92 472.89C753.87 474.65 754.81 476.41 755.74 478.2C756.03 476.62 756.35 475.07 756.67 473.51C755.41 473.3 754.16 473.09 752.92 472.89ZM253.72 475.81C251.36 490.94 250.9 506.3 249.42 521.53C249.01 529.21 247.77 536.91 248.47 544.62C249.25 547.57 253.74 546.33 255.51 547.6C265.92 549.32 276.4 550.67 286.85 552.16C284.49 548.14 281.92 544.2 280.13 539.9C276.66 530.81 277.44 520.8 276.24 511.31C269.79 498.86 261.87 487.2 253.72 475.81ZM759.97 493.19C762.1 492.33 764.23 491.49 766.39 490.69C765.18 485.3 762.98 480.21 760.55 475.27C757.49 480.9 758.78 487.2 759.97 493.19ZM796.7 483.51C796.05 487.17 795.48 490.9 795.27 494.63C797.52 491.3 798.19 487.29 796.7 483.51ZM815.93 484.79C811.25 488.14 806.9 491.9 802.86 495.98C805.45 500.73 808.05 505.47 810.71 510.18C812.57 501.74 814.31 493.28 815.93 484.79ZM24.99 497.7C31.93 511.27 39.49 524.55 47.67 537.41C49.9 530.48 52.1301 523.52 53.2401 516.31C43.7601 510.19 34.45 503.83 24.99 497.7ZM792.03 511.4C793.48 508.65 794.53 505.7 795.14 502.64C793.8 505.45 792.73 508.37 792.03 511.4ZM800.16 502.37C795.95 513.11 792.72 524.3 791.1 535.74C797.13 530.13 802.52 523.87 808.55 518.26C807.08 512.34 803.59 507.29 800.16 502.37ZM59.78 517.11C65.1 531.51 71.53 545.47 77.29 559.7C81.97 570.33 85.69 581.41 91.26 591.63C97.85 563.29 103.85 534.8 110.19 506.4C93.09 508.25 76.5 513.27 59.78 517.11ZM24.0201 506.64C28.7701 521.22 35.74 535.27 45.07 547.48C41.06 532.61 32.2901 519.47 24.0201 506.64ZM116.84 507.81C127.65 539.44 138.81 570.95 149.72 602.55C155.37 597.11 159.41 590.29 164.03 584.02C173.65 569.61 184.43 555.99 193.68 541.33C179.47 534.84 165.15 528.59 150.93 522.13C139.62 517.24 128.6 511.59 116.84 507.81ZM775.91 540.65C778.31 541.36 780.7 542.1 783.1 542.87C785.07 532.88 787.01 522.79 786.81 512.56C782.84 521.79 779.53 531.28 775.91 540.65ZM112.65 513.61C108.48 533.08 104.29 552.55 100 572C98.12 580.78 95.49 589.48 95.09 598.51C111.96 601.29 128.9 603.62 145.84 605.94C139.16 583.34 130.94 561.24 122.89 539.11C119.68 530.53 116.75 521.82 112.65 513.61ZM56.6101 525.61C54.0001 532.53 48.14 541.33 54.0201 547.92C63.1901 559.81 72.37 571.71 82.01 583.23C78.34 572.26 73.2701 561.82 68.8601 551.14C65.0001 542.54 61.9301 533.45 56.6101 525.61ZM789.69 544.32C793.95 545.52 798.18 546.85 802.28 548.55C804.32 541.38 806.14 534.12 807.03 526.7C800.97 532.29 795.21 538.2 789.69 544.32ZM200.38 544.88C203.79 564.67 207.32 584.45 211.27 604.15C222.2 586.52 232.7 568.56 241.65 549.85C229.41 546.84 216.78 545.81 204.41 543.47C203.07 543.28 200.16 542.78 200.38 544.88ZM774.12 544.71C768.6 554.32 764.41 565.05 766.03 576.39C771.84 566.98 776.63 557 781.32 547C778.92 546.2 776.52 545.44 774.12 544.71ZM194.21 548.01C181.56 567.78 166.7 586.09 154.68 606.27C172.32 608.75 190.23 609.34 208.02 609.38C203.93 589.13 200.13 568.82 196.38 548.51C195.84 548.38 194.75 548.13 194.21 548.01ZM786.87 548.75C784.03 558.14 781.15 567.61 779.91 577.38C787.3 569.31 793.39 560.15 800.72 552.03C796.1 550.92 791.47 549.81 786.87 548.75ZM250.56 551.1C271.52 581.74 291.4 613.11 312.9 643.39C311.94 621.75 310.35 600.12 308.17 578.58C304.93 573.12 300.25 568.63 296.38 563.63C293.74 561.05 291.81 557.09 287.89 556.3C275.53 554.02 263.1 551.98 250.56 551.1ZM51.78 553.88C61.2 571.38 74.88 588.27 73.62 609.39C78.58 606.24 83.39 602.86 88.28 599.6C76.51 584.07 65.26 567.98 51.78 553.88ZM213.9 611.11C231.4 619.49 248.92 627.95 267.02 634.96C259.32 608.59 253.24 581.76 244.65 555.65C233.27 573.46 223.86 592.47 213.9 611.11ZM251.95 561.83C257.93 585.68 264.13 609.5 270.77 633.17C271.54 636.59 274.51 638.66 277.78 639.36C288.4 642.17 298.88 645.56 309.6 647.99C307.02 642.63 303.37 637.86 300.09 632.93C283.9 609.33 268.62 585.11 251.95 561.83ZM783.96 580.42C786.97 578.8 790.25 577.26 792.36 574.46C794.08 571.71 794.89 568.53 795.81 565.46C791.63 570.26 787.71 575.28 783.96 580.42ZM756.27 578.95C757.35 581.07 758.99 582.82 760.51 584.63C760.92 579.23 761.56 573.88 761.75 568.48C759.73 571.85 757.51 575.2 756.27 578.95ZM766.64 588.62C775.39 586.01 775.28 575.95 776.77 568.5C772.24 574.53 768.84 581.41 766.64 588.62ZM313.22 583.9C314.97 605.01 315.95 626.18 317.71 647.3C331.75 639.11 343.7 627.86 356.96 618.54C339.48 611.31 326.54 596.77 313.22 583.9ZM729.87 627.2C740.04 615.32 749.88 603.12 758.95 590.38C757.59 588.7 754.86 585.33 753.5 583.65C745.14 597.88 736.67 612.15 729.87 627.2ZM773.82 599.41C777.11 595.33 780.26 591.11 783.03 586.66C777.76 589.15 774.24 593.63 773.82 599.41ZM758.95 611.22C763.11 604.98 766.67 598.34 769.25 591.29C760.56 593.59 761.12 604.18 758.95 611.22ZM442.98 602.83C429.28 604.71 416.02 608.86 402.65 612.29C416.16 618.75 429.82 624.92 443.05 631.95C445.1 632.8 447.6 634.25 449.71 632.72C460.41 625.45 470.15 616.88 480.4 609C468.34 605.27 455.75 600.97 442.98 602.83ZM728.91 636.08C735.78 633.4 748.12 634.47 750.4 625.39C752.78 617.54 755.08 609.66 756.92 601.67C746.91 612.56 738.47 624.79 728.91 636.08ZM96.62 603.07C104.26 615.81 112.26 628.33 120.05 640.98C123.45 647.25 131 649.06 136.79 652.37C140.14 638.54 144.06 624.82 146.47 610.78C130.11 606.85 113.35 604.65 96.62 603.07ZM80.18 610.19C84.24 612.84 87.73 616.24 91.88 618.74C91.38 613.94 90.66 609.17 89.88 604.42C86.6 606.26 83.41 608.24 80.18 610.19ZM771.42 613.47C773.5 610.83 775.18 607.89 776.33 604.73C774 607.19 771.96 610.04 771.42 613.47ZM156.62 611.18C172.07 624.19 187.63 637.13 203.67 649.43C205.76 637.83 207.63 626.14 207.85 614.35C190.86 612.24 173.7 611.96 156.62 611.18ZM481.65 613.59C472.17 621.09 462.55 628.43 453.45 636.4C461.51 640.06 469.88 642.96 478.18 646.02C483.83 635.12 488.89 623.91 493.6 612.57C489.64 612.2 484.88 610.43 481.65 613.59ZM499.44 610.91C494.65 622.39 488.25 633.21 484.46 645.1C493.39 643.4 502.23 641.32 511.07 639.16C513.66 638.34 516.98 638.08 518.86 635.77C519.5 629.31 517.41 622.53 513.71 617.27C509.57 614.05 504.3 612.69 499.44 610.91ZM95.73 612.76C97.79 623.18 102.43 635.57 113.26 639.62C108.66 629.93 102.29 621.19 95.73 612.76ZM385.16 615.7C388.41 631.45 391.17 647.3 395.05 662.91C410.77 654.51 426.55 646.21 442.22 637.7C428.96 629.63 415.32 622.03 400.99 616.02C396.02 613.38 390.4 615.19 385.16 615.7ZM150.06 615.58C146.43 628.43 143.71 641.52 140.98 654.59C151.81 659.55 162.63 665.29 170.51 674.48C173.02 677.84 177.04 679.39 181.16 679.75C171.98 657.83 160.92 636.71 150.06 615.58ZM365.51 618.8C361.79 619.83 359.01 622.77 355.93 624.91C344.86 633.64 333.17 641.58 322.47 650.77C344.67 655.48 366.89 660.44 389.41 663.41C388.23 647.64 384.11 632.34 380.91 616.92C375.77 617.46 370.6 617.95 365.51 618.8ZM216.68 617.78C219.42 623.66 222.38 629.51 226.36 634.67C227.92 636.64 230.6 637.04 232.95 637.1C241.47 637.3 249.98 636.95 258.49 636.57C244.77 629.86 230.85 623.48 216.68 617.78ZM157.11 618.51C166.27 638.05 175.74 657.45 185.25 676.83C185.93 676.89 187.29 677.01 187.97 677.08C193.03 669.59 198.53 662.24 201.59 653.65C186.56 642.2 172.66 629.27 157.11 618.51ZM212.09 619.66C210.24 629.14 209.03 638.78 209.03 648.46C213.63 645.12 218.06 641.56 222.47 637.98C219.25 631.74 215.81 625.61 212.09 619.66ZM753.28 633.48C754.84 634.36 756.43 635.24 758.01 636.13C759.01 631.98 760.14 627.89 761.01 623.73C758.36 626.92 755.65 630.07 753.28 633.48ZM724.33 643.3C721.92 650.79 720.09 658.51 718.91 666.31C727.41 657.16 735.1 647.3 743.05 637.67C736.82 639.22 729.78 639.8 724.33 643.3ZM750.72 638.66C749.49 642.77 748.64 647 747.95 651.24C750.96 647.64 753.81 643.89 756.14 639.81C754.32 639.4 752.56 638.88 750.72 638.66ZM229.72 641.12C237.76 655.47 245.77 669.84 253.71 684.25C258.56 670.06 262.43 655.54 266.34 641.07C254.13 640.95 241.92 640.95 229.72 641.12ZM450.2 640.63C445.98 654.61 441.96 668.73 439.93 683.21C451.75 672.02 463.92 661.17 475.07 649.29C466.88 646.13 458.8 642.56 450.2 640.63ZM485.69 649.98C498.9 658.37 510.85 668.79 524.6 676.3C521.29 669.69 515.67 664.48 512.47 657.88C512.82 652.37 515.34 647.26 516.8 642C506.43 644.69 496 647.1 485.69 649.98ZM209.6 654.32C221.72 664.11 234.17 673.53 247.13 682.17C240.52 668.58 232.75 655.58 225.56 642.3C219.89 645.82 214.81 650.17 209.6 654.32ZM398.31 666.48C409.38 674.29 421.35 680.91 433.71 686.45C437.53 671.77 442.02 657.24 445.14 642.39C428.67 648.54 413.86 658.39 398.31 666.48ZM723.67 668.92C729.34 666.39 735.14 663.97 740.24 660.39C743.05 654.74 743.95 648.38 745.61 642.36C737.6 650.6 730.78 659.91 723.67 668.92ZM270.96 643.74C266.87 658.23 261.75 672.47 258.72 687.24C272.72 683.44 286.51 678.9 300.11 673.88C290.68 663.57 281.28 653.2 270.96 643.74ZM277.81 644.03C286.04 652.56 294.46 660.91 302.18 669.92C302.81 669.9 304.07 669.85 304.7 669.82C307.4 664.33 310.51 659.04 312.69 653.31C301.12 649.99 289.56 646.64 277.81 644.03ZM696.04 687.39C702.94 682.91 710.92 677.76 713.35 669.38C714.94 662.85 716.32 656.27 717.75 649.71C709.49 661.65 702.75 674.54 696.04 687.39ZM439.58 690.47C456.32 695.72 473.24 700.39 490.15 705.08C486.77 687.6 482.1 670.41 478.67 652.94C465.84 665.66 451.62 676.96 439.58 690.47ZM317.97 654.86C314.29 660.14 310.84 665.72 309.45 672.09C332.14 670.61 354.72 667.84 377.33 665.48C357.49 662.27 337.81 658.1 317.97 654.86ZM483.74 654.81C486.98 671.55 489.97 688.5 495.42 704.69C504.37 697.28 513.73 690.22 521.62 681.65C521.98 679.63 519.5 678.83 518.31 677.67C506.71 670.16 495.39 662.22 483.74 654.81ZM189.88 683.03C203.69 690.83 217.75 698.2 231.96 705.26C223.44 689.63 214.6 674.16 205.46 658.88C200.09 666.81 194.92 674.88 189.88 683.03ZM212.92 662.84C221.73 677.54 230.15 692.48 238.79 707.28C243.2 702.52 248.15 697.92 251.16 692.11C248.35 688.15 243.91 685.77 240.2 682.8C231.07 676.19 222.28 669.13 212.92 662.84ZM314.51 676.44C332.14 684.87 349.91 693.08 367.98 700.5C375.01 690.18 382.03 679.84 388.4 669.1C363.75 671.3 339.08 673.43 314.51 676.44ZM393.51 669.52C387.35 679.81 380.13 689.47 374.55 700.12C392.53 697.06 410.45 693.58 428.26 689.65C416.81 682.73 405.51 675.47 393.51 669.52ZM717.84 677.88C715.08 680.31 717.39 684.01 717.98 686.88C723.84 681.99 728.17 675.62 732.99 669.78C727.86 672.28 722.28 674.22 717.84 677.88ZM262.62 691.73C277.48 697.8 292.68 702.99 307.88 708.16C306.05 698.1 304.37 688.01 302.76 677.92C289.34 682.41 275.8 686.57 262.62 691.73ZM312.03 680.81C323.47 697 334.12 713.81 346.55 729.28C352.6 720.98 359.44 713.19 364.67 704.32C347.28 696.14 329.78 688.16 312.03 680.81ZM177.1 682.7C177.67 689.93 177.84 697.16 178.66 704.38C179.12 708.83 183.86 710.72 186.71 713.54C186.22 705.14 185.51 696.74 184.36 688.42C183.86 684.9 179.65 684.28 177.1 682.7ZM711.82 682.53C702.8 692.71 693.66 702.79 684.62 712.95C692.45 708.18 699.78 702.63 707.06 697.07C709.53 694.99 712.71 693.1 713.85 689.88C713.85 687.29 712.63 684.92 711.82 682.53ZM308.21 684.76C309.55 691.81 310.15 699.04 312.13 705.97C316.46 716.41 328.46 719.36 337.13 725.2C328.37 711.13 318.45 697.77 308.21 684.76ZM530.01 686.19C530.51 693.63 531.67 701.01 533.08 708.33C536.41 706.52 539.7 704.61 543.04 702.79C539.71 696.59 537.24 688.82 530.01 686.19ZM192.09 689.73C196.9 700.11 202.15 710.28 207.25 720.53C215.99 718.42 224.31 714.91 232.54 711.35C219.55 703.28 205.74 696.6 192.09 689.73ZM524.63 689.41C516.86 703.42 509.98 717.93 503.09 732.4C509.85 727.84 516.06 722.53 522.31 717.31C524.41 714.75 528.85 713.04 528.64 709.16C528.11 702.46 526.81 695.77 524.63 689.41ZM497.02 710.01C494.15 717.05 497.22 725.09 497.4 732.44C505.08 719.28 511.87 705.6 518.2 691.75C510.58 697.11 503.18 703.02 497.02 710.01ZM438.01 693.94C439.77 704.8 441.22 715.73 443.82 726.44C451.42 724.13 458.65 720.82 466.1 718.08C472.43 715.69 478.99 713.53 484.52 709.51C469.5 703.06 453.54 698.97 438.01 693.94ZM374.53 704.93C379.85 710.14 385.23 715.38 391.42 719.59C393.95 721.06 396.33 718.61 398.31 717.34C407.84 710.18 417 702.53 426.16 694.9C408.89 697.86 391.57 700.79 374.53 704.93ZM686.96 703.48C689.82 700.92 692.15 697.82 693.95 694.44C690.99 696.91 688.66 700.03 686.96 703.48ZM243.24 710.77C251 714.17 259.14 716.52 267.2 719.09C263.52 711.08 259.23 703.4 255.29 695.53C250.73 700.14 246.33 705.03 243.24 710.77ZM260.83 695.86C264.77 704.33 269.91 712.15 274.34 720.36C284.25 718.28 293.91 715.21 303.27 711.36C289.26 705.83 275.09 700.71 260.83 695.86ZM399.43 722.57C412.48 724.69 425.64 726.78 438.89 726.79C437.51 716.32 435.84 705.87 433.16 695.65C421.62 704.24 410.39 713.25 399.43 722.57ZM190.09 696.72C190.88 703.81 190.15 711.43 192.82 718.17C195.8 719.75 199.21 720.13 202.44 721.03C198.69 712.75 194.38 704.73 190.09 696.72ZM661.65 728.09C671.5 723.23 678 713.78 685.1 705.71C676.39 712.16 669.94 721.13 661.65 728.09ZM537.73 711.66C539.8 712.15 541.87 712.66 543.94 713.17C543.91 711.54 543.84 708.28 543.81 706.64C541.74 708.27 539.71 709.93 537.73 711.66ZM352.51 729.88C364.13 727.83 375.69 725.44 387.15 722.62C381.45 717.38 376.13 711.3 369.13 707.81C362.31 714.02 357.69 722.33 352.51 729.88ZM480.09 717.08C470.02 721.31 459.62 724.72 449.8 729.54C464.2 732.95 478.61 736.36 493.12 739.3C492.79 730.78 492.34 722.3 491.48 713.83C487.57 714.47 483.74 715.54 480.09 717.08ZM213.59 724.28C225.31 729.16 237.04 734.08 249.01 738.32C245.31 730.33 241.31 722.47 236.97 714.81C228.96 717.4 221.15 720.57 213.59 724.28ZM529.34 717.34C521.42 723.1 514.02 729.56 506.86 736.23C516.73 733.95 526.49 731.12 536.23 728.31C541.07 727.34 541.61 721.61 543.69 717.98C539.1 717.69 533.39 713.16 529.34 717.34ZM242.94 715.86C246.72 723.66 250.74 731.35 255.28 738.76C260.41 734.42 264.97 729.45 269.46 724.47C260.74 721.24 251.89 718.34 242.94 715.86ZM277.62 725.2C280.16 731.71 283.01 738.08 286.14 744.33C292.39 735.03 298.68 725.76 304.4 716.13C295.39 718.91 286.47 721.94 277.62 725.2ZM311.33 715.59C303.96 725.85 295.54 735.66 290.07 747.12C293.38 751.35 298.75 753.16 303.35 755.65C310.18 759.29 319.96 758.31 324.63 751.71C329.81 744.94 336.61 739.7 342.31 733.41C331.92 727.57 322.16 720.62 311.33 715.59ZM183.54 721.89C186.69 728.76 192.34 733.56 199.28 736.37C195.58 730.04 190.83 724.22 183.54 721.89ZM196.68 723.61C199.67 728.55 203.05 733.26 207.1 737.4C206.4 734.02 206.12 730.45 204.64 727.32C202.82 724.82 199.39 724.56 196.68 723.61ZM399.53 727.16C408.25 738.52 417.73 749.3 427.73 759.56C431.66 750.46 435.2 741.2 438.39 731.82C425.58 729.22 412.51 728.44 399.53 727.16ZM352.39 735.34C359.88 742.2 367.96 748.37 375.72 754.93C380.06 745.84 384.6 736.85 389.01 727.8C376.68 729.47 364.18 731.17 352.39 735.34ZM260.09 741.82C267.11 743.66 274.26 744.89 281.43 745.98C279.1 739.9 276.37 733.99 273.57 728.13C268.23 731.77 263.74 736.5 260.09 741.82ZM379.04 756.83C393.45 757.99 407.76 760.22 422.2 761.12C413.26 749.83 403.69 739.05 393.92 728.49C388.93 737.92 383.86 747.3 379.04 756.83ZM210.73 730.8C211.18 734.44 211 738.25 212.3 741.74C216.77 747.64 224.48 748.54 231.16 750.04C224.37 743.59 217.65 737.09 210.73 730.8ZM219.41 732.02C225.64 739.54 233.51 745.48 240.52 752.25C243.7 749.55 246.62 746.55 249.51 743.56C239.56 739.51 229.78 734.9 219.41 732.02ZM446.84 733.08C450.9 741.23 455.62 749.02 460.03 756.98C463.59 763.25 466.49 770.01 471.4 775.41C478.74 765.1 485.52 754.37 491.54 743.24C476.75 739.38 461.68 736.71 446.84 733.08ZM502.38 743.32C507.8 747.07 513.39 750.59 518.99 754.08C524.21 746.63 530.25 739.82 536.13 732.88C524.78 735.93 512.98 738.05 502.38 743.32ZM638.96 752.51C646.41 746.6 653.1 739.8 659.13 732.46C650.07 735.77 641.13 742.72 638.96 752.51ZM431.44 762.87C442.6 767.59 453.7 772.55 465.25 776.27C457.99 762.59 450.45 749.05 442.63 735.69C438.42 744.53 434.28 753.47 431.44 762.87ZM658.55 741.07C661.02 739.61 663.29 737.82 665.26 735.73C662.8 737.21 660.55 739 658.55 741.07ZM317.01 762.46C327.94 768.65 338.77 775.01 349.61 781.35C347.73 767.07 346.3 752.74 344.54 738.45C335.36 746.45 327.1 755.55 317.01 762.46ZM195.7 739.65C197.33 742.87 199.9 745.57 203.55 746.39C201.3 743.74 198.61 741.52 195.7 739.65ZM349.13 739.69C351.05 752.87 352.06 766.17 354.12 779.33C360.44 772.56 366.89 765.79 372.13 758.13C365.8 750.55 356.99 745.47 349.13 739.69ZM496.32 745.52C488.87 755.96 481.85 766.73 475.9 778.1C491.58 776.98 507.23 775.4 522.89 773.91C520.76 769.13 518.47 764.42 517.01 759.4C516.58 757.56 514.97 756.43 513.51 755.45C507.94 751.86 502.16 748.61 496.32 745.52ZM246.78 751.88C246.97 752.54 247.35 753.86 247.54 754.52C255.42 755.99 263.32 757.41 271.21 758.87C265.93 754.82 261.07 749.89 254.95 747.17C252.11 748.51 249.47 750.26 246.78 751.88ZM263.67 747.21C268.75 750.94 274.03 754.44 279.48 757.63C280.22 755.26 280.99 752.92 281.74 750.57C275.72 749.4 269.71 748.23 263.67 747.21ZM204.21 749.87C207.92 755.35 214.34 757.7 220.56 758.97C216.26 754.16 211.01 749.72 204.21 749.87ZM627.34 757.05C633.15 758.85 633.83 753.28 635.31 749.82C632.61 752.18 629.94 754.57 627.34 757.05ZM221.73 752.82C225.77 756.32 229.85 759.84 234.43 762.63C235.36 760.69 236.34 758.79 237.33 756.89C232.36 754.77 227.1 753.43 221.73 752.82ZM283.6 760.3C290.52 761 297.47 760.77 304.42 760.84C299.06 757.9 293.66 754.97 287.92 752.88C285.49 754.63 284.77 757.7 283.6 760.3ZM241.27 758.91C240.18 761.08 239.09 763.25 238.06 765.45C242.92 766.6 247.78 767.87 252.7 768.81C249.34 765.03 245.19 762.06 241.27 758.91ZM249.36 759.47C253.91 763.32 258.18 768.16 264 769.92C268.06 768.86 271.06 765.54 274.61 763.52C266.35 761.36 257.83 760.4 249.36 759.47ZM594.95 779.63C606.45 775.74 616.45 768.66 627.08 762.97C626.89 762.18 626.52 760.59 626.34 759.8C614.22 763.2 605.09 772.72 594.95 779.63ZM384.34 761.27C389.8 766.3 395.36 771.59 402.01 775.01C410.28 777.63 415.84 768.79 422.31 765.37C409.66 763.89 397.03 762.21 384.34 761.27ZM214.98 761.86C217.16 764.84 219.07 768.05 221.52 770.83C224.41 770.78 226.46 768.4 228.65 766.85C224.11 765.12 219.58 763.4 214.98 761.86ZM285.62 765.27C292.31 774.79 299.14 784.23 306.6 793.17C308.35 783.53 310.14 773.87 312.83 764.45C303.76 764.88 294.69 765.03 285.62 765.27ZM374.75 763.71C368.27 770.56 362.13 777.72 355.96 784.84C364.95 789.93 373.93 795.06 383 800.02C380.3 787.91 377.8 775.74 374.75 763.71ZM379.98 764.56C381.91 775.88 384.45 787.09 387.23 798.24C392.22 792.53 398.07 787.09 400.67 779.78C393.75 774.73 387.26 769.09 379.98 764.56ZM268.26 774.34C278.5 779.99 288.43 786.23 298.99 791.29C292.84 782.58 286.45 774.04 279.69 765.8C275.72 768.42 272.01 771.41 268.26 774.34ZM428.73 766.91C422.98 770.36 417.6 774.36 412.42 778.6C428.06 779.21 443.73 779.17 459.38 778.65C449.25 774.5 438.88 771 428.73 766.91ZM315.71 767.95C314.05 777.33 312.64 786.76 311.22 796.19C323.04 792.65 334.72 788.65 346.42 784.74C336.87 777.96 326.33 772.8 315.71 767.95ZM226.07 774.59C232.8 778.19 239.43 781.96 246.39 785.1C242.56 779.45 238.13 774.24 233.26 769.48C230.85 771.16 228.47 772.88 226.07 774.59ZM241.74 771C248.81 779.49 254.61 791.9 267.11 792.73C276.48 794.78 286.1 795.18 295.65 795.5C278.98 785 261.79 773.34 241.74 771ZM472.98 783.03C472.82 789.76 472.66 796.51 472.86 803.26C490.09 796.66 506.73 788.65 523.84 781.74C523.9 780.49 523.97 779.24 524.05 778.01C507.02 779.67 489.95 780.88 472.98 783.03ZM406.68 783.75C400.33 787.17 397.06 794.36 392.58 799.72C412.49 794.2 432.61 789.43 452.38 783.39C437.17 783.15 421.81 781.98 406.68 783.75ZM581.45 787.87C584.52 786.34 587.59 784.75 590.46 782.85C587.07 783.74 584.01 785.5 581.45 787.87ZM399.69 802.73C413.93 805.2 428.36 807.43 442.83 807.76C450.98 801.61 457.03 793.08 463.48 785.24C442.2 791 420.73 796.11 399.69 802.73ZM334.05 793.08C323.89 796.28 313.01 799.58 305.47 807.59C312.42 810.44 320.19 809.9 327.53 810.7C344.94 811.73 363.52 811.31 379.21 802.74C370.72 798.3 362.78 792.72 353.78 789.33C347.03 788.86 340.47 791.31 334.05 793.08ZM451.55 806.85C457.05 806.43 462.54 805.78 468.01 805.09C467.97 799.6 467.91 794.13 467.82 788.68C461.99 794.35 456.47 800.35 451.55 806.85ZM488.6 802.1C499.75 801.52 510.28 796.86 518.24 789.03C508.25 793.1 498.01 796.79 488.6 802.1ZM573.14 790.9C571.48 790.79 571.13 793.53 573.03 793.27C574.69 793.4 575.01 790.6 573.14 790.9ZM510.74 800.18C516.36 801.16 519.95 797.68 521.5 792.95C517.83 795.24 514.27 797.69 510.74 800.18ZM276.63 798.37C283.17 801.35 289.75 804.4 296.69 806.33C300.15 807.6 302 803.54 303.77 801.37C294.77 799.97 285.7 799.11 276.63 798.37ZM508.76 805.33C510.11 806.27 511.47 807.2 512.84 808.13C513.57 806.69 514.31 805.26 515.06 803.84C512.95 804.34 510.86 804.84 508.76 805.33ZM396.77 807.14C404.45 811.87 411.94 816.99 420.05 820.98C421.64 821.84 423.61 822.22 425.26 821.26C429.84 818.99 433.51 815.32 437.39 812.08C423.96 809.65 410.31 808.72 396.77 807.14ZM476.47 809.23C479.18 811.22 481.53 814.03 484.83 815.1C488.14 812.99 490.54 809.79 493.29 807.07C487.65 807.53 482.05 808.3 476.47 809.23ZM500.27 807.58C496.49 809.28 494.15 812.94 491.38 815.86C497.28 815.12 503.13 814.01 509 813.02C508.98 812.26 508.94 810.74 508.92 809.98C506.04 809.12 503.2 808.11 500.27 807.58ZM358.73 814.7C366.96 817.55 375.41 819.81 383.99 821.29C383.95 816.75 383.93 812.18 383.94 807.68C375.23 808.79 366.95 811.76 358.73 814.7ZM387.93 807.94C388.07 812.56 388.2 817.17 388.36 821.83C396.37 823.33 404.55 822.75 412.62 822.07C404.8 816.66 396.35 812.3 387.93 807.94ZM465.49 811.66C457.23 813.77 449.57 817.73 441.7 820.96C454.01 820.4 466.26 819 478.5 817.62C475.42 813.71 471.24 808.76 465.49 811.66ZM442.37 814.13C441.31 815.31 443.37 816.65 444.22 815.45C445.31 814.28 443.19 812.92 442.37 814.13Z" fill="#2D7EFF" stroke="#2D7EFF" stroke-width="2"/>
</g>
<defs>
<clipPath id="clip0">
<rect width="832" height="416" fill="white"/>
</clipPath>
</defs>
</svg>
