<?xml version="1.0" standalone="no"?>
<!DOCTYPE svg PUBLIC "-//W3C//DTD SVG 20010904//EN"
 "http://www.w3.org/TR/2001/REC-SVG-20010904/DTD/svg10.dtd">
<svg version="1.0" xmlns="http://www.w3.org/2000/svg"
 width="1851.000000pt" height="1851.000000pt" viewBox="0 0 1851.000000 1851.000000"
 preserveAspectRatio="xMidYMid meet">
<metadata>
Created by potrace 1.14, written by Peter Selinger 2001-2017
</metadata>
<g transform="translate(0.000000,1851.000000) scale(0.100000,-0.100000)"
fill="#000000" stroke="none">
<path d="M8815 18494 c-918 -55 -1692 -200 -2485 -463 -1623 -540 -3090 -1540
-4186 -2853 -1601 -1918 -2348 -4387 -2088 -6903 186 -1803 921 -3543 2087
-4940 320 -383 698 -766 1082 -1095 1469 -1259 3278 -2022 5205 -2194 428 -39
1011 -45 1445 -16 804 53 1642 224 2415 493 1620 562 3076 1587 4159 2926
1100 1361 1794 3023 1985 4751 46 411 51 521 51 1050 0 528 -6 665 -50 1055
-200 1785 -929 3494 -2077 4867 -209 250 -330 381 -582 633 -1267 1264 -2854
2123 -4616 2499 -345 74 -805 140 -1195 171 -178 15 -998 28 -1150 19z m308
-44 c70 -61 138 -233 213 -535 24 -98 43 -183 41 -188 -1 -4 -25 25 -54 66
-135 194 -323 398 -462 501 -74 54 -226 132 -276 142 -52 9 -42 24 18 25 28 1
104 5 167 9 63 3 161 7 217 8 100 2 103 1 136 -28z m490 23 l136 -6 -44 -49
c-64 -71 -144 -243 -220 -469 -36 -108 -65 -204 -65 -213 0 -36 -18 -13 -25
32 -11 79 -64 311 -96 421 -31 108 -88 242 -116 273 -15 17 -10 18 139 18 85
0 216 -3 291 -7z m580 -40 c87 -9 154 -19 150 -23 -4 -4 -37 -14 -73 -24 -90
-23 -227 -94 -340 -174 -106 -75 -321 -285 -420 -409 -35 -45 -66 -80 -67 -79
-2 2 22 77 53 167 97 284 211 496 297 550 29 18 43 20 137 15 58 -4 176 -14
263 -23z m-1695 -9 c196 -40 420 -191 621 -418 90 -102 212 -258 207 -264 -2
-2 -48 32 -102 74 -429 336 -871 527 -1282 552 l-107 7 180 23 c380 48 377 48
483 26z m2216 -59 c89 -14 202 -34 251 -43 l90 -18 -165 -6 c-265 -11 -496
-69 -780 -197 -183 -83 -446 -240 -595 -355 l-40 -31 35 45 c59 77 331 345
411 404 198 147 389 223 563 225 38 1 142 -10 230 -24z m-2613 -44 c330 -57
673 -212 1019 -461 157 -113 167 -126 50 -66 -438 227 -912 379 -1354 433
-139 16 -487 23 -616 11 -53 -5 -66 -4 -45 2 52 17 427 91 505 100 106 12 308
3 441 -19z m3164 -66 c100 -17 475 -112 484 -121 3 -4 -10 -4 -29 -1 -195 33
-578 39 -804 12 -430 -51 -831 -166 -1281 -369 -100 -45 -77 -24 89 81 363
231 727 369 1086 413 103 12 346 4 455 -15z m-3425 -60 c353 -47 718 -152
1070 -308 135 -59 330 -156 285 -141 -11 3 -92 31 -180 60 -870 294 -1743 369
-2529 218 -70 -14 -130 -23 -132 -21 -7 6 260 96 376 126 136 36 316 67 455
80 138 13 516 5 655 -14z m3559 -117 l156 -63 -310 -6 c-310 -6 -378 -12 -660
-50 l-150 -20 -67 29 -67 28 127 32 c264 64 515 101 766 110 39 2 79 -10 205
-60z m-3458 -47 c186 -25 399 -62 399 -70 0 -3 -24 -18 -53 -33 l-52 -27 -135
14 c-196 20 -457 35 -628 35 -120 0 -152 3 -162 15 -7 8 -10 21 -7 28 12 31
100 42 453 55 23 1 106 -7 185 -17z m4196 -17 c109 -36 264 -96 259 -101 -5
-5 -328 101 -371 122 l-30 15 35 -6 c19 -3 67 -17 107 -30z m-933 -86 l89 -53
-269 -6 c-148 -3 -305 -9 -349 -13 -78 -6 -81 -6 -138 27 l-58 34 163 22 c178
24 320 37 414 40 56 1 66 -3 148 -51z m-918 21 c67 -25 63 -29 -56 -53 -122
-26 -336 -80 -474 -120 -66 -20 -121 -34 -123 -32 -10 10 543 224 584 225 7 1
38 -9 69 -20z m-1689 -44 c160 -41 447 -128 495 -151 24 -11 26 -14 8 -10
-278 62 -598 123 -760 146 -11 2 86 49 102 50 9 0 79 -16 155 -35z m-562 -9
c83 -9 154 -16 159 -16 5 0 -8 -16 -30 -36 l-39 -35 -175 5 c-170 5 -603 -7
-758 -20 -92 -8 -88 3 11 36 56 18 72 28 90 57 l22 35 285 -6 c157 -3 353 -12
435 -20z m2416 -25 l50 -28 -113 -12 c-162 -17 -438 -58 -585 -86 -70 -14
-128 -23 -130 -21 -3 3 191 58 327 92 98 25 363 82 383 83 10 1 40 -12 68 -28z
m-1881 -46 c210 -35 503 -95 496 -102 -2 -2 -68 5 -147 16 -165 23 -421 48
-593 59 l-118 7 43 31 c50 37 21 38 319 -11z m2617 5 c-31 -6 -75 -30 -55 -30
25 0 349 -51 367 -58 19 -7 20 -10 9 -20 -10 -8 -40 -9 -108 -2 -150 15 -441
30 -574 30 l-122 0 -39 40 -38 39 69 4 c134 6 529 5 491 -3z m-611 -45 l39
-34 -105 -1 c-138 0 -437 -17 -629 -35 -85 -8 -156 -13 -158 -11 -11 11 668
110 788 115 16 1 40 -12 65 -34z m-2488 -2 c-32 -67 -38 -71 -133 -77 -160
-10 -300 -15 -282 -10 9 3 17 12 17 19 0 8 10 15 22 17 12 2 23 8 25 15 5 14
-19 22 -99 32 -45 6 12 9 195 10 142 0 257 -2 255 -6z m-653 -8 c-5 -2 -22 -6
-36 -9 -14 -3 -35 -14 -47 -24 -17 -15 -45 -20 -129 -26 -60 -3 -139 -13 -176
-21 -58 -12 -75 -21 -109 -56 -45 -47 -81 -58 -183 -59 l-60 0 40 21 c22 12
53 30 68 41 35 25 109 48 152 48 21 0 47 12 77 34 43 33 49 34 169 44 125 9
252 13 234 7z m953 -5 c162 -12 558 -55 637 -70 l50 -9 -50 4 c-27 3 -238 7
-467 11 -230 4 -418 9 -418 11 0 3 9 18 21 34 24 34 19 33 227 19z m2275 -77
c15 -20 25 -38 24 -39 -1 0 -63 3 -138 8 -74 4 -277 12 -450 16 l-314 7 170
14 c175 14 431 27 591 29 l91 2 26 -37z m322 27 c219 -10 440 -26 503 -36 23
-3 32 -10 32 -23 0 -23 -19 -31 -73 -31 -46 0 -73 -12 -63 -28 3 -6 2 -13 -3
-16 -5 -3 -96 5 -202 18 -107 14 -230 27 -274 31 -123 10 -128 11 -153 55 -21
36 -21 40 -5 40 10 0 117 -5 238 -10z m-1965 -49 c77 -7 71 -8 -75 -9 -228 -3
-687 -30 -807 -48 -42 -6 -47 2 -28 52 l11 27 407 -7 c224 -5 445 -11 492 -15z
m-1002 -31 c-6 -22 -14 -40 -19 -40 -4 0 -79 -9 -166 -20 -324 -42 -724 -116
-1032 -190 -90 -22 -168 -40 -174 -40 -6 0 13 15 43 34 89 56 109 75 122 117
6 22 19 44 27 48 23 12 99 22 82 12 -26 -16 -3 -39 62 -60 l64 -22 174 30 c96
16 195 32 222 36 60 8 63 30 5 38 -23 3 -45 13 -50 21 -5 9 -16 16 -25 16 -9
0 -14 2 -12 5 12 11 467 51 610 54 l77 1 -10 -40z m1735 33 c-13 -2 -33 -2
-45 0 -13 2 -3 4 22 4 25 0 35 -2 23 -4z m737 -34 c113 -6 206 -12 208 -14 2
-2 7 -20 12 -40 l8 -37 -36 5 c-189 30 -717 85 -846 89 l-61 1 60 7 c73 8 375
3 655 -11z m-1510 -10 c-184 -19 -504 -62 -674 -90 -98 -17 -184 -28 -191 -25
-16 6 -25 67 -11 71 44 15 639 52 826 52 134 0 135 0 50 -8z m763 -6 c-7 -2
-19 -2 -25 0 -7 3 -2 5 12 5 14 0 19 -2 13 -5z m-636 -9 c-3 -3 -12 -4 -19 -1
-8 3 -5 6 6 6 11 1 17 -2 13 -5z m868 -4 c267 -23 704 -77 725 -90 8 -5 10
-18 5 -40 -6 -28 -10 -31 -34 -27 -14 2 -139 28 -277 56 -138 28 -332 64 -430
80 -190 31 -186 37 11 21z m966 -5 c303 -32 445 -54 503 -80 91 -40 87 -75
-11 -75 -29 0 -53 -5 -55 -11 -3 -8 -69 2 -208 29 -113 22 -242 46 -287 53
-73 11 -83 15 -83 33 0 12 -3 31 -6 44 -4 12 -4 22 -1 22 3 0 69 -7 148 -15z
m-2021 -25 c-80 -15 -194 -39 -254 -52 -85 -20 -118 -23 -155 -16 -56 11 -197
-5 -300 -33 -47 -12 -78 -16 -84 -10 -11 11 29 20 283 61 209 34 555 78 615
78 22 0 -25 -12 -105 -28z m534 -309 c20 -135 34 -246 33 -248 -2 -2 -51 0
-109 3 l-105 7 18 86 c11 47 40 176 66 286 45 186 48 197 55 155 3 -25 22
-155 42 -289z m303 323 c-3 -3 -12 -4 -19 -1 -8 3 -5 6 6 6 11 1 17 -2 13 -5z
m-724 -28 c-44 -13 -112 -26 -150 -29 -59 -5 -50 -2 62 22 158 35 199 38 88 7z
m927 -1 c288 -47 687 -129 704 -145 14 -14 -33 -72 -53 -65 -62 24 -387 117
-596 171 -137 35 -241 64 -230 64 12 0 90 -11 175 -25z m-692 -87 c-80 -115
-92 -131 -83 -105 9 21 -6 22 -46 1 -64 -33 -43 -5 74 98 67 60 123 108 124
108 2 0 -30 -46 -69 -102z m232 -4 c34 -59 100 -180 146 -269 97 -188 100
-175 -43 -175 l-81 0 -6 38 c-22 143 -78 480 -82 495 -11 37 7 13 66 -89z
m-1487 59 c4 -21 3 -40 -1 -44 -4 -3 -70 -18 -147 -34 -197 -39 -531 -124
-772 -195 -194 -58 -208 -61 -274 -54 -39 4 -67 10 -62 14 4 4 40 15 78 25 39
10 86 28 105 41 20 13 99 39 183 60 81 20 147 41 147 45 0 20 -58 31 -140 26
l-85 -5 55 13 c157 39 784 142 871 144 34 1 37 -1 42 -36z m1027 -12 c-63 -26
-117 -43 -119 -38 -5 14 24 29 119 58 128 40 128 34 0 -20z m235 40 c-15 -13
-188 -163 -207 -179 -14 -12 -21 -12 -33 -2 -8 7 -22 10 -30 6 -8 -3 -15 -1
-15 3 0 5 55 42 123 82 67 39 131 78 142 85 23 15 33 18 20 5z m28 -261 c-36
-146 -66 -266 -67 -267 -3 -3 -190 18 -194 22 -5 4 142 245 236 388 46 70 86
127 88 125 1 -2 -27 -123 -63 -268z m620 224 c204 -51 409 -109 570 -161 l108
-34 -42 -33 -41 -33 -92 39 c-129 57 -291 120 -511 199 -104 37 -186 68 -182
68 4 1 90 -20 190 -45z m-723 32 c0 -7 -163 -98 -184 -102 -120 -23 -114 -18
51 52 137 57 133 56 133 50z m450 -153 c164 -168 301 -326 293 -334 -12 -10
-167 -29 -175 -21 -4 4 -43 75 -87 158 -44 83 -105 193 -136 245 -32 52 -60
98 -63 103 -17 29 68 -47 168 -151z m45 52 c131 -88 467 -336 462 -341 -2 -2
-39 -12 -83 -22 l-81 -19 -59 70 c-32 39 -136 148 -231 243 -94 96 -164 170
-155 165 9 -5 76 -48 147 -96z m195 -40 c215 -107 443 -236 433 -245 -10 -9
-102 -40 -120 -40 -7 0 -68 42 -136 94 -67 52 -201 147 -297 211 -96 65 -177
120 -180 122 -9 8 153 -68 300 -142z m-15 72 c144 -50 427 -161 568 -221 21
-9 36 -20 33 -24 -3 -5 -27 -18 -54 -31 l-49 -23 -129 73 c-71 40 -232 124
-359 186 -126 63 -219 112 -205 108 14 -4 102 -34 195 -68z m-1072 36 c-7 -2
-19 -2 -25 0 -7 3 -2 5 12 5 14 0 19 -2 13 -5z m2077 -28 c51 -8 88 -24 56
-25 -13 0 -17 -5 -14 -18 4 -15 0 -17 -24 -14 -19 3 -33 -1 -41 -12 -17 -23
-80 -11 -73 13 3 9 8 29 12 44 4 19 11 26 23 23 9 -2 36 -8 61 -11z m-2832
-60 c16 -34 15 -35 -7 -35 -10 0 -42 -15 -70 -34 -31 -21 -101 -50 -181 -76
-71 -22 -137 -43 -145 -46 -11 -5 -13 -2 -8 11 8 23 -21 45 -58 45 -47 0 -41
17 11 36 28 10 50 23 50 29 0 7 60 25 143 44 78 17 160 35 182 40 63 14 71 13
83 -14z m3242 -20 c36 -8 75 -17 88 -20 26 -6 30 -25 5 -25 -24 1 -192 58
-173 59 8 0 44 -6 80 -14z m-4263 -11 c-3 -3 -12 -4 -19 -1 -8 3 -5 6 6 6 11
1 17 -2 13 -5z m3789 -15 c43 -11 62 -39 27 -39 -32 0 7 -26 97 -64 89 -38
160 -80 160 -95 0 -5 -57 13 -127 39 -71 26 -158 57 -195 69 l-67 22 27 39
c15 22 28 39 30 40 2 0 23 -5 48 -11z m-2195 -15 c-76 -32 -172 -57 -183 -46
-14 14 21 29 112 47 89 18 113 18 71 -1z m-1004 -10 c-3 -3 -12 -4 -19 -1 -8
3 -5 6 6 6 11 1 17 -2 13 -5z m718 -28 c-56 -21 -62 -22 -82 -7 -12 9 -23 19
-23 24 0 4 37 7 83 6 l82 0 -60 -23z m-273 -16 c2 -7 14 -7 36 1 28 10 35 8
63 -15 27 -23 29 -27 12 -33 -68 -25 -388 -165 -540 -237 -225 -105 -530 -266
-699 -367 l-31 -19 -58 45 c-64 49 -66 41 18 74 45 18 236 130 325 192 48 34
112 67 150 80 97 32 121 46 139 84 16 34 22 36 272 119 249 83 306 97 313 76z
m2783 -76 c221 -79 240 -88 243 -109 2 -11 10 -27 18 -36 8 -8 14 -22 14 -30
0 -26 20 -37 226 -125 112 -47 224 -101 251 -120 26 -19 44 -34 40 -34 -5 0
-118 45 -252 100 -240 99 -272 110 -260 90 4 -6 -82 33 -192 88 -109 54 -228
111 -265 128 -37 16 -67 31 -67 34 0 3 19 19 42 37 48 36 37 37 202 -23z
m-2609 5 c8 -14 -16 -34 -201 -168 -207 -149 -503 -345 -576 -382 -82 -42
-133 -49 -148 -20 -7 12 -22 21 -35 21 -22 0 -102 -51 -181 -116 l-40 -33 -59
37 -59 36 23 15 c96 65 584 322 790 417 150 69 462 203 472 204 4 0 10 -5 14
-11z m-986 -18 c0 -5 -11 -16 -25 -25 -13 -9 -28 -30 -33 -48 -7 -29 -23 -39
-202 -129 -107 -54 -226 -110 -263 -125 -67 -27 -68 -27 -87 -8 -20 20 -90
133 -90 145 0 12 174 67 232 73 80 8 216 53 227 75 10 19 81 45 81 30 0 -13
39 -10 80 6 41 16 80 19 80 6z m3577 -145 c139 -69 253 -127 253 -130 0 -3 -7
-3 -15 0 -24 10 -85 -5 -85 -21 0 -38 432 -255 509 -255 21 0 91 -70 91 -92 0
-11 -10 -20 -26 -24 -38 -10 -159 13 -229 42 -33 15 -81 32 -106 39 -27 8 -90
46 -155 92 -126 92 -366 252 -504 338 -52 32 -99 62 -104 66 -6 6 93 66 113
69 2 0 118 -56 258 -124z m-4897 98 c70 -14 99 -24 72 -24 -41 0 -650 -234
-882 -339 -73 -33 -136 -59 -138 -56 -3 3 0 37 7 76 12 67 15 72 63 110 108
85 298 180 427 214 136 35 335 44 451 19z m433 -19 c-72 -32 -70 -49 5 -40
l57 6 11 -41 c6 -22 9 -42 5 -44 -3 -2 -73 -30 -156 -61 -82 -32 -237 -95
-343 -141 -212 -91 -340 -127 -326 -89 21 53 -245 -57 -543 -224 l-72 -41 -10
53 c-5 28 -12 78 -15 110 l-6 58 87 41 c248 114 593 253 868 347 149 52 149
52 182 34 30 -16 36 -16 110 1 43 11 100 27 128 37 71 25 79 22 18 -6z m2674
-50 c-24 -40 -38 -55 -54 -55 -13 0 -23 4 -23 9 0 7 98 100 107 101 1 0 -12
-25 -30 -55z m-2427 4 c12 -6 10 -9 -10 -17 -65 -24 -67 -24 -78 8 l-11 30 42
-6 c23 -4 49 -10 57 -15z m3909 -55 c156 -98 391 -258 538 -367 98 -73 137
-108 161 -147 37 -59 37 -60 17 -60 -9 0 -20 -11 -26 -24 -11 -24 -12 -24 -52
-10 -23 8 -48 14 -57 12 -8 -1 -26 4 -40 12 -14 8 -53 14 -92 15 l-67 0 -188
177 c-103 97 -242 222 -308 278 -66 57 -126 108 -133 115 -11 10 0 17 55 37
37 14 72 26 77 27 5 0 56 -29 115 -65z m-203 -80 c213 -182 509 -466 687 -660
45 -49 46 -51 35 -86 -10 -34 -15 -37 -74 -52 -77 -19 -74 -19 -74 -1 0 27
-38 92 -70 118 -31 27 -58 36 -160 57 -30 6 -80 23 -110 37 -50 25 -64 40
-155 166 -55 77 -157 211 -227 298 -70 88 -126 159 -125 160 13 6 147 37 163
38 12 1 56 -29 110 -75z m-3841 7 c3 -10 23 -46 44 -79 l39 -59 -102 -5 c-79
-4 -113 -10 -149 -27 -54 -26 -140 -116 -192 -200 -36 -58 -42 -63 -214 -160
l-177 -100 -115 -6 -114 -6 38 34 c21 19 82 58 135 86 173 91 261 170 262 233
0 13 7 32 15 42 18 24 20 56 3 56 -25 1 475 208 504 209 9 1 19 -8 23 -18z
m2493 11 c-1 -4 -48 -90 -102 -192 -98 -183 -194 -377 -296 -603 l-53 -117
-36 6 c-63 10 -304 55 -354 66 l-48 10 17 26 c71 111 205 278 269 335 41 38
94 96 117 130 23 33 73 94 112 135 71 73 71 73 127 75 67 3 125 36 167 97 20
30 34 39 55 40 16 0 27 -3 25 -8z m1155 -139 c185 -238 317 -428 301 -431 -8
-2 -52 4 -97 13 -45 10 -131 18 -190 19 l-108 1 -60 139 c-33 77 -86 194 -118
261 l-58 122 76 10 c147 19 124 31 254 -134z m-982 121 l86 -6 -44 -212 c-24
-116 -65 -328 -92 -471 l-47 -259 -55 2 c-74 4 -412 42 -418 48 -12 12 388
849 430 900 7 9 22 13 33 10 12 -3 60 -8 107 -12z m686 -154 c119 -265 163
-378 148 -384 -7 -2 -23 -31 -35 -63 -34 -92 -89 -212 -133 -290 l-41 -73 -61
0 -61 0 -13 123 c-14 139 -88 746 -97 794 l-6 32 68 4 c38 2 91 3 118 3 l49
-1 64 -145z m-309 -52 c13 -106 33 -303 47 -438 14 -135 27 -263 29 -284 l4
-39 -249 5 c-137 3 -252 7 -254 10 -7 7 110 674 156 887 l11 51 117 0 118 0
21 -192z m2011 8 c128 -58 242 -113 252 -122 22 -19 25 -44 7 -44 -21 0 -107
43 -223 112 -60 36 -152 86 -202 112 -51 25 -93 49 -93 52 0 3 6 4 13 1 6 -3
117 -53 246 -111z m-6645 -73 c-25 -19 -28 -9 -8 29 18 32 19 32 22 9 2 -16
-3 -30 -14 -38z m1861 -45 c42 -34 72 -64 68 -68 -4 -4 -66 -42 -138 -86 -280
-170 -687 -453 -965 -672 l-115 -91 -35 26 c-76 57 -167 134 -210 178 l-45 46
25 21 c14 11 115 74 225 138 262 155 277 166 273 192 -2 17 18 32 119 90 112
63 124 68 139 54 8 -9 20 -16 25 -16 25 0 88 35 153 84 72 55 111 77 156 91
24 7 24 7 8 -12 -20 -21 -24 -63 -8 -63 18 0 81 36 165 94 44 30 81 55 83 55
1 1 36 -27 77 -61z m-1831 -174 l7 -32 -58 21 c-33 11 -86 20 -123 21 -61 1
-74 -4 -205 -66 -147 -71 -210 -92 -200 -66 6 15 146 94 396 223 l164 84 6
-77 c3 -42 9 -91 13 -108z m2006 49 c33 -21 59 -41 58 -44 -2 -4 -44 -38 -93
-76 -149 -115 -335 -332 -335 -390 0 -13 -7 -40 -15 -60 -8 -19 -15 -43 -15
-52 0 -10 -46 -60 -102 -112 -57 -51 -159 -148 -228 -216 l-125 -121 -130 70
c-71 39 -168 96 -215 126 l-84 54 29 25 c201 163 530 404 760 558 146 97 425
275 433 275 1 0 29 -17 62 -37z m1292 -81 c15 -6 3 -26 -68 -122 -48 -63 -92
-124 -100 -134 -13 -19 -15 -20 -86 -3 -118 28 -318 89 -318 98 0 4 28 32 63
63 73 64 91 69 292 90 150 16 193 17 217 8z m2862 -68 c8 -22 7 -36 -4 -54 -8
-12 -15 -9 -45 20 -25 24 -31 36 -22 42 21 13 65 9 71 -8z m-3606 -115 c34
-11 62 -23 62 -25 0 -2 -57 -64 -127 -137 -223 -231 -435 -475 -662 -759 -51
-65 -97 -118 -102 -118 -26 0 -391 145 -483 192 l-39 20 79 80 c44 44 151 146
239 228 153 142 166 151 296 218 133 67 260 141 363 209 106 70 203 108 287
112 14 1 53 -8 87 -20z m432 -134 c41 -10 77 -19 79 -21 2 -1 -62 -101 -142
-221 -161 -243 -289 -449 -426 -688 -51 -88 -96 -163 -99 -166 -11 -11 -464
114 -588 161 l-25 10 56 72 c212 273 510 619 707 824 l118 122 122 -38 c68
-20 157 -45 198 -55z m2871 16 l23 -18 -48 -7 c-26 -4 -50 -6 -52 -4 -7 8 27
48 40 48 8 0 24 -8 37 -19z m263 -69 c12 -80 18 -210 10 -225 -8 -13 -34 1
-156 84 -82 55 -148 103 -148 107 0 5 191 54 281 71 4 0 9 -16 13 -37z m-2824
-15 c74 -15 167 -32 206 -39 l72 -13 -73 -175 c-98 -237 -230 -580 -301 -780
-32 -91 -58 -166 -59 -167 -5 -10 -644 110 -672 126 -21 11 271 509 524 895
108 163 127 187 146 183 12 -2 83 -16 157 -30z m595 -88 c121 -12 221 -23 223
-24 2 -1 -15 -114 -38 -251 -22 -137 -62 -393 -89 -569 -42 -283 -50 -320 -66
-324 -27 -5 -278 17 -514 45 -112 13 -205 24 -207 24 -9 0 197 565 304 835
122 305 118 298 145 292 12 -3 121 -16 242 -28z m568 -35 c221 -6 227 -7 232
-28 11 -49 5 -244 -11 -314 -3 -16 -21 -31 -57 -48 -61 -28 -97 -31 -97 -8 0
9 -6 14 -12 12 -48 -16 -78 -412 -35 -456 21 -20 33 -9 52 47 23 71 34 76 82
43 85 -58 141 -108 146 -127 3 -11 9 -80 13 -152 l7 -133 -134 0 c-129 0 -641
18 -645 23 -4 5 126 914 157 1094 11 61 11 61 42 57 18 -2 134 -6 260 -10z
m324 -48 l-32 -55 -7 37 c-13 69 -12 72 32 72 l39 0 -32 -54z m-4248 -151 l77
-60 -90 -75 c-225 -187 -454 -397 -730 -671 l-300 -297 -100 76 c-106 82 -319
280 -314 293 4 11 193 178 359 317 l147 122 68 0 c101 0 334 69 471 139 96 49
201 228 121 208 -15 -4 -4 12 37 53 l58 59 60 -52 c32 -29 93 -79 136 -112z
m4895 112 c18 -24 21 -45 24 -143 2 -63 1 -123 -3 -132 -5 -11 -24 31 -56 127
-47 137 -49 145 -32 163 22 24 41 20 67 -15z m-15 -377 c102 -320 194 -640
187 -647 -6 -6 -281 -32 -349 -33 l-29 0 27 31 c49 58 75 124 75 186 0 31 10
96 21 144 l22 87 -36 32 c-48 42 -75 119 -87 244 -5 55 -12 112 -15 126 -4 19
5 42 36 90 l42 65 19 -55 c10 -30 50 -152 87 -270z m-6090 238 c25 -12 75 -51
112 -87 65 -66 125 -139 118 -144 -34 -23 -379 -315 -496 -420 -22 -19 -22
-19 -47 9 -32 37 -32 45 0 83 36 44 27 57 -47 64 -34 4 -68 12 -75 18 -14 12
-19 103 -8 134 10 25 55 43 149 60 48 8 92 15 96 15 20 0 49 42 49 69 0 34
-39 85 -81 107 -16 8 -29 20 -29 28 0 7 26 32 58 55 53 38 60 41 106 36 26 -3
69 -16 95 -27z m1634 -246 c67 -36 124 -67 126 -69 2 -1 -36 -44 -85 -95 -246
-256 -489 -533 -731 -835 -85 -106 -157 -193 -160 -193 -29 0 -496 272 -562
326 -2 2 68 79 155 170 192 202 513 505 763 721 l184 160 94 -60 c52 -32 149
-88 216 -125z m4632 -98 c12 -3 65 10 124 30 113 39 120 39 165 -15 37 -44 33
-82 -17 -136 -27 -30 -64 -29 -109 2 -42 29 -78 33 -78 9 0 -9 24 -62 54 -118
65 -122 80 -167 61 -193 -12 -16 -17 -16 -62 -4 -26 8 -59 15 -73 16 -20 1
-27 10 -39 51 -8 27 -45 144 -81 260 l-66 212 49 -54 c27 -30 59 -57 72 -60z
m-4225 -94 c63 -26 156 -62 205 -80 50 -18 93 -36 98 -40 4 -3 -23 -47 -60
-96 -194 -257 -464 -654 -648 -951 -48 -79 -91 -143 -97 -143 -17 0 -311 112
-452 172 -155 66 -236 105 -236 114 0 9 197 257 336 424 163 196 256 302 456
517 l169 182 57 -25 c31 -14 109 -47 172 -74z m-2852 81 c9 -5 26 -12 37 -16
18 -6 14 -11 -30 -48 -214 -180 -412 -363 -662 -613 -161 -161 -295 -289 -297
-286 -2 4 -16 44 -30 90 -33 104 -56 245 -56 338 l0 72 172 161 c94 88 179
161 188 161 10 0 34 12 55 26 52 35 85 46 112 39 19 -4 23 -12 23 -46 0 -70
11 -67 167 44 31 22 75 38 160 58 136 32 138 32 161 20z m182 -40 c20 -6 13
-9 -32 -12 -44 -3 -54 -1 -46 9 11 13 39 14 78 3z m-1060 -217 c-36 -36 -87
-84 -113 -106 l-48 -41 6 39 c13 79 15 84 58 105 41 22 147 68 157 69 2 0 -25
-30 -60 -66z m1085 20 c21 -26 74 -43 136 -44 31 0 42 -7 74 -45 l36 -45 -273
-273 c-271 -269 -444 -455 -648 -696 -58 -68 -114 -135 -125 -148 l-20 -23
-52 64 c-77 94 -166 229 -217 330 l-46 89 79 86 c98 107 484 488 608 599 59
54 94 79 99 71 10 -17 92 -5 209 30 55 16 104 30 110 30 5 1 18 -10 30 -25z
m3081 -5 c74 -25 373 -110 474 -134 41 -10 77 -19 78 -21 2 -1 -43 -89 -99
-196 -118 -221 -332 -657 -439 -894 l-72 -162 -172 44 c-346 90 -639 183 -632
201 11 27 244 396 369 583 169 254 416 599 428 600 3 0 32 -9 65 -21z m3072
-109 c48 -35 57 -50 67 -110 4 -25 13 -60 21 -77 l13 -33 -68 0 -68 0 -9 125
c-5 69 -6 125 -3 125 3 0 24 -13 47 -30z m-7456 -59 l-5 -64 -116 -121 c-234
-245 -518 -587 -705 -849 -50 -70 -92 -123 -94 -118 -7 20 29 194 59 288 17
54 48 134 69 178 69 141 482 665 547 692 18 7 71 17 118 22 47 5 95 15 107 24
13 8 23 14 24 13 1 0 -1 -30 -4 -65z m5183 -41 c129 -27 486 -90 507 -90 3 0
-13 -60 -38 -132 -75 -224 -201 -627 -279 -895 -40 -140 -76 -257 -79 -260
-13 -13 -869 147 -889 166 -12 11 156 383 340 753 211 427 251 500 272 494 9
-3 84 -19 166 -36z m-3497 -61 c93 -89 272 -238 313 -259 19 -11 18 -14 -26
-63 -360 -407 -648 -765 -898 -1115 l-38 -53 -32 23 c-144 102 -477 398 -477
424 0 15 218 273 405 479 166 182 634 655 649 655 5 0 51 -41 104 -91z m-1672
-263 c8 -49 28 -129 44 -179 l29 -89 -122 -142 c-244 -282 -466 -570 -666
-866 -62 -91 -116 -166 -121 -168 -9 -3 -48 116 -75 228 -8 36 -20 124 -26
196 l-12 131 117 162 c206 287 426 555 670 817 l131 142 8 -72 c4 -39 15 -111
23 -160z m5980 194 c98 -11 252 -26 342 -34 89 -7 165 -16 168 -19 3 -3 -15
-157 -40 -344 -25 -186 -48 -368 -52 -404 -4 -37 -9 -71 -13 -76 -8 -11 -119
-45 -146 -45 -11 1 -55 4 -97 8 -93 8 -128 -7 -128 -56 0 -25 11 -38 62 -78
34 -26 73 -57 87 -70 l26 -22 -135 6 c-116 6 -137 4 -148 -9 -17 -20 -5 -44
55 -111 24 -27 49 -58 54 -69 10 -18 7 -18 -43 -13 -29 4 -132 15 -228 26
-269 29 -368 42 -379 50 -16 9 126 504 301 1055 82 257 73 238 106 232 16 -3
109 -15 208 -27z m2231 -78 c5 -36 2 -45 -26 -73 -31 -30 -34 -31 -84 -23 -94
15 -143 10 -182 -20 -20 -15 -46 -43 -58 -62 -32 -49 -73 -47 -125 5 -65 66
-180 82 -261 36 -24 -14 -45 -24 -46 -23 -1 2 -5 40 -8 85 l-6 81 127 6 c243
12 497 27 572 35 41 4 79 4 83 0 5 -4 11 -25 14 -47z m-1201 11 l341 -6 7 -60
c3 -33 6 -75 6 -94 0 -30 -2 -33 -19 -23 -12 6 -21 23 -23 42 -6 67 -73 37
-132 -60 -49 -81 -63 -90 -158 -113 -112 -26 -145 -47 -153 -96 -19 -119 -46
-159 -101 -148 -51 9 -93 -21 -181 -132 -46 -58 -88 -100 -107 -108 -17 -7
-32 -13 -33 -12 -1 2 49 422 93 776 l7 53 56 -6 c31 -3 210 -9 397 -13z
m-4882 -222 c87 -59 306 -186 417 -241 43 -22 79 -42 79 -45 0 -3 -44 -64 -98
-137 -216 -293 -463 -661 -647 -966 l-110 -181 -150 78 c-171 89 -284 155
-438 254 l-107 69 47 67 c167 235 419 562 587 761 118 140 338 390 343 390 2
0 37 -22 77 -49z m-1990 -308 c49 -101 125 -217 209 -321 l67 -82 -88 -113
c-248 -315 -502 -685 -711 -1031 l-69 -116 -36 40 c-92 102 -221 296 -287 433
l-38 80 134 199 c151 222 288 409 444 603 129 160 321 385 330 385 4 0 24 -35
45 -77z m2916 -163 c80 -31 186 -72 235 -90 50 -18 93 -35 97 -39 3 -3 -16
-44 -44 -91 -131 -219 -334 -596 -490 -907 -94 -189 -174 -343 -179 -343 -42
0 -839 327 -839 344 0 17 264 441 423 681 136 204 224 330 344 492 l82 112
113 -50 c62 -28 178 -77 258 -109z m-3965 86 c-25 -60 -62 -217 -75 -316 l-12
-95 -92 -145 c-186 -291 -296 -487 -441 -780 -56 -113 -106 -216 -113 -230
-18 -41 -14 -6 13 107 66 278 150 481 360 874 126 237 355 619 370 619 2 0 -2
-15 -10 -34z m4545 -292 c139 -44 476 -137 588 -164 42 -10 53 -16 49 -29 -3
-9 -48 -117 -100 -241 -135 -322 -300 -753 -432 -1127 -9 -25 -985 248 -985
276 0 16 389 787 480 951 184 331 221 392 239 385 9 -3 81 -27 161 -51z
m-3061 -197 c109 -106 281 -250 363 -304 l36 -25 -152 -231 c-221 -335 -471
-757 -591 -997 -53 -106 -51 -104 -94 -72 -185 137 -387 313 -502 437 l-47 50
99 164 c176 289 363 567 573 846 119 160 187 245 193 245 3 0 58 -51 122 -113z
m-1539 -295 c11 -53 33 -136 49 -184 l30 -88 -78 -128 c-188 -309 -408 -730
-547 -1049 -27 -62 -52 -113 -55 -113 -7 0 -50 134 -73 225 -24 99 -36 198
-36 299 0 89 2 101 40 186 119 270 340 680 532 987 l103 164 7 -100 c4 -56 17
-145 28 -199z m5523 253 c148 -31 459 -87 633 -115 l72 -11 -25 -87 c-13 -48
-71 -274 -129 -502 -58 -228 -113 -438 -123 -465 -11 -28 -22 -77 -26 -110 -8
-75 -45 -247 -55 -258 -13 -15 -618 93 -1067 190 -13 3 -23 9 -23 14 0 11 164
469 233 649 73 193 165 423 239 598 57 135 62 143 84 138 13 -4 97 -22 187
-41z m1037 -169 c113 -14 269 -30 347 -37 l142 -13 10 -43 c7 -25 17 -43 26
-43 26 0 27 -20 1 -65 -18 -31 -26 -58 -26 -92 0 -38 -8 -62 -33 -103 -28 -47
-37 -55 -60 -52 -15 1 -56 -11 -92 -29 -77 -37 -100 -33 -186 32 -104 78 -232
138 -324 153 -37 6 -44 3 -103 -45 -35 -28 -65 -49 -67 -47 -4 4 87 370 100
406 3 9 14 12 32 8 16 -3 120 -17 233 -30z m2226 -174 c96 -47 199 -113 279
-178 33 -26 111 -88 173 -136 l114 -88 64 0 c118 0 151 -36 183 -198 21 -103
39 -151 71 -187 13 -14 30 -91 61 -267 23 -136 41 -250 38 -252 -22 -23 -1193
-86 -1213 -66 -5 5 -15 141 -23 302 -7 161 -17 367 -22 458 -5 91 -8 166 -6
168 1 1 41 -18 88 -42 47 -24 103 -47 123 -51 21 -3 63 -19 93 -35 64 -32 208
-137 244 -178 96 -107 125 -135 154 -147 18 -8 33 -20 33 -28 0 -39 -110 -202
-158 -233 -19 -13 -44 -17 -87 -16 -108 3 -121 -14 -51 -72 54 -44 91 -59 126
-51 36 8 113 89 203 214 69 96 74 107 66 135 -12 40 -11 127 0 145 7 12 18 8
57 -17 26 -18 53 -32 60 -32 18 0 43 28 50 57 6 21 1 30 -27 51 -19 15 -68 58
-109 97 -98 93 -147 125 -250 165 -139 53 -159 67 -297 203 -113 112 -136 139
-157 191 -23 58 -30 86 -27 114 2 23 67 12 147 -26z m-6466 -189 c58 -33 164
-91 235 -128 72 -38 131 -69 132 -70 2 -1 -43 -82 -98 -181 -175 -310 -477
-915 -583 -1167 l-16 -39 -147 78 c-261 137 -643 367 -643 387 0 13 210 400
308 567 121 207 245 404 372 595 l110 164 112 -73 c62 -40 160 -100 218 -133z
m5932 -3 l77 0 46 -76 46 -76 14 -317 c30 -695 29 -658 8 -669 -10 -6 -57 -20
-103 -32 -82 -22 -96 -22 -430 -16 -336 6 -679 21 -688 30 -7 7 48 608 57 632
7 15 24 23 70 31 34 7 75 21 91 33 16 12 59 66 96 120 68 102 158 196 199 206
13 3 60 -6 106 -21 46 -14 113 -29 149 -32 57 -5 69 -2 93 17 26 21 27 25 27
114 0 51 3 96 7 99 4 4 18 -4 33 -18 23 -22 35 -25 102 -25z m-7983 -344 c28
-42 83 -115 121 -163 39 -47 70 -90 70 -94 0 -5 -34 -69 -75 -143 -167 -303
-371 -729 -510 -1071 -32 -77 -58 -141 -60 -143 -5 -6 -131 160 -206 272 -80
118 -179 302 -179 331 0 23 123 296 236 525 129 262 279 532 412 744 l24 39
58 -111 c32 -61 82 -145 109 -186z m2592 69 c157 -72 395 -169 576 -235 92
-34 169 -63 171 -64 1 -2 -25 -63 -59 -137 -144 -316 -288 -669 -429 -1049
-84 -225 -89 -235 -113 -233 -79 5 -947 362 -947 389 0 3 41 96 91 207 182
402 579 1167 606 1167 3 0 50 -20 104 -45z m7674 -65 c3 -5 13 -51 21 -102 18
-111 35 -172 82 -296 39 -103 41 -105 179 -182 l83 -47 -197 -32 c-109 -17
-257 -39 -330 -49 -128 -18 -131 -18 -122 1 7 12 7 41 0 87 -6 38 -11 72 -11
77 0 4 20 19 45 32 42 22 65 54 50 69 -3 4 -45 36 -92 72 -48 36 -96 77 -107
92 -21 30 -36 143 -20 158 5 5 33 -2 64 -15 93 -41 111 -36 199 49 42 40 85
78 96 84 25 14 52 15 60 2z m-11229 -37 c-4 -9 -20 -81 -36 -161 -22 -112 -45
-184 -101 -325 -40 -100 -103 -272 -140 -382 -78 -229 -87 -204 -15 45 75 258
278 840 293 840 3 0 2 -8 -1 -17z m17164 -78 c0 -5 -5 -3 -10 5 -5 8 -10 20
-10 25 0 6 5 3 10 -5 5 -8 10 -19 10 -25z m103 -280 c169 -480 304 -1003 392
-1523 42 -243 44 -301 5 -107 -84 418 -194 810 -330 1177 -54 146 -60 169 -60
240 0 79 -19 178 -65 328 -54 180 -26 124 58 -115z m-12695 75 c184 -59 600
-175 717 -200 33 -7 64 -16 68 -20 5 -4 -34 -138 -86 -296 -104 -316 -181
-572 -281 -933 -36 -128 -67 -235 -69 -238 -3 -2 -87 17 -188 42 -412 103
-929 260 -929 282 0 19 132 378 235 638 130 330 327 785 340 785 4 0 91 -27
193 -60z m3284 -223 l-26 -267 -49 0 c-51 0 -260 16 -337 26 l-45 6 160 81
c190 98 209 109 235 152 16 26 20 48 18 104 -1 65 1 74 32 120 19 28 35 49 36
48 1 -1 -10 -122 -24 -270z m-6565 145 c116 -115 238 -221 383 -332 l119 -90
-76 -158 c-169 -352 -308 -681 -443 -1045 l-77 -209 -109 83 c-158 119 -272
218 -412 354 l-124 120 61 153 c83 207 210 491 316 702 85 170 265 510 271
510 1 0 42 -40 91 -88z m9334 -139 c50 -72 108 -148 130 -168 24 -22 35 -37
27 -39 -17 -6 -231 -27 -233 -24 -1 2 -16 86 -34 188 -18 102 -35 196 -38 210
l-6 25 32 -30 c18 -16 73 -89 122 -162z m-10681 -38 c14 -135 38 -251 80 -373
l31 -93 -84 -227 c-130 -348 -224 -655 -297 -967 -18 -77 -36 -144 -40 -148
-4 -5 -17 20 -29 55 -18 56 -20 78 -15 193 3 73 12 147 20 168 19 51 18 89 -7
177 -24 86 -28 237 -9 340 14 78 123 439 180 600 62 173 154 404 156 394 2 -5
8 -58 14 -119z m12663 36 c50 -55 62 -82 86 -193 53 -245 45 -475 -21 -630
-25 -57 -85 -101 -161 -118 -76 -16 -446 -61 -475 -58 -24 3 -28 13 -79 208
-29 113 -81 303 -114 423 -36 127 -58 222 -53 227 5 5 50 14 99 21 50 6 119
20 155 30 36 10 108 28 160 39 52 11 154 35 225 54 72 19 133 34 136 35 4 1
23 -17 42 -38z m-6903 -75 c216 -45 590 -113 753 -137 48 -7 87 -17 87 -23 0
-21 -101 -501 -109 -515 -4 -8 -43 -27 -88 -43 -76 -28 -82 -33 -107 -79 -15
-26 -53 -75 -86 -107 -64 -64 -74 -89 -85 -210 l-7 -72 -211 -127 c-116 -69
-239 -146 -275 -170 l-64 -44 -217 45 c-285 61 -293 63 -287 84 3 9 37 132 75
272 86 316 169 595 267 899 98 304 90 284 117 278 12 -3 119 -26 237 -51z
m1025 -75 l50 -21 -50 6 c-76 9 -84 12 -78 35 4 13 9 16 17 10 6 -5 34 -19 61
-30z m5020 -169 c25 -89 77 -284 114 -431 l69 -269 -137 -26 c-75 -14 -152
-28 -173 -32 -23 -4 -57 1 -95 12 -44 14 -92 18 -198 19 l-140 0 -82 43 c-46
23 -107 47 -135 53 -85 17 -108 29 -128 69 -18 35 -37 50 -62 50 -7 0 -8 -38
-3 -115 l7 -115 -38 -80 c-20 -44 -39 -78 -41 -76 -2 2 -19 107 -38 232 -19
126 -50 328 -69 448 -20 121 -35 220 -34 221 2 1 91 12 198 24 232 26 553 72
774 110 89 15 162 27 163 27 1 -1 22 -75 48 -164z m-880 128 c-3 -5 -11 -10
-16 -10 -6 0 -7 5 -4 10 3 6 11 10 16 10 6 0 7 -4 4 -10z m5607 -79 c39 -35
70 -54 104 -62 73 -18 100 -34 180 -110 77 -73 103 -83 128 -48 15 21 16 20
41 -36 53 -120 160 -408 230 -620 514 -1545 559 -3177 129 -4679 -85 -297
-232 -700 -325 -893 -65 -137 -210 -340 -354 -498 l-45 -50 21 55 c166 431
252 704 338 1075 285 1231 262 2608 -65 3920 -149 597 -347 1159 -610 1731
-41 89 -74 166 -74 172 0 6 22 26 48 46 40 29 59 36 108 39 32 2 66 4 75 5 8
1 40 -20 71 -47z m-9597 1 c143 -19 232 -35 254 -46 25 -13 47 -16 90 -12 31
3 67 6 81 6 26 0 377 -26 466 -36 l50 -5 -4 -62 c-5 -71 -18 -87 -92 -112 -47
-16 -68 -13 -142 19 -24 10 -66 16 -116 16 -52 0 -96 7 -135 20 -64 23 -80 21
-174 -21 -127 -58 -171 -47 -214 56 -12 30 -28 55 -34 55 -5 0 -58 -48 -115
-106 -116 -117 -260 -234 -260 -210 0 7 20 113 45 235 25 121 45 223 45 226 0
8 24 6 255 -23z m10094 -85 c36 -54 61 -107 82 -175 43 -135 70 -212 79 -217
19 -12 111 288 125 407 4 29 9 60 12 68 13 38 190 -503 277 -847 173 -686 246
-1315 233 -2023 -12 -644 -87 -1244 -237 -1890 -38 -163 -149 -571 -169 -620
-18 -44 -12 -12 24 130 88 351 152 740 196 1205 17 180 23 855 10 1080 -55
942 -262 1833 -631 2728 -48 116 -70 181 -70 209 0 49 0 49 69 -55z m-15018
-35 c143 -94 313 -193 514 -301 128 -68 170 -95 169 -108 -1 -10 -32 -90 -68
-178 -37 -88 -101 -250 -143 -360 -79 -208 -293 -844 -293 -869 0 -8 -5 -18
-10 -21 -22 -13 -484 242 -728 401 l-142 93 14 38 c8 21 44 117 79 213 81 219
146 380 234 585 67 152 263 575 268 575 1 0 49 -31 106 -68z m8529 62 c0 -4
12 -79 26 -168 14 -88 47 -309 73 -491 l48 -330 -71 -8 c-191 -22 -211 -18
-397 89 -54 30 -157 76 -230 103 -74 26 -144 53 -156 59 -30 17 -102 15 -154
-3 -24 -9 -56 -13 -71 -10 -28 6 -74 52 -117 116 -32 47 -76 76 -128 85 l-41
6 -6 127 c-3 69 -8 169 -11 221 -7 146 -30 135 320 149 275 11 608 32 795 50
120 12 120 12 120 5z m4053 -69 c107 -97 344 -197 505 -212 34 -3 62 -10 62
-14 0 -8 -71 -48 -254 -143 l-90 -47 -25 33 c-14 18 -59 69 -99 113 -54 58
-86 104 -117 170 -42 87 -64 155 -50 155 4 0 34 -25 68 -55z m-6375 19 c117
-4 211 -9 209 -11 -2 -2 -80 -10 -173 -19 -93 -8 -198 -19 -234 -24 -35 -5
-65 -8 -67 -7 -1 2 0 20 4 41 5 32 9 37 27 32 12 -3 117 -8 234 -12z m7996
-51 c91 -183 272 -619 370 -895 l56 -157 -58 -54 c-115 -110 -448 -375 -458
-365 -8 10 18 418 35 533 23 158 25 213 10 268 -13 47 -40 65 -120 78 -163 26
-310 142 -420 331 -63 108 -84 105 -101 -16 l-11 -76 -43 97 c-24 54 -43 103
-43 108 0 6 27 27 61 48 l61 38 37 -36 c29 -28 48 -37 95 -45 32 -5 74 -17 92
-25 31 -15 36 -15 79 4 91 41 206 116 262 173 31 32 58 58 59 58 2 0 18 -30
37 -67z m-16038 -215 c76 -150 193 -327 303 -457 l55 -65 -22 -60 c-151 -419
-280 -864 -367 -1268 l-17 -76 -32 36 c-51 58 -148 189 -210 284 -63 97 -166
294 -166 318 0 24 96 407 140 560 68 234 263 800 277 800 1 0 19 -32 39 -72z
m15266 -133 c69 -162 81 -213 56 -258 -24 -45 -181 -247 -192 -247 -6 0 -64
29 -129 64 l-119 63 -99 134 -99 133 138 71 c144 75 330 180 347 196 5 5 14 8
19 6 5 -2 40 -75 78 -162z m-12157 -260 c127 -50 280 -109 340 -130 61 -21
114 -41 118 -45 4 -4 -1 -32 -13 -62 -77 -206 -267 -841 -360 -1203 -28 -110
-53 -206 -55 -212 -5 -14 -128 27 -380 125 -242 94 -654 272 -678 292 -26 22
306 969 495 1411 l19 46 142 -65 c78 -35 246 -106 372 -157z m-2561 -323 c132
-129 319 -286 447 -377 l55 -39 -49 -151 c-106 -326 -215 -743 -286 -1090 -21
-104 -43 -189 -47 -188 -5 2 -47 31 -94 65 -237 175 -570 483 -570 528 0 43
100 458 165 685 35 121 96 315 135 430 39 116 77 225 83 243 5 17 13 32 15 32
3 0 69 -62 146 -138z m3533 -13 c111 -33 314 -88 450 -123 184 -47 247 -67
245 -77 -25 -96 -157 -655 -178 -749 -15 -69 -35 -136 -44 -150 -11 -16 -24
-71 -34 -155 -17 -124 -47 -307 -68 -407 l-9 -46 -252 64 c-293 75 -563 153
-802 231 -93 30 -171 56 -172 57 -3 3 108 437 152 591 52 185 84 292 187 616
l91 287 116 -39 c64 -22 207 -67 318 -100z m8651 21 c7 0 30 11 51 25 77 51
137 42 223 -34 l42 -37 -124 -33 c-195 -52 -175 -55 -250 35 -109 130 -107
125 -27 83 40 -21 78 -39 85 -39z m460 -190 l71 -55 40 -145 c59 -207 183
-709 179 -722 -2 -5 -154 196 -337 447 -183 251 -330 459 -326 463 12 12 280
79 291 73 6 -3 42 -31 82 -61z m3377 -274 c99 -328 190 -712 249 -1043 l23
-132 -61 -59 c-129 -123 -373 -314 -559 -437 -48 -32 -89 -56 -90 -54 -2 2
-13 69 -26 149 -47 304 -131 699 -213 1009 l-41 154 33 101 33 101 106 75
c125 88 263 198 381 302 60 53 87 72 92 63 4 -7 37 -110 73 -229z m-11478 188
c101 -21 183 -41 182 -44 0 -3 -33 -31 -72 -63 -40 -33 -130 -111 -201 -175
-114 -104 -139 -132 -217 -251 -49 -74 -89 -132 -89 -129 0 19 152 658 165
697 3 8 14 11 28 9 12 -3 104 -23 204 -44z m12490 -41 c-3 -10 -5 -4 -5 12 0
17 2 24 5 18 2 -7 2 -21 0 -30z m-4059 -208 c169 -245 251 -335 605 -664 l188
-174 -123 -44 c-68 -24 -181 -62 -251 -84 l-128 -41 -95 87 c-52 48 -96 97
-99 109 -80 358 -133 580 -201 831 -19 72 -37 139 -40 150 -8 32 59 -47 144
-170z m4069 143 c-3 -7 -5 -2 -5 12 0 14 2 19 5 13 2 -7 2 -19 0 -25z m-16349
-173 c160 -104 402 -244 587 -337 77 -39 142 -72 144 -74 2 -2 -17 -84 -44
-181 -102 -380 -193 -781 -251 -1118 -15 -88 -29 -161 -30 -163 -4 -7 -290
142 -451 234 -125 72 -434 265 -460 288 -6 5 83 418 133 621 71 286 226 815
239 815 2 0 62 -38 133 -85z m-1667 -236 c78 -152 224 -367 326 -480 l33 -37
-30 -178 c-35 -202 -76 -512 -86 -653 -8 -110 -19 -101 -28 24 -10 117 -18
158 -68 348 -25 97 -46 157 -54 157 -54 0 -126 302 -138 575 -4 77 -9 186 -12
243 -3 56 -3 102 0 102 3 0 29 -46 57 -101z m3042 -458 c122 -48 284 -110 360
-137 121 -43 138 -51 134 -69 -2 -11 -30 -135 -60 -276 -68 -309 -135 -667
-178 -964 -18 -121 -34 -222 -36 -224 -5 -7 -279 94 -528 194 -293 117 -575
245 -582 262 -17 44 141 793 268 1269 l51 191 175 -78 c96 -44 274 -119 396
-168z m13257 17 c97 -398 205 -988 184 -1007 -11 -11 -306 -181 -314 -181 -3
0 -3 95 -1 211 1 116 -1 215 -6 220 -11 11 -183 -151 -183 -173 0 -23 -65 -60
-228 -128 -75 -31 -161 -69 -189 -83 l-53 -27 -5 22 c-2 13 -14 79 -25 148
-11 69 -22 137 -25 151 -5 23 4 34 88 102 91 73 99 83 202 248 60 94 173 256
253 358 151 194 218 290 228 329 3 12 10 22 14 22 5 0 32 -96 60 -212z
m-15746 -276 c144 -140 298 -272 449 -381 l83 -61 -23 -142 c-54 -330 -98
-766 -109 -1073 -4 -99 -10 -188 -13 -197 -5 -14 -23 -4 -106 59 -168 127
-324 262 -454 392 l-124 125 6 180 c8 208 29 461 58 691 23 189 80 545 87 545
3 0 69 -62 146 -138z m14306 31 c72 -82 99 -129 136 -235 41 -117 57 -150 126
-267 59 -98 82 -111 188 -111 38 0 70 -1 70 -2 0 -2 13 -82 29 -178 16 -96 28
-176 27 -176 -13 -12 -241 -144 -247 -144 -14 0 -35 41 -78 150 -65 167 -101
220 -247 365 -72 72 -168 157 -214 190 -217 156 -361 267 -355 273 5 6 498
178 517 181 3 1 25 -20 48 -46z m-10645 -167 c160 -46 368 -102 463 -126 145
-36 172 -45 172 -61 0 -16 -9 -65 -25 -146 -3 -11 -49 -81 -102 -155 -97 -132
-98 -134 -96 -188 0 -30 8 -75 17 -99 20 -55 21 -186 1 -221 -8 -14 -14 -46
-15 -72 0 -41 5 -52 35 -82 19 -19 33 -41 30 -48 -2 -7 -16 -116 -30 -243 -15
-126 -28 -231 -29 -232 -2 -3 -329 79 -491 123 -306 83 -770 227 -789 245 -25
23 129 904 245 1400 l20 86 152 -49 c84 -27 283 -87 442 -132z m13084 -211
c49 -399 69 -658 78 -1026 l6 -275 -114 -102 c-169 -150 -438 -355 -581 -440
l-36 -22 5 37 c7 57 -15 656 -32 865 -14 164 -34 359 -51 489 l-6 46 123 83
c200 134 362 261 523 408 43 39 61 50 66 40 4 -7 12 -53 19 -103z m-16012
-229 c170 -111 379 -233 596 -345 97 -51 177 -94 177 -95 0 -1 -9 -65 -20
-142 -49 -349 -85 -742 -98 -1086 -5 -109 -11 -200 -14 -204 -15 -15 -545 281
-777 433 l-144 94 6 192 c7 204 28 481 52 687 26 218 78 550 86 550 5 0 66
-38 136 -84z m15242 -426 c38 -333 52 -550 58 -901 l6 -346 -29 -20 c-104 -73
-637 -352 -861 -450 l-73 -32 0 198 0 198 51 84 c168 279 387 837 471 1203
l13 58 170 98 c94 53 171 97 171 96 1 0 11 -84 23 -186z m-14321 -79 c153 -77
596 -259 867 -356 88 -31 164 -61 168 -65 5 -4 -3 -113 -17 -241 -43 -385 -62
-657 -79 -1111 -2 -48 -6 -90 -9 -93 -13 -14 -651 235 -943 368 l-180 82 -3
75 c-8 172 34 731 83 1110 31 238 35 260 46 260 5 0 35 -13 67 -29z m-1998
-92 l0 -52 -21 26 c-20 26 -20 27 -2 52 10 13 19 25 21 25 1 0 2 -23 2 -51z
m4745 -434 c40 -64 125 -265 125 -295 0 -7 -6 -10 -12 -8 -7 3 -81 20 -164 38
-83 18 -157 36 -164 40 -10 6 -8 47 9 201 12 107 25 203 28 214 5 17 15 10 69
-49 35 -37 84 -101 109 -141z m-1409 10 c264 -84 604 -180 869 -246 116 -29
211 -53 212 -54 2 -1 -6 -98 -17 -216 -26 -287 -47 -615 -61 -954 -6 -154 -12
-282 -14 -283 -16 -17 -918 234 -1230 341 l-70 24 2 209 c1 233 22 553 58 899
30 293 37 345 42 345 2 0 96 -29 209 -65z m-2738 -268 l132 -100 0 -139 0
-140 -37 32 c-21 18 -61 57 -89 87 -43 45 -55 53 -76 48 -32 -8 -42 5 -78 97
-15 40 -55 137 -87 214 l-60 141 81 -69 c45 -39 141 -115 214 -171z m16547
-257 c-24 -321 -103 -901 -136 -987 -18 -48 -385 -347 -615 -501 l-91 -60 24
136 c54 321 97 734 109 1055 l7 176 101 67 c193 128 509 375 586 459 l25 27 3
-79 c2 -43 -4 -175 -13 -293z m-12424 158 l197 -43 58 -98 c82 -139 200 -282
356 -433 l136 -131 191 -97 c118 -59 203 -96 222 -96 l31 0 -7 -87 c-3 -49
-10 -225 -15 -392 -6 -168 -12 -306 -14 -308 -13 -13 -843 136 -1219 218
l-237 52 0 56 c0 175 30 718 60 1091 22 265 27 310 38 310 4 0 95 -19 203 -42z
m-3833 -106 c190 -128 489 -300 721 -416 l111 -56 0 -168 c0 -356 43 -1007 76
-1176 6 -28 5 -28 -175 65 -99 52 -190 101 -202 110 -20 15 -20 17 -4 30 61
48 86 84 107 152 26 83 29 169 10 273 -12 66 -20 80 -99 183 -47 62 -95 117
-107 123 -31 15 -165 192 -193 257 -18 40 -54 86 -127 161 -57 58 -128 142
-159 187 l-57 82 0 126 c0 69 2 125 5 125 3 0 45 -26 93 -58z m15488 -414
c-18 -367 -57 -749 -111 -1062 -14 -82 -25 -153 -25 -157 0 -9 -211 -133 -387
-228 -199 -107 -541 -267 -550 -257 -3 2 5 67 16 143 47 310 75 607 93 965
l12 247 50 22 c235 100 584 278 796 405 58 35 107 63 109 64 2 0 1 -64 -3
-142z m-1030 -295 c-5 -5 -216 -93 -222 -93 -10 0 151 307 184 352 l37 49 3
-152 c1 -83 1 -154 -2 -156z m-13408 135 c225 -105 797 -334 948 -378 l41 -12
6 -357 c7 -366 16 -557 42 -837 8 -89 15 -164 15 -167 0 -22 -618 220 -971
380 l-147 66 -11 86 c-34 272 -58 620 -67 1005 l-7 278 22 -7 c12 -3 70 -29
129 -57z m6062 -102 c85 -19 173 -39 195 -45 22 -6 54 -13 70 -16 22 -4 65
-42 155 -135 118 -120 128 -129 173 -135 52 -8 78 -5 149 18 46 15 48 15 83
-9 28 -19 49 -24 98 -24 75 0 94 -11 199 -109 69 -64 80 -80 108 -153 43 -110
46 -153 21 -281 -22 -115 -27 -128 -73 -192 -24 -32 -37 -41 -71 -46 -85 -13
-1350 19 -1432 36 -23 5 -23 -16 -5 630 6 198 10 387 10 421 l0 61 54 -5 c29
-2 62 1 72 7 26 14 20 15 194 -23z m-423 -183 c-4 -109 -9 -328 -12 -488 -3
-159 -8 -318 -11 -352 l-6 -63 -56 5 c-31 3 -169 15 -307 26 -318 25 -643 60
-957 100 l-248 32 0 81 c0 91 21 720 25 724 1 1 37 -5 80 -14 97 -20 138 -15
257 31 128 50 162 52 283 21 54 -14 117 -26 140 -25 22 0 207 26 410 59 204
32 379 58 389 59 18 1 19 -6 13 -196z m7763 -149 c-13 -264 -34 -522 -61 -734
-26 -216 -58 -413 -67 -421 -19 -17 -671 -264 -677 -257 -4 5 -54 333 -65 425
-17 152 -7 173 295 623 105 157 213 322 240 368 26 46 53 86 59 90 14 9 280
119 283 117 2 -1 -2 -96 -7 -211z m-12140 -50 c255 -81 584 -175 835 -239 121
-31 237 -61 258 -66 l37 -10 0 -334 c0 -315 11 -648 29 -905 5 -63 8 -116 7
-117 -1 -1 -105 25 -231 57 -285 73 -624 170 -873 249 l-189 61 -7 62 c-41
413 -74 1298 -48 1298 4 0 86 -25 182 -56z m13764 -196 c-72 -306 -199 -711
-314 -1001 l-63 -159 -106 -93 c-133 -118 -292 -242 -442 -345 l-117 -80 43
113 c62 164 147 429 198 617 49 179 117 466 117 493 0 10 43 45 108 88 160
107 353 254 482 368 63 55 116 101 116 101 1 0 -9 -46 -22 -102z m-12274 -197
c313 -67 600 -120 923 -173 l267 -43 1 -505 c1 -278 4 -583 8 -678 l6 -172
-30 5 c-16 3 -156 25 -310 50 -382 62 -1075 202 -1093 220 -15 15 -32 390 -38
859 -7 486 -6 498 12 493 10 -4 125 -29 254 -56z m1572 -266 c338 -43 683 -78
1022 -105 143 -11 261 -22 263 -24 2 -2 1 -306 -3 -675 l-7 -671 -31 0 c-50 0
-390 28 -666 55 -215 21 -379 41 -795 94 l-50 6 -6 85 c-19 255 -22 1270 -4
1270 2 0 127 -16 277 -35z m-4801 -27 c46 -25 143 -76 214 -113 72 -38 131
-69 132 -69 0 -1 15 -86 33 -191 52 -315 134 -673 213 -933 l35 -112 -172 88
c-181 94 -444 245 -462 265 -39 44 -154 628 -154 780 0 92 17 314 24 326 10
16 58 2 137 -41z m14729 -120 c-74 -327 -205 -766 -309 -1033 l-31 -80 -133
-77 c-145 -85 -318 -178 -330 -178 -4 0 10 26 31 58 45 67 223 452 246 533 13
42 16 90 14 194 l-3 137 -72 -143 c-39 -79 -89 -167 -111 -194 -34 -43 -164
-166 -352 -333 l-48 -43 14 48 c31 103 104 406 139 578 20 99 40 183 43 186 4
3 61 30 127 59 168 75 515 252 670 343 71 41 131 75 132 74 1 -1 -11 -59 -27
-129z m-8250 2 c91 -5 392 -14 670 -20 277 -6 507 -13 509 -16 3 -2 -1 -10 -7
-16 -18 -18 -14 -62 8 -91 12 -15 59 -52 105 -82 l84 -56 -5 -152 c-16 -526
-24 -804 -24 -872 l0 -78 -517 6 c-473 6 -762 15 -1025 33 l-98 6 0 277 c0
152 3 455 7 674 l6 397 61 0 c34 -1 135 -5 226 -10z m-5954 -146 c253 -117
807 -339 963 -385 23 -7 45 -18 47 -23 2 -6 20 -123 39 -261 39 -269 92 -551
150 -794 21 -84 35 -154 33 -156 -5 -5 -498 182 -653 248 -126 53 -396 175
-401 180 -9 8 -118 409 -152 558 -50 216 -137 679 -127 679 1 0 47 -21 101
-46z m14873 -206 c-214 -427 -609 -1052 -776 -1228 -8 -8 17 35 55 95 148 236
292 504 407 754 61 133 73 151 151 235 47 49 115 130 152 178 37 48 68 88 70
88 1 0 -25 -55 -59 -122z m-7300 -143 c73 -77 90 -107 156 -268 20 -49 48 -90
102 -150 92 -101 134 -179 141 -263 5 -65 -19 -171 -41 -180 -12 -4 -529 -22
-535 -18 -3 2 12 558 24 862 l6 152 37 -29 c21 -16 70 -64 110 -106z m5636 63
c-32 -202 -172 -765 -197 -796 -7 -8 -36 -28 -66 -44 -29 -17 -59 -40 -66 -52
-8 -11 -16 -56 -20 -99 -5 -72 -43 -195 -68 -222 -28 -31 -958 -358 -974 -342
-3 3 0 29 7 57 12 49 18 55 143 153 286 225 325 258 377 314 35 39 74 99 112
175 50 99 61 131 77 226 24 136 40 335 33 389 -5 40 -5 41 38 56 178 65 409
152 489 186 123 51 123 51 115 -1z m-11879 -222 c278 -87 550 -164 827 -234
196 -49 228 -60 231 -77 2 -11 14 -119 26 -240 24 -244 77 -622 114 -815 13
-69 23 -126 22 -127 -4 -4 -497 124 -659 172 -191 55 -500 152 -542 170 -34
14 -27 -9 -96 294 -49 218 -90 442 -123 681 -15 102 -29 200 -32 219 -4 26 -2
33 9 28 8 -3 108 -35 223 -71z m13158 -143 c-139 -294 -281 -548 -456 -814
-87 -134 -124 -181 -186 -236 -144 -129 -284 -238 -466 -362 l-48 -33 38 58
c147 227 386 680 484 917 l45 108 120 81 c149 101 334 242 445 341 47 42 86
76 87 77 1 0 -27 -62 -63 -137z m-11743 -228 c296 -63 657 -130 955 -177 l212
-33 7 -125 c17 -319 76 -1019 90 -1057 3 -8 -5 -11 -23 -8 -15 3 -124 21 -242
40 -429 68 -1079 200 -1100 221 -19 21 -105 583 -140 914 -28 271 -28 280 -21
280 4 0 122 -25 262 -55z m-3149 -69 c133 -79 360 -203 469 -256 l66 -33 28
-86 c73 -227 240 -618 367 -860 l70 -134 -128 68 c-188 99 -371 206 -521 304
l-132 86 -84 145 c-88 151 -136 241 -224 423 -46 95 -50 107 -31 101 20 -6 21
-4 14 32 -18 103 -32 284 -22 284 2 0 60 -33 128 -74z m-359 -167 c68 -45 97
-59 126 -59 l36 0 80 -162 c44 -89 117 -227 163 -307 45 -80 82 -147 82 -149
0 -7 -199 151 -287 228 -87 76 -96 86 -142 183 -26 56 -81 151 -120 211 -39
60 -71 113 -71 118 0 17 45 -4 133 -63z m14577 27 c-83 -218 -299 -636 -479
-924 l-86 -137 -115 -68 c-116 -68 -598 -314 -658 -335 l-33 -11 26 42 c14 23
51 89 82 147 54 101 60 108 135 160 116 79 135 102 228 269 47 84 112 190 146
235 81 109 204 281 239 333 23 36 51 55 184 126 86 47 194 107 241 135 47 28
88 51 92 52 4 0 3 -11 -2 -24z m-9490 -56 c334 -41 736 -82 1038 -104 100 -7
184 -15 187 -18 2 -2 9 -256 15 -564 6 -307 12 -571 15 -586 4 -27 3 -28 -35
-28 -155 0 -1267 115 -1412 146 -19 4 -28 13 -32 32 -17 85 -70 717 -81 962
-3 74 -8 150 -11 168 -3 17 -4 32 -2 32 2 0 145 -18 318 -40z m1625 -141 c110
-6 456 -13 769 -16 l569 -6 -7 -186 c-8 -204 -32 -710 -42 -890 l-7 -114 -476
7 c-440 6 -743 16 -982 32 l-96 6 -7 221 c-3 122 -9 389 -12 593 l-7 371 49
-3 c27 -2 139 -9 249 -15z m-5585 -60 c182 -83 591 -248 771 -310 l126 -44 13
-50 c50 -198 231 -695 334 -917 19 -43 34 -78 31 -78 -2 0 -59 20 -127 44
-239 85 -530 204 -739 303 l-97 45 -65 122 c-105 198 -225 464 -310 686 -42
112 -97 270 -94 270 1 0 72 -32 157 -71z m7614 30 c70 -83 72 -141 9 -271 -41
-85 -123 -187 -253 -318 -83 -83 -115 -144 -140 -265 -32 -153 -32 -151 57
-231 l77 -69 -40 -7 c-21 -4 -110 -7 -196 -7 -157 -1 -158 -1 -158 22 0 12 9
184 20 382 10 198 22 452 26 563 5 132 11 205 18 208 6 2 117 7 246 12 129 5
251 10 272 10 29 2 41 -4 62 -29z m-8454 -375 c47 -39 125 -101 175 -139 82
-61 98 -79 185 -208 122 -182 241 -340 377 -501 166 -196 166 -198 33 -86
-232 196 -713 716 -757 820 -8 18 -30 52 -48 75 -18 22 -50 67 -71 100 -37 59
-37 60 -8 35 16 -14 68 -57 114 -96z m13215 49 c-41 -94 -92 -158 -171 -218
-83 -62 -94 -79 -164 -260 l-47 -119 24 -73 25 -73 43 30 c24 17 49 30 55 30
13 0 10 -6 -78 -162 l-67 -118 -175 -69 c-212 -84 -436 -164 -630 -224 -207
-65 -197 -62 -183 -46 20 25 161 336 229 506 37 93 94 245 125 338 32 94 64
173 71 177 7 3 146 49 308 102 162 53 376 127 475 165 99 38 181 70 182 70 2
1 -9 -25 -22 -56z m-10940 -229 c121 -36 341 -96 489 -134 148 -38 272 -73
276 -77 4 -4 24 -84 44 -178 45 -198 147 -560 204 -722 22 -62 36 -113 30
-113 -39 0 -568 145 -858 235 -118 37 -224 70 -234 73 -45 12 -251 530 -371
932 -19 64 -35 120 -35 123 0 3 53 -12 118 -34 64 -22 216 -69 337 -105z
m11944 -6 c-310 -407 -795 -895 -1102 -1109 l-62 -43 112 119 c193 207 364
417 522 638 57 80 73 94 194 176 73 49 191 137 262 195 72 58 131 105 133 105
2 1 -25 -36 -59 -81z m-2055 -105 c-10 -43 -107 -315 -157 -443 -61 -156 -106
-260 -184 -421 l-65 -136 -114 -32 c-97 -27 -395 -104 -487 -125 -53 -12 266
295 426 410 148 107 168 119 209 134 23 8 31 22 59 112 41 133 47 178 25 178
-9 0 -16 6 -16 13 0 24 80 153 143 233 53 66 73 84 104 92 61 16 64 15 57 -15z
m-11639 -85 c140 -87 347 -204 491 -276 l101 -50 58 -99 c125 -209 321 -482
479 -667 42 -48 76 -90 76 -92 0 -14 -331 172 -523 293 -101 64 -133 92 -230
197 -230 250 -450 533 -602 771 l-18 30 24 -16 c13 -9 78 -50 144 -91z m2775
-67 c312 -68 977 -190 1169 -213 24 -3 25 -8 57 -228 34 -239 78 -485 118
-665 13 -60 23 -111 21 -113 -11 -11 -906 154 -1195 221 l-54 12 -39 110 c-56
160 -159 525 -202 715 -20 91 -39 173 -42 183 -4 15 -1 18 14 13 10 -3 79 -19
153 -35z m10329 -153 c-152 -217 -371 -480 -574 -687 -132 -135 -163 -161
-260 -219 -116 -69 -432 -232 -524 -270 l-53 -22 70 74 c157 166 358 423 507
650 l78 118 81 36 c131 58 503 247 601 305 50 30 92 52 94 51 2 -2 -7 -18 -20
-36z m-8739 -117 c331 -42 600 -68 1093 -107 l77 -6 0 -47 c0 -64 27 -570 41
-769 6 -90 9 -166 5 -169 -21 -22 -1316 114 -1342 141 -21 20 -106 478 -154
818 -26 192 -27 182 13 174 17 -3 138 -19 267 -35z m-3530 -101 c149 -68 490
-205 677 -272 l121 -43 32 -65 c98 -200 274 -483 417 -672 l73 -98 -77 29
c-271 100 -502 195 -693 284 -68 32 -83 44 -167 143 -152 180 -249 309 -378
504 -154 233 -173 265 -154 258 8 -4 75 -34 149 -68z m5290 -40 c124 -5 411
-10 638 -10 l412 0 0 -47 c0 -84 -55 -847 -66 -912 l-5 -34 -527 6 c-423 5
-891 20 -898 30 -3 4 -25 391 -34 607 -6 129 -12 268 -14 309 l-3 74 136 -7
c75 -4 237 -11 361 -16z m1689 -101 c48 -65 82 -124 97 -165 23 -66 30 -79 70
-124 12 -14 30 -52 39 -84 17 -57 17 -64 -1 -139 l-18 -79 27 -82 c19 -57 25
-93 21 -115 -5 -23 -2 -37 11 -51 17 -18 16 -19 -6 -24 -26 -5 -354 -21 -661
-32 l-188 -7 0 39 c0 21 5 80 10 129 11 110 60 751 60 793 l0 31 118 4 c64 1
169 4 232 4 l115 2 74 -100z m4370 -151 c-159 -238 -337 -463 -531 -670 -63
-67 -64 -67 -233 -134 -183 -71 -667 -236 -674 -229 -2 3 16 28 41 57 126 150
316 430 428 631 l65 117 85 25 c250 76 815 278 877 314 10 6 19 11 21 11 1 0
-34 -55 -79 -122z m-10006 -194 c104 -31 292 -82 419 -114 127 -32 231 -60
232 -62 1 -2 24 -57 50 -123 64 -157 199 -434 275 -562 34 -56 61 -104 61
-107 0 -12 -525 132 -800 220 l-175 56 -76 101 c-143 191 -262 379 -380 600
-38 71 -69 130 -69 132 0 1 62 -17 138 -42 75 -24 222 -69 325 -99z m-1638 86
c10 -11 16 -20 13 -20 -3 0 -13 9 -23 20 -10 11 -16 20 -13 20 3 0 13 -9 23
-20z m70 -60 c10 -11 16 -20 13 -20 -3 0 -13 9 -23 20 -10 11 -16 20 -13 20 3
0 13 -9 23 -20z m385 -222 c74 -41 169 -92 210 -113 59 -30 103 -64 205 -163
147 -142 289 -265 420 -366 50 -38 95 -74 100 -79 38 -36 -231 127 -435 263
-258 172 -531 386 -740 580 l-55 51 80 -49 c44 -27 141 -83 215 -124z m10190
124 c0 -40 -311 -518 -447 -687 l-88 -109 -75 -23 c-112 -34 -531 -137 -725
-178 -93 -19 -180 -38 -193 -40 -22 -5 -20 -2 16 52 58 87 137 223 197 342
l54 106 78 45 c43 24 134 82 202 128 68 46 156 99 195 119 39 20 87 48 106 63
27 21 85 39 265 84 127 31 266 67 310 80 89 27 105 29 105 18z m1310 -26 c0
-2 -44 -39 -97 -81 -58 -46 -84 -63 -63 -41 19 21 62 57 95 81 65 47 65 47 65
41z m-9384 -137 c310 -67 665 -131 1017 -185 23 -4 37 -11 37 -20 0 -51 163
-578 219 -706 l20 -48 -23 0 c-63 0 -726 123 -1003 186 l-72 16 -57 96 c-76
127 -190 351 -246 487 -60 143 -89 215 -84 215 1 0 88 -18 192 -41z m9094 -60
c-107 -91 -340 -275 -440 -346 -221 -156 -535 -346 -734 -444 -110 -54 -110
-53 22 39 130 91 331 255 458 374 93 86 125 109 190 137 96 42 363 175 459
230 85 48 90 49 45 10z m80 27 c0 -2 -8 -10 -17 -17 -16 -13 -17 -12 -4 4 13
16 21 21 21 13z m-10303 -377 l222 -82 118 -131 c126 -139 266 -271 398 -375
44 -35 85 -67 90 -73 20 -19 -278 98 -500 196 -207 91 -506 312 -769 567
l-141 138 180 -79 c100 -43 280 -115 402 -161z m2498 177 c260 -33 625 -71
895 -91 118 -10 216 -18 216 -19 1 0 9 -80 18 -176 15 -153 42 -387 62 -533 6
-40 4 -47 -10 -47 -94 0 -762 67 -1053 106 l-121 16 -50 137 c-67 182 -95 275
-147 474 -37 143 -41 167 -27 163 9 -3 107 -16 217 -30z m3795 -169 c8 -6 37
-41 63 -77 l48 -65 -6 -70 c-7 -74 6 -128 42 -167 15 -17 13 -27 -32 -144 -35
-91 -54 -128 -69 -134 -39 -16 -623 -55 -984 -66 -208 -6 -232 -5 -232 9 0 8
9 78 20 154 11 76 31 237 45 357 14 121 26 221 28 222 2 2 124 8 273 14 265 9
655 29 684 33 14 3 84 -36 120 -66z m-2090 33 c140 -5 405 -10 587 -10 l333 0
-5 -27 c-3 -16 -9 -77 -15 -138 -20 -216 -61 -550 -70 -572 -9 -22 -13 -23
-167 -23 -188 0 -822 18 -978 28 l-110 7 -12 90 c-12 96 -48 445 -59 584 l-7
84 124 -7 c68 -4 239 -11 379 -16z m5261 -76 c-254 -235 -597 -488 -767 -565
-148 -67 -647 -242 -609 -214 195 148 289 229 440 377 l179 176 181 57 c165
52 590 205 625 226 8 4 17 9 19 9 2 0 -29 -30 -68 -66z m-1682 -91 c-69 -130
-186 -324 -207 -345 -21 -20 -389 -82 -795 -133 -290 -37 -341 -41 -335 -26 2
4 21 53 42 107 l39 100 61 -4 c52 -3 75 1 153 32 71 28 107 36 155 36 48 0
129 19 348 81 294 83 395 123 525 208 33 22 61 40 63 40 2 1 -20 -43 -49 -96z
m-7042 -117 c103 -29 265 -73 358 -96 142 -35 173 -47 190 -68 11 -14 60 -79
109 -144 48 -66 147 -181 219 -255 109 -112 126 -133 101 -127 -100 24 -449
122 -586 165 -159 49 -165 52 -265 127 -138 105 -314 264 -419 380 -48 54 -99
109 -112 124 l-25 27 121 -40 c66 -21 205 -63 309 -93z m7813 -106 c-105 -121
-348 -334 -522 -456 -88 -62 -95 -65 -393 -140 -168 -43 -497 -115 -502 -111
-1 1 30 29 69 62 88 75 239 241 338 373 l75 99 180 37 c213 44 455 101 655
155 80 22 147 40 148 40 2 1 -20 -26 -48 -59z m-6905 -115 c121 -26 350 -68
508 -95 159 -26 289 -50 290 -52 1 -1 35 -70 76 -153 41 -82 107 -198 147
-257 54 -80 68 -108 56 -108 -36 0 -495 83 -677 122 -106 22 -201 48 -215 58
-58 41 -273 275 -363 395 -53 71 -97 133 -97 138 0 5 12 7 28 4 15 -4 126 -27
247 -52z m5875 -82 c0 -19 -160 -213 -269 -326 -209 -216 -181 -200 -432 -241
-179 -30 -369 -56 -661 -91 l-47 -6 85 126 c47 70 114 186 151 259 l66 132
206 23 c237 26 546 70 741 105 159 28 160 28 160 19z m-6998 -37 c30 -14 136
-55 234 -91 134 -50 208 -85 296 -138 64 -40 115 -73 114 -75 -7 -6 -351 147
-526 234 -180 90 -229 119 -118 70z m2159 -55 c198 -27 596 -68 823 -85 103
-8 190 -16 192 -18 1 -2 19 -84 38 -183 20 -99 45 -211 56 -249 11 -38 18 -71
16 -73 -8 -9 -591 48 -855 84 l-123 16 -45 61 c-63 86 -146 229 -204 352 -27
58 -49 107 -49 109 0 6 -12 8 151 -14z m3578 -203 c-60 -118 -164 -286 -222
-360 -11 -13 -50 -20 -203 -32 -178 -15 -433 -29 -710 -40 l-122 -5 24 92 c12
51 34 155 49 232 14 77 28 149 30 161 4 20 14 21 312 32 294 12 653 34 813 51
41 5 81 9 88 10 7 0 -19 -61 -59 -141z m2126 71 c-141 -68 -668 -280 -694
-279 -3 0 30 20 74 43 44 23 105 57 135 75 45 27 520 198 555 200 6 0 -26 -17
-70 -39z m-4294 11 c136 -5 400 -10 588 -10 320 0 341 -1 341 -18 0 -28 -48
-296 -72 -399 l-21 -93 -220 0 c-225 0 -738 16 -793 25 -30 5 -32 9 -52 93
-12 48 -33 150 -46 227 -14 77 -28 152 -30 167 -5 25 -3 26 27 22 18 -2 143
-8 278 -14z m-2791 -96 c102 -30 258 -73 348 -96 131 -33 171 -47 205 -73 84
-64 173 -121 262 -168 49 -26 81 -46 70 -43 -158 38 -568 172 -705 231 -139
60 -462 236 -385 210 11 -4 103 -31 205 -61z m6500 -96 c-98 -60 -355 -174
-502 -222 -135 -45 -585 -166 -614 -166 -5 0 34 22 86 48 52 26 141 79 197
116 l101 68 169 35 c92 19 260 59 373 87 244 63 234 61 190 34z m-5705 -104
c94 -19 285 -55 426 -78 l255 -44 76 -75 c42 -41 106 -94 142 -118 36 -23 64
-44 62 -46 -11 -11 -554 96 -649 128 -128 43 -418 199 -481 260 -13 12 -22 13
169 -27z m4844 -93 c-36 -28 -151 -97 -221 -132 -107 -54 -230 -97 -339 -118
-123 -24 -511 -81 -554 -81 -28 0 -25 3 35 42 36 24 99 75 141 115 l75 72 180
21 c197 23 646 89 653 96 2 2 15 4 29 4 l25 0 -24 -19z m-3839 -71 c91 -11
278 -29 415 -41 345 -29 306 -18 333 -92 12 -35 38 -86 57 -115 40 -62 57 -58
-171 -37 -309 29 -518 57 -563 77 -73 31 -172 102 -241 174 l-65 66 35 -6 c19
-3 109 -15 200 -26z m2804 -119 c-55 -52 -107 -91 -161 -119 l-79 -41 -194
-16 c-107 -8 -282 -18 -389 -22 l-193 -6 25 39 c14 21 38 74 52 117 l28 77 95
0 c125 0 477 18 673 34 85 7 170 14 189 14 l35 1 -81 -78z m-1504 28 c212 -5
415 -7 452 -4 l67 7 -23 -69 c-28 -83 -59 -145 -81 -163 -13 -11 -81 -11 -403
-2 l-387 11 -32 37 c-27 30 -93 173 -93 200 0 4 26 4 58 0 31 -3 230 -11 442
-17z"/>
</g>
</svg>
