<svg width="67" height="67" viewBox="0 0 67 67" fill="none" xmlns="http://www.w3.org/2000/svg">
<circle cx="33.5" cy="33.5" r="33.5" fill="#2D7EFF"/>
<path d="M52.3333 20.875V45.7917C52.3333 46.5583 52.0458 47.2292 51.4708 47.8042C50.8958 48.3792 50.225 48.6667 49.4583 48.6667H16.875C16.1083 48.6667 15.4375 48.3792 14.8625 47.8042C14.2875 47.2292 14 46.5583 14 45.7917V20.875C14 20.1083 14.2875 19.4375 14.8625 18.8625C15.4375 18.2875 16.1083 18 16.875 18H49.4583C50.225 18 50.8958 18.2875 51.4708 18.8625C52.0458 19.4375 52.3333 20.1083 52.3333 20.875ZM16.875 26.0979H49.4583V20.875H16.875V26.0979ZM16.875 32.2792V45.7917H49.4583V32.2792H16.875Z" fill="white"/>
</svg>
