<svg width="67" height="67" viewBox="0 0 67 67" fill="none" xmlns="http://www.w3.org/2000/svg">
<circle cx="33.5" cy="33.5" r="33.5" fill="#2D7EFF"/>
<path d="M32.3906 46.9187H34.9688V44.4271C36.875 44.2035 38.3594 43.6045 39.4219 42.6302C40.4844 41.6559 41.0156 40.3542 41.0156 38.725C41.0156 37.0958 40.5625 35.7701 39.6562 34.7479C38.75 33.7257 37.2188 32.7514 35.0625 31.825C33.25 31.0583 31.9375 30.3715 31.125 29.7646C30.3125 29.1576 29.9062 28.3431 29.9062 27.3208C29.9062 26.3306 30.2578 25.5479 30.9609 24.9729C31.6641 24.3979 32.625 24.1104 33.8438 24.1104C34.7812 24.1104 35.5937 24.334 36.2812 24.7812C36.9688 25.2285 37.5469 25.8993 38.0156 26.7937L40.2656 25.6917C39.7344 24.5736 39.0312 23.6951 38.1562 23.0562C37.2813 22.4174 36.25 22.034 35.0625 21.9062V19.4625H32.4844V21.9062C30.8906 22.1299 29.6328 22.7288 28.7109 23.7031C27.7891 24.6774 27.3281 25.8833 27.3281 27.3208C27.3281 28.8861 27.7969 30.1319 28.7344 31.0583C29.6719 31.9847 31.0781 32.8472 32.9531 33.6458C35.0469 34.5403 36.4844 35.3469 37.2656 36.0656C38.0469 36.7844 38.4375 37.6708 38.4375 38.725C38.4375 39.7472 38.0234 40.5698 37.1953 41.1927C36.3672 41.8156 35.3281 42.1271 34.0781 42.1271C32.8594 42.1271 31.7734 41.7757 30.8203 41.0729C29.8672 40.3701 29.2031 39.4118 28.8281 38.1979L26.4375 39.0125C27.0938 40.4819 27.8984 41.6399 28.8516 42.4865C29.8047 43.333 30.9844 43.9479 32.3906 44.3312V46.9187ZM33.75 52.3333C31.1875 52.3333 28.7656 51.8302 26.4844 50.824C24.2031 49.8177 22.2109 48.4441 20.5078 46.7031C18.8047 44.9622 17.4609 42.9257 16.4766 40.5937C15.4922 38.2618 15 35.7861 15 33.1667C15 30.5153 15.4922 28.0236 16.4766 25.6917C17.4609 23.3597 18.8047 21.3312 20.5078 19.6062C22.2109 17.8812 24.2031 16.5156 26.4844 15.5094C28.7656 14.5031 31.1875 14 33.75 14C36.3437 14 38.7812 14.5031 41.0625 15.5094C43.3438 16.5156 45.3281 17.8812 47.0156 19.6062C48.7031 21.3312 50.0391 23.3597 51.0234 25.6917C52.0078 28.0236 52.5 30.5153 52.5 33.1667C52.5 35.7861 52.0078 38.2618 51.0234 40.5937C50.0391 42.9257 48.7031 44.9622 47.0156 46.7031C45.3281 48.4441 43.3438 49.8177 41.0625 50.824C38.7812 51.8302 36.3437 52.3333 33.75 52.3333ZM33.75 49.4583C38.1875 49.4583 41.9531 47.8691 45.0469 44.6906C48.1406 41.5122 49.6875 37.6708 49.6875 33.1667C49.6875 28.6306 48.1406 24.7812 45.0469 21.6187C41.9531 18.4562 38.1875 16.875 33.75 16.875C29.3438 16.875 25.5859 18.4562 22.4766 21.6187C19.3672 24.7812 17.8125 28.6306 17.8125 33.1667C17.8125 37.6708 19.3672 41.5122 22.4766 44.6906C25.5859 47.8691 29.3438 49.4583 33.75 49.4583Z" fill="white"/>
</svg>
