<svg width="67" height="67" viewBox="0 0 67 67" fill="none" xmlns="http://www.w3.org/2000/svg">
<circle cx="33.5" cy="33.5" r="33.5" fill="#2D7EFF"/>
<path d="M31.4688 47.625H35.0312V43.6958L41.6875 36.2208V27.0687H24.8125V36.2208L31.4688 43.6815V47.625ZM28.6562 50.5V44.8458L22 37.3708V27.0687C22 26.2781 22.2754 25.6013 22.8262 25.0383C23.377 24.4753 24.0391 24.1937 24.8125 24.1937H28.1875L26.7812 25.6312V16H29.5938V24.1937H36.9062V16H39.7188V25.6312L38.3125 24.1937H41.6875C42.4609 24.1937 43.123 24.4753 43.6738 25.0383C44.2246 25.6013 44.5 26.2781 44.5 27.0687V37.3708L37.8438 44.8458V50.5H28.6562Z" fill="white"/>
</svg>
