<svg width="67" height="67" viewBox="0 0 67 67" fill="none" xmlns="http://www.w3.org/2000/svg">
<circle cx="33.5" cy="33.5" r="33.5" fill="#2D7EFF"/>
<path d="M33.75 46.5833C37.4062 46.5833 40.5078 45.2816 43.0547 42.6781C45.6016 40.0747 46.875 36.9042 46.875 33.1667C46.875 29.4292 45.6016 26.2587 43.0547 23.6552C40.5078 21.0517 37.4062 19.75 33.75 19.75V33.1667L24.7969 42.75C25.9531 43.9958 27.3125 44.9462 28.875 45.601C30.4375 46.2559 32.0625 46.5833 33.75 46.5833ZM33.75 52.3333C31.1875 52.3333 28.7656 51.8302 26.4844 50.824C24.2031 49.8177 22.2109 48.4441 20.5078 46.7031C18.8047 44.9622 17.4609 42.9257 16.4766 40.5937C15.4922 38.2618 15 35.7861 15 33.1667C15 30.5153 15.4922 28.0236 16.4766 25.6917C17.4609 23.3597 18.8047 21.3312 20.5078 19.6062C22.2109 17.8812 24.2031 16.5156 26.4844 15.5094C28.7656 14.5031 31.1875 14 33.75 14C36.3437 14 38.7812 14.5031 41.0625 15.5094C43.3438 16.5156 45.3281 17.8812 47.0156 19.6062C48.7031 21.3312 50.0391 23.3597 51.0234 25.6917C52.0078 28.0236 52.5 30.5153 52.5 33.1667C52.5 35.7861 52.0078 38.2618 51.0234 40.5937C50.0391 42.9257 48.7031 44.9622 47.0156 46.7031C45.3281 48.4441 43.3438 49.8177 41.0625 50.824C38.7812 51.8302 36.3437 52.3333 33.75 52.3333ZM33.75 49.4583C38.1875 49.4583 41.9531 47.8691 45.0469 44.6906C48.1406 41.5122 49.6875 37.6708 49.6875 33.1667C49.6875 28.6306 48.1406 24.7812 45.0469 21.6187C41.9531 18.4562 38.1875 16.875 33.75 16.875C29.3438 16.875 25.5859 18.4562 22.4766 21.6187C19.3672 24.7812 17.8125 28.6306 17.8125 33.1667C17.8125 37.6708 19.3672 41.5122 22.4766 44.6906C25.5859 47.8691 29.3438 49.4583 33.75 49.4583Z" fill="white"/>
</svg>
