<svg width="67" height="67" viewBox="0 0 67 67" fill="none" xmlns="http://www.w3.org/2000/svg">
<circle cx="33.5" cy="33.5" r="33.5" fill="#2D7EFF"/>
<path d="M40.9375 36.3167C41.7188 36.3167 42.4141 36.0052 43.0234 35.3823C43.6328 34.7594 43.9375 34.0406 43.9375 33.226C43.9375 32.4115 43.6328 31.7007 43.0234 31.0937C42.4141 30.4868 41.7188 30.1833 40.9375 30.1833C40.1563 30.1833 39.4609 30.4868 38.8516 31.0937C38.2422 31.7007 37.9375 32.4115 37.9375 33.226C37.9375 34.0406 38.2422 34.7594 38.8516 35.3823C39.4609 36.0052 40.1563 36.3167 40.9375 36.3167ZM18.8125 45.0854V47.625V18.875V45.0854ZM18.8125 50.5C18.0938 50.5 17.4453 50.2125 16.8672 49.6375C16.2891 49.0625 16 48.3917 16 47.625V18.875C16 18.1403 16.2891 17.4774 16.8672 16.8865C17.4453 16.2955 18.0938 16 18.8125 16H46.9375C47.6875 16 48.3438 16.2955 48.9063 16.8865C49.4688 17.4774 49.75 18.1403 49.75 18.875V25.2958H46.9375V18.875H18.8125V47.625H46.9375V41.2521H49.75V47.625C49.75 48.3917 49.4688 49.0625 48.9063 49.6375C48.3438 50.2125 47.6875 50.5 46.9375 50.5H18.8125ZM35.5938 42.2104C34.5313 42.2104 33.6875 41.891 33.0625 41.2521C32.4375 40.6132 32.125 39.7667 32.125 38.7125V27.8354C32.125 26.7493 32.4375 25.8948 33.0625 25.2719C33.6875 24.649 34.5313 24.3375 35.5938 24.3375H48.25C49.3125 24.3375 50.1563 24.649 50.7813 25.2719C51.4063 25.8948 51.7188 26.7493 51.7188 27.8354V38.7125C51.7188 39.7667 51.4063 40.6132 50.7813 41.2521C50.1563 41.891 49.3125 42.2104 48.25 42.2104H35.5938ZM48.9063 39.3354V27.2125H34.9375V39.3354H48.9063Z" fill="white"/>
</svg>
