<svg width="34" height="34" viewBox="0 0 34 34" fill="none" xmlns="http://www.w3.org/2000/svg">
<path d="M13.5231 12.9448C12.8787 11.7226 12.5489 10.3592 12.5634 8.97773C12.5779 7.59621 12.9364 6.24006 13.6063 5.03175C15.6986 0.0386585 9.50686 0.0578544 6.29687 3.04603C4.99703 4.11509 4.16041 5.64494 3.96169 7.31616C3.76297 8.98738 4.21752 10.6708 5.23042 12.0148C6.92646 14.0182 9.19753 15.4516 11.7357 16.1206" stroke="#2D7EFF" stroke-linecap="round" stroke-linejoin="round"/>
<path d="M12.9446 20.4697C11.7227 21.1137 10.3597 21.4433 8.97862 21.4287C7.59751 21.4142 6.24175 21.056 5.0337 20.3865C0.0384799 18.2941 0.0576758 24.4859 3.04585 27.6959C4.11491 28.9957 5.64477 29.8323 7.31598 30.0311C8.9872 30.2298 10.6706 29.7752 12.0146 28.7623C14.0188 27.0651 15.4522 24.7925 16.1205 22.2527" stroke="#2D7EFF" stroke-linecap="round" stroke-linejoin="round"/>
<path d="M20.4687 21.0497C21.113 22.2719 21.4429 23.6352 21.4283 25.0168C21.4138 26.3983 21.0554 27.7544 20.3855 28.9628C18.2931 33.9644 24.4849 33.9452 27.6949 30.957C28.9917 29.8883 29.8264 28.3605 30.025 26.6919C30.2237 25.0232 29.771 23.3422 28.7613 21.9989C27.0642 19.9948 24.7915 18.5613 22.2518 17.8931" stroke="#2D7EFF" stroke-linecap="round" stroke-linejoin="round"/>
<path d="M21.047 13.525C22.2688 12.881 23.6318 12.5514 25.0129 12.5659C26.394 12.5804 27.7498 12.9386 28.9578 13.6082C33.9595 15.7005 33.9403 9.50874 30.9521 6.29875C29.8834 5.00192 28.3556 4.16729 26.6869 3.96864C25.0183 3.76998 23.3373 4.22262 21.994 5.2323C19.9843 6.92594 18.5448 9.19726 17.8711 11.7376" stroke="#2D7EFF" stroke-linecap="round" stroke-linejoin="round"/>
<path d="M16.9963 22.3295C19.9412 22.3295 22.3285 19.9422 22.3285 16.9973C22.3285 14.0524 19.9412 11.665 16.9963 11.665C14.0514 11.665 11.6641 14.0524 11.6641 16.9973C11.6641 19.9422 14.0514 22.3295 16.9963 22.3295Z" stroke="#2D7EFF" stroke-linecap="round" stroke-linejoin="round"/>
</svg>
